<?xml version="1.0" encoding="utf-8"?><!-- Generator: Iparigrafika Gear Generator by Abel Vincze http://geargenerator.com/ --><svg version="1.2" class="svggear" xmlns="http://www.w3.org/2000/svg" xmlns:xlink="http://www.w3.org/1999/xlink" x="0px" y="0px" width="1100px" height="1100px" viewBox="-550 -550 1100 1100" overflow="scroll" xml:space="preserve"><polygon id="gearpoly1" data-id="1" class="gear" fill="#ddd" stroke="#444" stroke-width="1" stroke-miterlimit="10" points="514.1599,-2.645 514.7486,-7.827 515.6564,-8.1784 516.5757,-8.5399 517.5064,-8.9118 518.4483,-9.2942 519.4015,-9.6872 520.3657,-10.0909 521.341,-10.5055 522.3271,-10.9311 523.3242,-11.3679 524.3319,-11.8159 525.3503,-12.2754 526.3793,-12.7463 527.4187,-13.229 528.4685,-13.7234 529.5286,-14.2297 530.5988,-14.7481 531.679,-15.2786 532.7693,-15.8215 533.8694,-16.3767 534.9792,-16.9445 536.0987,-17.525 537.2278,-18.1182 538.3663,-18.7244 539.5141,-19.3435 540.6711,-19.9759 541.8373,-20.6215 543.0125,-21.2804 544.1965,-21.9529 545.3893,-22.639 546.5908,-23.3388 547.8009,-24.0525 549.0194,-24.7801 549.4093,-25.483 548.9394,-34.1407 548.4756,-34.7972 547.1855,-35.3887 545.9053,-35.9672 544.6351,-36.5328 543.375,-37.0858 542.1251,-37.6261 540.8855,-38.154 539.6563,-38.6696 538.4377,-39.1729 537.2295,-39.6642 536.0321,-40.1435 534.8455,-40.6111 533.6697,-41.0669 532.5049,-41.5113 531.3512,-41.9442 530.2086,-42.3658 529.0773,-42.7763 527.9572,-43.1758 526.8486,-43.5644 525.7515,-43.9422 524.6659,-44.3095 523.592,-44.6663 522.5298,-45.0128 521.4795,-45.3491 520.4411,-45.6754 519.4146,-45.9918 518.4002,-46.2984 517.3979,-46.5953 516.4078,-46.8828 515.43,-47.161 514.4646,-47.4299 513.5115,-47.6899 512.571,-47.9409 511.4248,-53.0287 511.4248,-53.0287 511.5027,-58.2435 512.3718,-58.6822 513.2512,-59.1321 514.1409,-59.5934 515.0409,-60.0663 515.9509,-60.5508 516.8709,-61.0471 517.8008,-61.5553 518.7406,-62.0755 519.69,-62.6079 520.649,-63.1526 521.6174,-63.7096 522.5953,-64.2792 523.5824,-64.8613 524.5787,-65.4563 525.584,-66.0641 526.5982,-66.6848 527.6213,-67.3187 528.6531,-67.9658 529.6934,-68.6262 530.7423,-69.3001 531.7995,-69.9875 532.865,-70.6885 533.9386,-71.4033 535.0202,-72.132 536.1097,-72.8747 537.2069,-73.6315 538.3119,-74.4025 539.4243,-75.1878 540.5441,-75.9875 541.6712,-76.8017 542.8055,-77.6305 543.9468,-78.4741 544.266,-79.2118 542.9497,-87.7818 542.4238,-88.3897 541.082,-88.8519 539.7512,-89.3021 538.4317,-89.7405 537.1235,-90.1673 535.8266,-90.5825 534.5413,-90.9863 533.2675,-91.3789 532.0053,-91.7604 530.7549,-92.1309 529.5162,-92.4906 528.2895,-92.8396 527.0747,-93.178 525.872,-93.506 524.6814,-93.8237 523.5029,-94.1313 522.3368,-94.4289 521.183,-94.7167 520.0416,-94.9948 518.9127,-95.2633 517.7964,-95.5224 516.6927,-95.7722 515.6017,-96.0129 514.5234,-96.2447 513.458,-96.4676 512.4055,-96.6818 511.3659,-96.8875 510.3394,-97.0848 509.3259,-97.2739 508.3255,-97.4549 507.3383,-97.6279 506.3644,-97.7931 505.4038,-97.9508 503.7644,-102.9018 503.7644,-102.9018 503.3308,-108.0991 504.1527,-108.6208 504.9838,-109.1548 505.824,-109.7011 506.6733,-110.2599 507.5314,-110.8312 508.3984,-111.4153 509.274,-112.0122 510.1582,-112.6221 511.0509,-113.2449 511.9519,-113.881 512.8611,-114.5303 513.7784,-115.1929 514.7037,-115.8691 515.6368,-116.5588 516.5777,-117.2622 517.5263,-117.9794 518.4823,-118.7105 519.4457,-119.4556 520.4163,-120.2148 521.394,-120.9882 522.3788,-121.7759 523.3704,-122.578 524.3688,-123.3946 525.3737,-124.2258 526.3852,-125.0717 527.403,-125.9324 528.427,-126.808 529.4571,-127.6986 530.4932,-128.6042 531.5351,-129.5249 532.5826,-130.461 533.6358,-131.4123 533.8811,-132.1778 531.7311,-140.5775 531.1482,-141.1309 529.7675,-141.4593 528.399,-141.7769 527.0429,-142.0839 525.6991,-142.3804 524.3679,-142.6665 523.0491,-142.9424 521.7429,-143.2083 520.4495,-143.4642 519.1687,-143.7104 517.9008,-143.9469 516.6458,-144.1739 515.4037,-144.3917 514.1746,-144.6002 512.9585,-144.7997 511.7557,-144.9903 510.566,-145.1722 509.3895,-145.3455 508.2264,-145.5103 507.0766,-145.6669 505.9402,-145.8154 504.8174,-145.9558 503.708,-146.0884 502.6122,-146.2134 501.5301,-146.3308 500.4616,-146.4408 499.4069,-146.5436 498.3659,-146.6393 497.3388,-146.7282 496.3255,-146.8102 495.3262,-146.8857 494.3407,-146.9546 493.3693,-147.0173 491.2525,-151.7838 491.2525,-151.7838 490.3116,-156.9136 491.0784,-157.5134 491.8531,-158.1262 492.6358,-158.7523 493.4261,-159.3916 494.2242,-160.0443 495.0297,-160.7106 495.8426,-161.3904 496.6628,-162.084 497.4901,-162.7914 498.3244,-163.5127 499.1656,-164.2479 500.0135,-164.9973 500.8681,-165.7609 501.7291,-166.5388 502.5966,-167.331 503.4702,-168.1377 504.35,-168.959 505.2357,-169.795 506.1272,-170.6456 507.0245,-171.5112 507.9273,-172.3916 508.8355,-173.287 509.749,-174.1976 510.6677,-175.1233 511.5913,-176.0643 512.5199,-177.0206 513.4531,-177.9923 514.391,-178.9795 515.3333,-179.9823 516.2799,-181.0008 517.2307,-182.035 518.1855,-183.085 518.3546,-183.8708 515.3917,-192.0193 514.7573,-192.5129 513.3511,-192.7044 511.9581,-192.8864 510.5784,-193.059 509.212,-193.2223 507.8591,-193.3766 506.5197,-193.5219 505.1937,-193.6584 503.8814,-193.7863 502.5827,-193.9058 501.2977,-194.0169 500.0265,-194.1198 498.769,-194.2148 497.5254,-194.3018 496.2957,-194.3812 495.0799,-194.453 493.8781,-194.5174 492.6903,-194.5745 491.5166,-194.6246 490.357,-194.6677 489.2116,-194.704 488.0804,-194.7337 486.9634,-194.757 485.8606,-194.7739 484.7722,-194.7847 483.6981,-194.7895 482.6383,-194.7884 481.593,-194.7816 480.5621,-194.7693 479.5457,-194.7517 478.5437,-194.7288 477.5563,-194.7009 476.5834,-194.668 474.0096,-199.2041 474.0096,-199.2041 472.5704,-204.217 473.2747,-204.889 473.9856,-205.5748 474.7031,-206.2746 475.4271,-206.9883 476.1573,-207.7161 476.8936,-208.4581 477.636,-209.2144 478.3842,-209.985 479.1382,-210.7701 479.8978,-211.5696 480.6628,-212.3838 481.4333,-213.2127 482.2089,-214.0564 482.9895,-214.9149 483.7751,-215.7884 484.5655,-216.6768 485.3605,-217.5804 486.16,-218.4991 486.9639,-219.4331 487.772,-220.3824 488.5841,-221.3471 489.4002,-222.3272 490.2201,-223.3229 491.0436,-224.3342 491.8706,-225.3612 492.7009,-226.4039 493.5344,-227.4624 494.371,-228.5368 495.2105,-229.6272 496.0527,-230.7335 496.8975,-231.8559 497.7448,-232.9945 497.8361,-233.7931 494.0888,-241.6119 493.409,-242.041 491.9908,-242.0937 490.5867,-242.1383 489.1967,-242.1748 487.821,-242.2034 486.4594,-242.2243 485.1122,-242.2376 483.7793,-242.2436 482.4607,-242.2422 481.1566,-242.2338 479.8668,-242.2184 478.5916,-242.1963 477.3309,-242.1675 476.0848,-242.1322 474.8532,-242.0907 473.6362,-242.0429 472.4339,-241.9892 471.2462,-241.9297 470.0733,-241.8645 468.9151,-241.7937 467.7716,-241.7176 466.6429,-241.6363 465.529,-241.5499 464.4299,-241.4587 463.3456,-241.3627 462.2762,-241.2622 461.2217,-241.1573 460.1821,-241.0481 459.1573,-240.9348 458.1475,-240.8176 457.1526,-240.6966 456.1727,-240.572 455.2077,-240.444 452.2017,-244.706 452.2017,-244.706 450.2781,-249.5536 450.9131,-250.2914 451.5534,-251.0437 452.1989,-251.8103 452.8493,-252.5916 453.5047,-253.3875 454.1648,-254.1981 454.8294,-255.0235 455.4985,-255.8637 456.1719,-256.7189 456.8495,-257.5891 457.5311,-258.4743 458.2165,-259.3748 458.9057,-260.2904 459.5985,-261.2213 460.2947,-262.1675 460.9941,-263.1292 461.6968,-264.1063 462.4024,-265.099 463.1108,-266.1073 463.822,-267.1312 464.5357,-268.1708 465.2517,-269.2263 465.9701,-270.2975 466.6905,-271.3847 467.4128,-272.4877 468.1369,-273.6068 468.8627,-274.742 469.5899,-275.8932 470.3185,-277.0606 471.0482,-278.2441 471.779,-279.4439 472.5106,-280.66 472.5232,-281.4638 468.0275,-288.8776 467.309,-289.238 465.8924,-289.1515 464.4907,-289.0582 463.1038,-288.9583 461.7319,-288.8519 460.3749,-288.7393 459.0328,-288.6205 457.7057,-288.4957 456.3936,-288.3652 455.0966,-288.229 453.8146,-288.0872 452.5477,-287.9402 451.2959,-287.788 450.0592,-287.6308 448.8376,-287.4687 447.6312,-287.3019 446.4399,-287.1306 445.2638,-286.9549 444.1029,-286.775 442.9572,-286.5911 441.8267,-286.4033 440.7114,-286.2117 439.6113,-286.0166 438.5264,-285.8181 437.4568,-285.6163 436.4024,-285.4115 435.3633,-285.2037 434.3393,-284.9931 433.3306,-284.7799 432.3372,-284.5643 431.3589,-284.3464 430.3959,-284.1264 429.4481,-283.9044 426.0388,-287.8511 426.0388,-287.8511 423.6493,-292.4869 424.209,-293.2834 424.7725,-294.0948 425.3397,-294.921 425.9104,-295.7623 426.4846,-296.6186 427.0621,-297.49 427.6426,-298.3765 428.2261,-299.2783 428.8125,-300.1954 429.4015,-301.1278 429.993,-302.0756 430.5869,-303.0389 431.183,-304.0176 431.7812,-305.012 432.3813,-306.0219 432.9832,-307.0475 433.5866,-308.0888 434.1915,-309.1458 434.7977,-310.2187 435.4051,-311.3074 436.0134,-312.412 436.6226,-313.5325 437.2325,-314.669 437.8429,-315.8215 438.4536,-316.9901 439.0646,-318.1748 439.6756,-319.3756 440.2865,-320.5925 440.8971,-321.8257 441.5073,-323.0751 442.1169,-324.3408 442.7258,-325.6227 442.6596,-326.4238 437.4588,-333.3613 436.7085,-333.6496 435.3072,-333.4246 433.9214,-333.1944 432.551,-332.959 431.1961,-332.7187 429.8566,-332.4736 428.5327,-332.2238 427.2242,-331.9696 425.9312,-331.711 424.6538,-331.4483 423.3919,-331.1816 422.1455,-330.9111 420.9146,-330.6369 419.6993,-330.3592 418.4995,-330.0782 417.3152,-329.794 416.1464,-329.5068 414.9932,-329.2166 413.8555,-328.9238 412.7334,-328.6285 411.6267,-328.3308 410.5356,-328.0308 409.4599,-327.7288 408.3997,-327.4249 407.355,-327.1193 406.3258,-326.812 405.312,-326.5034 404.3137,-326.1935 403.3307,-325.8825 402.3632,-325.5705 401.411,-325.2578 400.4742,-324.9444 399.5527,-324.6306 395.773,-328.2242 395.773,-328.2242 392.9406,-332.6034 393.4195,-333.4509 393.9008,-334.3136 394.3842,-335.1915 394.8698,-336.0846 395.3573,-336.9931 395.8465,-337.9169 396.3374,-338.8561 396.8297,-339.8107 397.3233,-340.7808 397.8181,-341.7665 398.3139,-342.7677 398.8105,-343.7845 399.3078,-344.817 399.8057,-345.8652 400.3039,-346.9291 400.8023,-348.0087 401.3008,-349.1042 401.7992,-350.2154 402.2973,-351.3425 402.795,-352.4855 403.2922,-353.6444 403.7886,-354.8193 404.2841,-356.0101 404.7786,-357.2169 405.2719,-358.4397 405.7638,-359.6785 406.2541,-360.9334 406.7428,-362.2044 407.2296,-363.4915 407.7144,-364.7947 408.1971,-366.114 408.6774,-367.4495 408.5329,-368.2402 402.6772,-374.6346 401.9022,-374.8479 400.5298,-374.4866 399.1732,-374.1217 397.8325,-373.7531 396.5076,-373.3811 395.1986,-373.0059 393.9055,-372.6276 392.6283,-372.2463 391.3669,-371.8623 390.1214,-371.4757 388.8916,-371.0866 387.6778,-370.6952 386.4797,-370.3017 385.2974,-369.9062 384.1309,-369.5089 382.9802,-369.11 381.8453,-368.7096 380.726,-368.3078 379.6225,-367.9049 378.5347,-367.501 377.4626,-367.0962 376.4061,-366.6908 375.3652,-366.2848 374.3399,-365.8784 373.3302,-365.4719 372.3361,-365.0652 371.3574,-364.6587 370.3942,-364.2524 369.4465,-363.8466 368.5142,-363.4413 367.5973,-363.0367 366.6957,-362.633 365.8094,-362.2304 361.6956,-365.4362 361.6956,-365.4362 358.4476,-369.5168 358.8412,-370.4071 359.2355,-371.3128 359.6307,-372.2339 360.0263,-373.1703 360.4224,-374.1222 360.8188,-375.0895 361.2152,-376.0723 361.6116,-377.0705 362.0078,-378.0844 362.4035,-379.1138 362.7988,-380.1588 363.1934,-381.2194 363.5871,-382.2957 363.9798,-383.3876 364.3713,-384.4952 364.7615,-385.6185 365.1502,-386.7575 365.5373,-387.9122 365.9226,-389.0827 366.3059,-390.269 366.687,-391.4711 367.0659,-392.6889 367.4423,-393.9226 367.8161,-395.172 368.1872,-396.4373 368.5553,-397.7184 368.9203,-399.0153 369.282,-400.3281 369.6403,-401.6567 369.9951,-403.0011 370.346,-404.3614 370.6931,-405.7375 370.4719,-406.5103 364.0176,-412.2999 363.2254,-412.4362 361.895,-411.9422 360.5807,-411.446 359.2826,-410.9478 358.0006,-410.4478 356.7347,-409.946 355.4849,-409.4428 354.2512,-408.9382 353.0335,-408.4323 351.8318,-407.9255 350.6462,-407.4177 349.4765,-406.9093 348.3228,-406.4002 347.185,-405.8908 346.063,-405.381 344.957,-404.8712 343.8667,-404.3615 342.7923,-403.852 341.7336,-403.3429 340.6906,-402.8343 339.6633,-402.3264 338.6516,-401.8193 337.6555,-401.3133 336.675,-400.8084 335.71,-400.3048 334.7605,-399.8027 333.8264,-399.3022 332.9077,-398.8034 332.0043,-398.3066 331.1162,-397.8119 330.2434,-397.3194 329.3857,-396.8293 328.5431,-396.3417 324.135,-399.1289 324.135,-399.1289 320.5027,-402.8715 320.807,-403.7961 321.1107,-404.7361 321.4136,-405.6914 321.7156,-406.6621 322.0165,-407.6482 322.3161,-408.6497 322.6143,-409.6666 322.911,-410.699 323.2058,-411.7468 323.4988,-412.81 323.7897,-413.8887 324.0784,-414.9829 324.3648,-416.0926 324.6486,-417.2177 324.9296,-418.3583 325.2079,-419.5145 325.4831,-420.6861 325.7551,-421.8733 326.0238,-423.0759 326.2889,-424.294 326.5504,-425.5276 326.8081,-426.7768 327.0618,-428.0414 327.3114,-429.3214 327.5566,-430.617 327.7973,-431.928 328.0335,-433.2545 328.2648,-434.5964 328.4912,-435.9537 328.7124,-437.3264 328.9284,-438.7145 329.1389,-440.118 328.843,-440.8654 321.8523,-445.9945 321.0506,-446.0525 319.775,-445.4305 318.5156,-444.8079 317.2726,-444.1848 316.0458,-443.5615 314.8352,-442.9381 313.6407,-442.3148 312.4624,-441.6917 311.3002,-441.069 310.154,-440.4468 309.0238,-439.8252 307.9096,-439.2046 306.8113,-438.5849 305.7289,-437.9664 304.6624,-437.3491 303.6116,-436.7334 302.5766,-436.1192 301.5572,-435.5069 300.5535,-434.8964 299.5654,-434.288 298.5928,-433.6819 297.6357,-433.0781 296.694,-432.4769 295.7677,-431.8783 294.8568,-431.2825 293.961,-430.6898 293.0805,-430.1001 292.2151,-429.5138 291.3647,-428.9308 290.5294,-428.3514 289.709,-427.7757 288.9035,-427.2039 288.1128,-426.6361 283.4527,-428.9778 283.4527,-428.9778 279.471,-432.3463 279.6833,-433.2963 279.8934,-434.2615 280.1012,-435.242 280.3066,-436.2376 280.5094,-437.2484 280.7094,-438.2745 280.9065,-439.3157 281.1005,-440.3722 281.2913,-441.4438 281.4786,-442.5306 281.6624,-443.6327 281.8425,-444.7499 282.0187,-445.8823 282.1908,-447.0298 282.3587,-448.1925 282.5223,-449.3704 282.6813,-450.5633 282.8357,-451.7714 282.9852,-452.9946 283.1297,-454.2328 283.269,-455.4862 283.403,-456.7545 283.5315,-458.0379 283.6544,-459.3363 283.7715,-460.6496 283.8826,-461.9779 283.9875,-463.3211 284.0862,-464.6792 284.1784,-466.0522 284.2641,-467.44 284.343,-468.8426 284.4149,-470.26 284.0471,-470.9748 276.5874,-475.3939 275.7839,-475.3731 274.5753,-474.629 273.3831,-473.886 272.2071,-473.1441 271.0473,-472.4036 269.9036,-471.6645 268.776,-470.9271 267.6644,-470.1915 266.5688,-469.4579 265.4892,-468.7263 264.4254,-467.997 263.3774,-467.2701 262.3451,-466.5457 261.3285,-465.8241 260.3276,-465.1053 259.3423,-464.3895 258.3724,-463.6769 257.418,-462.9676 256.479,-462.2617 255.5552,-461.5594 254.6468,-460.8608 253.7534,-460.1661 252.8752,-459.4755 252.0121,-458.789 251.1639,-458.1068 250.3305,-457.4291 249.512,-456.756 248.7083,-456.0876 247.9192,-455.4241 247.1447,-454.7656 246.3846,-454.1123 245.6391,-453.4643 244.9078,-452.8217 240.0406,-454.6954 240.0406,-454.6954 235.748,-457.6574 235.8661,-458.6236 235.9806,-459.6048 236.0913,-460.6009 236.1981,-461.6119 236.3008,-462.6377 236.3993,-463.6784 236.4934,-464.7339 236.5829,-465.8043 236.6677,-466.8895 236.7476,-467.9895 236.8225,-469.1042 236.8922,-470.2337 236.9566,-471.3779 237.0154,-472.5368 237.0685,-473.7103 237.1159,-474.8985 237.1572,-476.1014 237.1924,-477.3187 237.2213,-478.5507 237.2437,-479.7971 237.2595,-481.0581 237.2686,-482.3335 237.2707,-483.6233 237.2657,-484.9274 237.2535,-486.2459 237.2338,-487.5787 237.2066,-488.9258 237.1717,-490.287 237.1289,-491.6624 237.0781,-493.0519 237.0192,-494.4555 236.9518,-495.8731 236.5158,-496.5484 228.6588,-500.2151 227.8612,-500.1156 226.7314,-499.2566 225.6178,-498.4003 224.5201,-497.5467 223.4385,-496.6961 222.3727,-495.8485 221.3229,-495.0041 220.2887,-494.1631 219.2703,-493.3256 218.2676,-492.4917 217.2804,-491.6617 216.3086,-490.8356 215.3524,-490.0135 214.4114,-489.1957 213.4858,-488.3823 212.5753,-487.5734 211.68,-486.7691 210.7997,-485.9696 209.9344,-485.1751 209.0839,-484.3856 208.2483,-483.6014 207.4274,-482.8225 206.6211,-482.0491 205.8294,-481.2813 205.0521,-480.5193 204.2892,-479.7631 203.5407,-479.013 202.8063,-478.2691 202.086,-477.5315 201.3798,-476.8002 200.6874,-476.0756 200.009,-475.3576 199.3442,-474.6464 194.3168,-476.034 194.3168,-476.034 189.7545,-478.561 189.7773,-479.5341 189.7951,-480.5218 189.8077,-481.524 189.8149,-482.5405 189.8165,-483.5715 189.8125,-484.6168 189.8027,-485.6765 189.7869,-486.7505 189.7649,-487.8388 189.7366,-488.9413 189.7019,-490.058 189.6606,-491.1889 189.6124,-492.3339 189.5574,-493.493 189.4953,-494.6661 189.4259,-495.8532 189.3491,-497.0543 189.2648,-498.2692 189.1728,-499.4981 189.073,-500.7407 188.9651,-501.9972 188.8491,-503.2673 188.7248,-504.5511 188.592,-505.8485 188.4506,-507.1594 188.3004,-508.4839 188.1413,-509.8218 187.9732,-511.173 187.7958,-512.5376 187.609,-513.9155 187.4127,-515.3065 187.2068,-516.7107 186.7066,-517.34 178.5281,-520.2189 177.7441,-520.0417 176.7039,-519.0762 175.6796,-518.1148 174.6709,-517.1577 173.6778,-516.2052 172.7003,-515.2572 171.7382,-514.314 170.7915,-513.3757 169.8601,-512.4424 168.9439,-511.5142 168.0428,-510.5914 167.1568,-509.674 166.2857,-508.7622 165.4294,-507.8561 164.588,-506.9558 163.7612,-506.0616 162.949,-505.1734 162.1513,-504.2915 161.368,-503.416 160.599,-502.547 159.8443,-501.6846 159.1037,-500.829 158.3771,-499.9803 157.6644,-499.1386 156.9656,-498.3041 156.2805,-497.4768 155.6091,-496.6569 154.9511,-495.8446 154.3066,-495.0399 153.6755,-494.243 153.0575,-493.4539 152.4527,-492.6729 151.8609,-491.9 146.7216,-492.7881 146.7216,-492.7881 141.9336,-494.8557 141.8609,-495.8265 141.7818,-496.8111 141.6961,-497.8097 141.6036,-498.8221 141.5042,-499.8482 141.3978,-500.8882 141.2841,-501.9418 141.1631,-503.0091 141.0346,-504.0899 140.8984,-505.1844 140.7544,-506.2923 140.6024,-507.4137 140.4422,-508.5484 140.2739,-509.6965 140.097,-510.8579 139.9116,-512.0325 139.7175,-513.2203 139.5146,-514.4211 139.3026,-515.635 139.0814,-516.8619 138.8509,-518.1017 138.6109,-519.3544 138.3614,-520.6198 138.1021,-521.8979 137.8328,-523.1887 137.5536,-524.4921 137.2641,-525.8079 136.9643,-527.1362 136.654,-528.4768 136.3331,-529.8297 136.0014,-531.1948 135.6588,-532.5721 135.0994,-533.1493 126.6781,-535.2127 125.9152,-534.9595 124.9747,-533.8967 124.0495,-532.8395 123.1395,-531.7882 122.2446,-530.7429 121.3647,-529.7037 120.4997,-528.6707 119.6495,-527.6441 118.8141,-526.624 117.9932,-525.6105 117.1869,-524.6038 116.3951,-523.604 115.6175,-522.6112 114.8542,-521.6255 114.1051,-520.6472 113.3699,-519.6762 112.6487,-518.7127 111.9413,-517.7568 111.2476,-516.8087 110.5675,-515.8685 109.9009,-514.9363 109.2477,-514.0123 108.6078,-513.0964 107.9811,-512.1889 107.3674,-511.2899 106.7667,-510.3995 106.1789,-509.5177 105.6037,-508.6448 105.0412,-507.7808 104.4912,-506.9259 103.9536,-506.0801 103.4282,-505.2435 102.915,-504.4164 97.7134,-504.7964 97.7134,-504.7964 92.7458,-506.3848 92.5783,-507.3437 92.4031,-508.3159 92.2199,-509.3012 92.0286,-510.2997 91.8292,-511.3112 91.6213,-512.3357 91.4049,-513.3731 91.1799,-514.4233 90.946,-515.4864 90.7032,-516.5622 90.4513,-517.6507 90.1901,-518.7518 89.9195,-519.8654 89.6394,-520.9914 89.3496,-522.1299 89.05,-523.2807 88.7404,-524.4437 88.4207,-525.6189 88.0907,-526.8062 87.7503,-528.0055 87.3994,-529.2167 87.0379,-530.4398 86.6655,-531.6747 86.2821,-532.9212 85.8877,-534.1794 85.482,-535.4491 85.0649,-536.7302 84.6364,-538.0227 84.1962,-539.3265 83.7442,-540.6414 83.2803,-541.9675 82.8044,-543.3045 82.1911,-543.8241 73.6081,-545.0522 72.8737,-544.7254 72.0419,-543.5755 71.2248,-542.4327 70.4222,-541.2973 69.634,-540.1693 68.8602,-539.0488 68.1007,-537.9361 67.3552,-536.8311 66.6238,-535.734 65.9062,-534.6449 65.2025,-533.564 64.5124,-532.4914 63.8359,-531.4272 63.1729,-530.3715 62.5233,-529.3243 61.8868,-528.286 61.2635,-527.2564 60.6532,-526.2359 60.0558,-525.2243 59.4711,-524.222 58.8991,-523.229 58.3397,-522.2453 57.7926,-521.2711 57.2579,-520.3066 56.7353,-519.3518 56.2247,-518.4067 55.7261,-517.4716 55.2393,-516.5465 54.7642,-515.6316 54.3006,-514.7268 53.8485,-513.8324 53.4076,-512.9484 52.978,-512.0749 47.7642,-511.9433 47.7642,-511.9433 42.6648,-513.0371 42.4042,-513.975 42.1345,-514.9253 41.8556,-515.888 41.5674,-516.8628 41.2697,-517.8499 40.9624,-518.8491 40.6454,-519.8603 40.3185,-520.8834 39.9816,-521.9185 39.6345,-522.9653 39.2771,-524.0238 38.9092,-525.094 38.5308,-526.1757 38.1417,-527.2689 37.7417,-528.3735 37.3307,-529.4894 36.9086,-530.6164 36.4752,-531.7546 36.0305,-532.9038 35.5742,-534.064 35.1063,-535.235 34.6266,-536.4168 34.1349,-537.6092 33.6312,-538.8122 33.1154,-540.0256 32.5872,-541.2495 32.0466,-542.4835 31.4934,-543.7278 30.9275,-544.9821 30.3488,-546.2465 29.7572,-547.5206 29.1525,-548.8046 28.4912,-549.2615 19.8292,-549.6424 19.1303,-549.2453 18.4153,-548.0194 17.7141,-546.802 17.0267,-545.5934 16.3529,-544.3936 15.6926,-543.2027 15.0458,-542.0208 14.4122,-540.848 13.7918,-539.6845 13.1845,-538.5304 12.5901,-537.3857 12.0085,-536.2507 11.4396,-535.1252 10.8832,-534.0096 10.3393,-532.9039 9.8077,-531.8081 9.2883,-530.7224 8.781,-529.6469 8.2856,-528.5817 7.802,-527.5269 7.3301,-526.4826 6.8697,-525.4488 6.4208,-524.4257 5.9832,-523.4134 5.5567,-522.412 5.1412,-521.4215 4.7367,-520.442 4.3429,-519.4736 3.9597,-518.5165 3.5871,-517.5707 3.2248,-516.6362 2.8727,-515.7133 2.5307,-514.8019 -2.645,-514.1599 -2.645,-514.1599 -7.827,-514.7486 -8.1784,-515.6564 -8.5399,-516.5757 -8.9118,-517.5064 -9.2942,-518.4483 -9.6872,-519.4015 -10.0909,-520.3657 -10.5055,-521.341 -10.9311,-522.3271 -11.3679,-523.3242 -11.8159,-524.3319 -12.2754,-525.3503 -12.7463,-526.3793 -13.229,-527.4187 -13.7234,-528.4685 -14.2297,-529.5286 -14.7481,-530.5988 -15.2786,-531.679 -15.8215,-532.7693 -16.3767,-533.8694 -16.9445,-534.9792 -17.525,-536.0987 -18.1182,-537.2278 -18.7244,-538.3663 -19.3435,-539.5141 -19.9759,-540.6711 -20.6215,-541.8373 -21.2804,-543.0125 -21.9529,-544.1965 -22.639,-545.3893 -23.3388,-546.5908 -24.0525,-547.8009 -24.7801,-549.0194 -25.483,-549.4093 -34.1407,-548.9394 -34.7972,-548.4756 -35.3887,-547.1855 -35.9672,-545.9053 -36.5328,-544.6351 -37.0858,-543.375 -37.6261,-542.1251 -38.154,-540.8855 -38.6696,-539.6563 -39.1729,-538.4377 -39.6642,-537.2295 -40.1435,-536.0321 -40.6111,-534.8455 -41.0669,-533.6697 -41.5113,-532.5049 -41.9442,-531.3512 -42.3658,-530.2086 -42.7763,-529.0773 -43.1758,-527.9572 -43.5644,-526.8486 -43.9422,-525.7515 -44.3095,-524.6659 -44.6663,-523.592 -45.0128,-522.5298 -45.3491,-521.4795 -45.6754,-520.4411 -45.9918,-519.4146 -46.2984,-518.4002 -46.5953,-517.3979 -46.8828,-516.4078 -47.161,-515.43 -47.4299,-514.4646 -47.6899,-513.5115 -47.9409,-512.571 -53.0287,-511.4248 -53.0287,-511.4248 -58.2435,-511.5027 -58.6822,-512.3718 -59.1321,-513.2512 -59.5934,-514.1409 -60.0663,-515.0409 -60.5508,-515.9509 -61.0471,-516.8709 -61.5553,-517.8008 -62.0755,-518.7406 -62.6079,-519.69 -63.1526,-520.649 -63.7096,-521.6174 -64.2792,-522.5953 -64.8613,-523.5824 -65.4563,-524.5787 -66.0641,-525.584 -66.6848,-526.5982 -67.3187,-527.6213 -67.9658,-528.6531 -68.6262,-529.6934 -69.3001,-530.7423 -69.9875,-531.7995 -70.6885,-532.865 -71.4033,-533.9386 -72.132,-535.0202 -72.8747,-536.1097 -73.6315,-537.2069 -74.4025,-538.3119 -75.1878,-539.4243 -75.9875,-540.5441 -76.8017,-541.6712 -77.6305,-542.8055 -78.4741,-543.9468 -79.2118,-544.266 -87.7818,-542.9497 -88.3897,-542.4238 -88.8519,-541.082 -89.3021,-539.7512 -89.7405,-538.4317 -90.1673,-537.1235 -90.5825,-535.8266 -90.9863,-534.5413 -91.3789,-533.2675 -91.7604,-532.0053 -92.1309,-530.7549 -92.4906,-529.5162 -92.8396,-528.2895 -93.178,-527.0747 -93.506,-525.872 -93.8237,-524.6814 -94.1313,-523.5029 -94.4289,-522.3368 -94.7167,-521.183 -94.9948,-520.0416 -95.2633,-518.9127 -95.5224,-517.7964 -95.7722,-516.6927 -96.0129,-515.6017 -96.2447,-514.5234 -96.4676,-513.458 -96.6818,-512.4055 -96.8875,-511.3659 -97.0848,-510.3394 -97.2739,-509.3259 -97.4549,-508.3255 -97.6279,-507.3383 -97.7931,-506.3644 -97.9508,-505.4038 -102.9018,-503.7644 -102.9018,-503.7644 -108.0991,-503.3308 -108.6208,-504.1527 -109.1548,-504.9838 -109.7011,-505.824 -110.2599,-506.6733 -110.8312,-507.5314 -111.4153,-508.3984 -112.0122,-509.274 -112.6221,-510.1582 -113.2449,-511.0509 -113.881,-511.9519 -114.5303,-512.8611 -115.1929,-513.7784 -115.8691,-514.7037 -116.5588,-515.6368 -117.2622,-516.5777 -117.9794,-517.5263 -118.7105,-518.4823 -119.4556,-519.4457 -120.2148,-520.4163 -120.9882,-521.394 -121.7759,-522.3788 -122.578,-523.3704 -123.3946,-524.3688 -124.2258,-525.3737 -125.0717,-526.3852 -125.9324,-527.403 -126.808,-528.427 -127.6986,-529.4571 -128.6042,-530.4932 -129.5249,-531.5351 -130.461,-532.5826 -131.4123,-533.6358 -132.1778,-533.8811 -140.5775,-531.7311 -141.1309,-531.1482 -141.4593,-529.7675 -141.7769,-528.399 -142.0839,-527.0429 -142.3804,-525.6991 -142.6665,-524.3679 -142.9424,-523.0491 -143.2083,-521.7429 -143.4642,-520.4495 -143.7104,-519.1687 -143.9469,-517.9008 -144.1739,-516.6458 -144.3917,-515.4037 -144.6002,-514.1746 -144.7997,-512.9585 -144.9903,-511.7557 -145.1722,-510.566 -145.3455,-509.3895 -145.5103,-508.2264 -145.6669,-507.0766 -145.8154,-505.9402 -145.9558,-504.8174 -146.0884,-503.708 -146.2134,-502.6122 -146.3308,-501.5301 -146.4408,-500.4616 -146.5436,-499.4069 -146.6393,-498.3659 -146.7282,-497.3388 -146.8102,-496.3255 -146.8857,-495.3262 -146.9546,-494.3407 -147.0173,-493.3693 -151.7838,-491.2525 -151.7838,-491.2525 -156.9136,-490.3116 -157.5134,-491.0784 -158.1262,-491.8531 -158.7523,-492.6358 -159.3916,-493.4261 -160.0443,-494.2242 -160.7106,-495.0297 -161.3904,-495.8426 -162.084,-496.6628 -162.7914,-497.4901 -163.5127,-498.3244 -164.2479,-499.1656 -164.9973,-500.0135 -165.7609,-500.8681 -166.5388,-501.7291 -167.331,-502.5966 -168.1377,-503.4702 -168.959,-504.35 -169.795,-505.2357 -170.6456,-506.1272 -171.5112,-507.0245 -172.3916,-507.9273 -173.287,-508.8355 -174.1976,-509.749 -175.1233,-510.6677 -176.0643,-511.5913 -177.0206,-512.5199 -177.9923,-513.4531 -178.9795,-514.391 -179.9823,-515.3333 -181.0008,-516.2799 -182.035,-517.2307 -183.085,-518.1855 -183.8708,-518.3546 -192.0193,-515.3917 -192.5129,-514.7573 -192.7044,-513.3511 -192.8864,-511.9581 -193.059,-510.5784 -193.2223,-509.212 -193.3766,-507.8591 -193.5219,-506.5197 -193.6584,-505.1937 -193.7863,-503.8814 -193.9058,-502.5827 -194.0169,-501.2977 -194.1198,-500.0265 -194.2148,-498.769 -194.3018,-497.5254 -194.3812,-496.2957 -194.453,-495.0799 -194.5174,-493.8781 -194.5745,-492.6903 -194.6246,-491.5166 -194.6677,-490.357 -194.704,-489.2116 -194.7337,-488.0804 -194.757,-486.9634 -194.7739,-485.8606 -194.7847,-484.7722 -194.7895,-483.6981 -194.7884,-482.6383 -194.7816,-481.593 -194.7693,-480.5621 -194.7517,-479.5457 -194.7288,-478.5437 -194.7009,-477.5563 -194.668,-476.5834 -199.2041,-474.0096 -199.2041,-474.0096 -204.217,-472.5704 -204.889,-473.2747 -205.5748,-473.9856 -206.2746,-474.7031 -206.9883,-475.4271 -207.7161,-476.1573 -208.4581,-476.8936 -209.2144,-477.636 -209.985,-478.3842 -210.7701,-479.1382 -211.5696,-479.8978 -212.3838,-480.6628 -213.2127,-481.4333 -214.0564,-482.2089 -214.9149,-482.9895 -215.7884,-483.7751 -216.6768,-484.5655 -217.5804,-485.3605 -218.4991,-486.16 -219.4331,-486.9639 -220.3824,-487.772 -221.3471,-488.5841 -222.3272,-489.4002 -223.3229,-490.2201 -224.3342,-491.0436 -225.3612,-491.8706 -226.4039,-492.7009 -227.4624,-493.5344 -228.5368,-494.371 -229.6272,-495.2105 -230.7335,-496.0527 -231.8559,-496.8975 -232.9945,-497.7448 -233.7931,-497.8361 -241.6119,-494.0888 -242.041,-493.409 -242.0937,-491.9908 -242.1383,-490.5867 -242.1748,-489.1967 -242.2034,-487.821 -242.2243,-486.4594 -242.2376,-485.1122 -242.2436,-483.7793 -242.2422,-482.4607 -242.2338,-481.1566 -242.2184,-479.8668 -242.1963,-478.5916 -242.1675,-477.3309 -242.1322,-476.0848 -242.0907,-474.8532 -242.0429,-473.6362 -241.9892,-472.4339 -241.9297,-471.2462 -241.8645,-470.0733 -241.7937,-468.9151 -241.7176,-467.7716 -241.6363,-466.6429 -241.5499,-465.529 -241.4587,-464.4299 -241.3627,-463.3456 -241.2622,-462.2762 -241.1573,-461.2217 -241.0481,-460.1821 -240.9348,-459.1573 -240.8176,-458.1475 -240.6966,-457.1526 -240.572,-456.1727 -240.444,-455.2077 -244.706,-452.2017 -244.706,-452.2017 -249.5536,-450.2781 -250.2914,-450.9131 -251.0437,-451.5534 -251.8103,-452.1989 -252.5916,-452.8493 -253.3875,-453.5047 -254.1981,-454.1648 -255.0235,-454.8294 -255.8637,-455.4985 -256.7189,-456.1719 -257.5891,-456.8495 -258.4743,-457.5311 -259.3748,-458.2165 -260.2904,-458.9057 -261.2213,-459.5985 -262.1675,-460.2947 -263.1292,-460.9941 -264.1063,-461.6968 -265.099,-462.4024 -266.1073,-463.1108 -267.1312,-463.822 -268.1708,-464.5357 -269.2263,-465.2517 -270.2975,-465.9701 -271.3847,-466.6905 -272.4877,-467.4128 -273.6068,-468.1369 -274.742,-468.8627 -275.8932,-469.5899 -277.0606,-470.3185 -278.2441,-471.0482 -279.4439,-471.779 -280.66,-472.5106 -281.4638,-472.5232 -288.8776,-468.0275 -289.238,-467.309 -289.1515,-465.8924 -289.0582,-464.4907 -288.9583,-463.1038 -288.8519,-461.7319 -288.7393,-460.3749 -288.6205,-459.0328 -288.4957,-457.7057 -288.3652,-456.3936 -288.229,-455.0966 -288.0872,-453.8146 -287.9402,-452.5477 -287.788,-451.2959 -287.6308,-450.0592 -287.4687,-448.8376 -287.3019,-447.6312 -287.1306,-446.4399 -286.9549,-445.2638 -286.775,-444.1029 -286.5911,-442.9572 -286.4033,-441.8267 -286.2117,-440.7114 -286.0166,-439.6113 -285.8181,-438.5264 -285.6163,-437.4568 -285.4115,-436.4024 -285.2037,-435.3633 -284.9931,-434.3393 -284.7799,-433.3306 -284.5643,-432.3372 -284.3464,-431.3589 -284.1264,-430.3959 -283.9044,-429.4481 -287.8511,-426.0388 -287.8511,-426.0388 -292.4869,-423.6493 -293.2834,-424.209 -294.0948,-424.7725 -294.921,-425.3397 -295.7623,-425.9104 -296.6186,-426.4846 -297.49,-427.0621 -298.3765,-427.6426 -299.2783,-428.2261 -300.1954,-428.8125 -301.1278,-429.4015 -302.0756,-429.993 -303.0389,-430.5869 -304.0176,-431.183 -305.012,-431.7812 -306.0219,-432.3813 -307.0475,-432.9832 -308.0888,-433.5866 -309.1458,-434.1915 -310.2187,-434.7977 -311.3074,-435.4051 -312.412,-436.0134 -313.5325,-436.6226 -314.669,-437.2325 -315.8215,-437.8429 -316.9901,-438.4536 -318.1748,-439.0646 -319.3756,-439.6756 -320.5925,-440.2865 -321.8257,-440.8971 -323.0751,-441.5073 -324.3408,-442.1169 -325.6227,-442.7258 -326.4238,-442.6596 -333.3613,-437.4588 -333.6496,-436.7085 -333.4246,-435.3072 -333.1944,-433.9214 -332.959,-432.551 -332.7187,-431.1961 -332.4736,-429.8566 -332.2238,-428.5327 -331.9696,-427.2242 -331.711,-425.9312 -331.4483,-424.6538 -331.1816,-423.3919 -330.9111,-422.1455 -330.6369,-420.9146 -330.3592,-419.6993 -330.0782,-418.4995 -329.794,-417.3152 -329.5068,-416.1464 -329.2166,-414.9932 -328.9238,-413.8555 -328.6285,-412.7334 -328.3308,-411.6267 -328.0308,-410.5356 -327.7288,-409.4599 -327.4249,-408.3997 -327.1193,-407.355 -326.812,-406.3258 -326.5034,-405.312 -326.1935,-404.3137 -325.8825,-403.3307 -325.5705,-402.3632 -325.2578,-401.411 -324.9444,-400.4742 -324.6306,-399.5527 -328.2242,-395.773 -328.2242,-395.773 -332.6034,-392.9406 -333.4509,-393.4195 -334.3136,-393.9008 -335.1915,-394.3842 -336.0846,-394.8698 -336.9931,-395.3573 -337.9169,-395.8465 -338.8561,-396.3374 -339.8107,-396.8297 -340.7808,-397.3233 -341.7665,-397.8181 -342.7677,-398.3139 -343.7845,-398.8105 -344.817,-399.3078 -345.8652,-399.8057 -346.9291,-400.3039 -348.0087,-400.8023 -349.1042,-401.3008 -350.2154,-401.7992 -351.3425,-402.2973 -352.4855,-402.795 -353.6444,-403.2922 -354.8193,-403.7886 -356.0101,-404.2841 -357.2169,-404.7786 -358.4397,-405.2719 -359.6785,-405.7638 -360.9334,-406.2541 -362.2044,-406.7428 -363.4915,-407.2296 -364.7947,-407.7144 -366.114,-408.1971 -367.4495,-408.6774 -368.2402,-408.5329 -374.6346,-402.6772 -374.8479,-401.9022 -374.4866,-400.5298 -374.1217,-399.1732 -373.7531,-397.8325 -373.3811,-396.5076 -373.0059,-395.1986 -372.6276,-393.9055 -372.2463,-392.6283 -371.8623,-391.3669 -371.4757,-390.1214 -371.0866,-388.8916 -370.6952,-387.6778 -370.3017,-386.4797 -369.9062,-385.2974 -369.5089,-384.1309 -369.11,-382.9802 -368.7096,-381.8453 -368.3078,-380.726 -367.9049,-379.6225 -367.501,-378.5347 -367.0962,-377.4626 -366.6908,-376.4061 -366.2848,-375.3652 -365.8784,-374.3399 -365.4719,-373.3302 -365.0652,-372.3361 -364.6587,-371.3574 -364.2524,-370.3942 -363.8466,-369.4465 -363.4413,-368.5142 -363.0367,-367.5973 -362.633,-366.6957 -362.2304,-365.8094 -365.4362,-361.6956 -365.4362,-361.6956 -369.5168,-358.4476 -370.4071,-358.8412 -371.3128,-359.2355 -372.2339,-359.6307 -373.1703,-360.0263 -374.1222,-360.4224 -375.0895,-360.8188 -376.0723,-361.2152 -377.0705,-361.6116 -378.0844,-362.0078 -379.1138,-362.4035 -380.1588,-362.7988 -381.2194,-363.1934 -382.2957,-363.5871 -383.3876,-363.9798 -384.4952,-364.3713 -385.6185,-364.7615 -386.7575,-365.1502 -387.9122,-365.5373 -389.0827,-365.9226 -390.269,-366.3059 -391.4711,-366.687 -392.6889,-367.0659 -393.9226,-367.4423 -395.172,-367.8161 -396.4373,-368.1872 -397.7184,-368.5553 -399.0153,-368.9203 -400.3281,-369.282 -401.6567,-369.6403 -403.0011,-369.9951 -404.3614,-370.346 -405.7375,-370.6931 -406.5103,-370.4719 -412.2999,-364.0176 -412.4362,-363.2254 -411.9422,-361.895 -411.446,-360.5807 -410.9478,-359.2826 -410.4478,-358.0006 -409.946,-356.7347 -409.4428,-355.4849 -408.9382,-354.2512 -408.4323,-353.0335 -407.9255,-351.8318 -407.4177,-350.6462 -406.9093,-349.4765 -406.4002,-348.3228 -405.8908,-347.185 -405.381,-346.063 -404.8712,-344.957 -404.3615,-343.8667 -403.852,-342.7923 -403.3429,-341.7336 -402.8343,-340.6906 -402.3264,-339.6633 -401.8193,-338.6516 -401.3133,-337.6555 -400.8084,-336.675 -400.3048,-335.71 -399.8027,-334.7605 -399.3022,-333.8264 -398.8034,-332.9077 -398.3066,-332.0043 -397.8119,-331.1162 -397.3194,-330.2434 -396.8293,-329.3857 -396.3417,-328.5431 -399.1289,-324.135 -399.1289,-324.135 -402.8715,-320.5027 -403.7961,-320.807 -404.7361,-321.1107 -405.6914,-321.4136 -406.6621,-321.7156 -407.6482,-322.0165 -408.6497,-322.3161 -409.6666,-322.6143 -410.699,-322.911 -411.7468,-323.2058 -412.81,-323.4988 -413.8887,-323.7897 -414.9829,-324.0784 -416.0926,-324.3648 -417.2177,-324.6486 -418.3583,-324.9296 -419.5145,-325.2079 -420.6861,-325.4831 -421.8733,-325.7551 -423.0759,-326.0238 -424.294,-326.2889 -425.5276,-326.5504 -426.7768,-326.8081 -428.0414,-327.0618 -429.3214,-327.3114 -430.617,-327.5566 -431.928,-327.7973 -433.2545,-328.0335 -434.5964,-328.2648 -435.9537,-328.4912 -437.3264,-328.7124 -438.7145,-328.9284 -440.118,-329.1389 -440.8654,-328.843 -445.9945,-321.8523 -446.0525,-321.0506 -445.4305,-319.775 -444.8079,-318.5156 -444.1848,-317.2726 -443.5615,-316.0458 -442.9381,-314.8352 -442.3148,-313.6407 -441.6917,-312.4624 -441.069,-311.3002 -440.4468,-310.154 -439.8252,-309.0238 -439.2046,-307.9096 -438.5849,-306.8113 -437.9664,-305.7289 -437.3491,-304.6624 -436.7334,-303.6116 -436.1192,-302.5766 -435.5069,-301.5572 -434.8964,-300.5535 -434.288,-299.5654 -433.6819,-298.5928 -433.0781,-297.6357 -432.4769,-296.694 -431.8783,-295.7677 -431.2825,-294.8568 -430.6898,-293.961 -430.1001,-293.0805 -429.5138,-292.2151 -428.9308,-291.3647 -428.3514,-290.5294 -427.7757,-289.709 -427.2039,-288.9035 -426.6361,-288.1128 -428.9778,-283.4527 -428.9778,-283.4527 -432.3463,-279.471 -433.2963,-279.6833 -434.2615,-279.8934 -435.242,-280.1012 -436.2376,-280.3066 -437.2484,-280.5094 -438.2745,-280.7094 -439.3157,-280.9065 -440.3722,-281.1005 -441.4438,-281.2913 -442.5306,-281.4786 -443.6327,-281.6624 -444.7499,-281.8425 -445.8823,-282.0187 -447.0298,-282.1908 -448.1925,-282.3587 -449.3704,-282.5223 -450.5633,-282.6813 -451.7714,-282.8357 -452.9946,-282.9852 -454.2328,-283.1297 -455.4862,-283.269 -456.7545,-283.403 -458.0379,-283.5315 -459.3363,-283.6544 -460.6496,-283.7715 -461.9779,-283.8826 -463.3211,-283.9875 -464.6792,-284.0862 -466.0522,-284.1784 -467.44,-284.2641 -468.8426,-284.343 -470.26,-284.4149 -470.9748,-284.0471 -475.3939,-276.5874 -475.3731,-275.7839 -474.629,-274.5753 -473.886,-273.3831 -473.1441,-272.2071 -472.4036,-271.0473 -471.6645,-269.9036 -470.9271,-268.776 -470.1915,-267.6644 -469.4579,-266.5688 -468.7263,-265.4892 -467.997,-264.4254 -467.2701,-263.3774 -466.5457,-262.3451 -465.8241,-261.3285 -465.1053,-260.3276 -464.3895,-259.3423 -463.6769,-258.3724 -462.9676,-257.418 -462.2617,-256.479 -461.5594,-255.5552 -460.8608,-254.6468 -460.1661,-253.7534 -459.4755,-252.8752 -458.789,-252.0121 -458.1068,-251.1639 -457.4291,-250.3305 -456.756,-249.512 -456.0876,-248.7083 -455.4241,-247.9192 -454.7656,-247.1447 -454.1123,-246.3846 -453.4643,-245.6391 -452.8217,-244.9078 -454.6954,-240.0406 -454.6954,-240.0406 -457.6574,-235.748 -458.6236,-235.8661 -459.6048,-235.9806 -460.6009,-236.0913 -461.6119,-236.1981 -462.6377,-236.3008 -463.6784,-236.3993 -464.7339,-236.4934 -465.8043,-236.5829 -466.8895,-236.6677 -467.9895,-236.7476 -469.1042,-236.8225 -470.2337,-236.8922 -471.3779,-236.9566 -472.5368,-237.0154 -473.7103,-237.0685 -474.8985,-237.1159 -476.1014,-237.1572 -477.3187,-237.1924 -478.5507,-237.2213 -479.7971,-237.2437 -481.0581,-237.2595 -482.3335,-237.2686 -483.6233,-237.2707 -484.9274,-237.2657 -486.2459,-237.2535 -487.5787,-237.2338 -488.9258,-237.2066 -490.287,-237.1717 -491.6624,-237.1289 -493.0519,-237.0781 -494.4555,-237.0192 -495.8731,-236.9518 -496.5484,-236.5158 -500.2151,-228.6588 -500.1156,-227.8612 -499.2566,-226.7314 -498.4003,-225.6178 -497.5467,-224.5201 -496.6961,-223.4385 -495.8485,-222.3727 -495.0041,-221.3229 -494.1631,-220.2887 -493.3256,-219.2703 -492.4917,-218.2676 -491.6617,-217.2804 -490.8356,-216.3086 -490.0135,-215.3524 -489.1957,-214.4114 -488.3823,-213.4858 -487.5734,-212.5753 -486.7691,-211.68 -485.9696,-210.7997 -485.1751,-209.9344 -484.3856,-209.0839 -483.6014,-208.2483 -482.8225,-207.4274 -482.0491,-206.6211 -481.2813,-205.8294 -480.5193,-205.0521 -479.7631,-204.2892 -479.013,-203.5407 -478.2691,-202.8063 -477.5315,-202.086 -476.8002,-201.3798 -476.0756,-200.6874 -475.3576,-200.009 -474.6464,-199.3442 -476.034,-194.3168 -476.034,-194.3168 -478.561,-189.7545 -479.5341,-189.7773 -480.5218,-189.7951 -481.524,-189.8077 -482.5405,-189.8149 -483.5715,-189.8165 -484.6168,-189.8125 -485.6765,-189.8027 -486.7505,-189.7869 -487.8388,-189.7649 -488.9413,-189.7366 -490.058,-189.7019 -491.1889,-189.6606 -492.3339,-189.6124 -493.493,-189.5574 -494.6661,-189.4953 -495.8532,-189.4259 -497.0543,-189.3491 -498.2692,-189.2648 -499.4981,-189.1728 -500.7407,-189.073 -501.9972,-188.9651 -503.2673,-188.8491 -504.5511,-188.7248 -505.8485,-188.592 -507.1594,-188.4506 -508.4839,-188.3004 -509.8218,-188.1413 -511.173,-187.9732 -512.5376,-187.7958 -513.9155,-187.609 -515.3065,-187.4127 -516.7107,-187.2068 -517.34,-186.7066 -520.2189,-178.5281 -520.0417,-177.7441 -519.0762,-176.7039 -518.1148,-175.6796 -517.1577,-174.6709 -516.2052,-173.6778 -515.2572,-172.7003 -514.314,-171.7382 -513.3757,-170.7915 -512.4424,-169.8601 -511.5142,-168.9439 -510.5914,-168.0428 -509.674,-167.1568 -508.7622,-166.2857 -507.8561,-165.4294 -506.9558,-164.588 -506.0616,-163.7612 -505.1734,-162.949 -504.2915,-162.1513 -503.416,-161.368 -502.547,-160.599 -501.6846,-159.8443 -500.829,-159.1037 -499.9803,-158.3771 -499.1386,-157.6644 -498.3041,-156.9656 -497.4768,-156.2805 -496.6569,-155.6091 -495.8446,-154.9511 -495.0399,-154.3066 -494.243,-153.6755 -493.4539,-153.0575 -492.6729,-152.4527 -491.9,-151.8609 -492.7881,-146.7216 -492.7881,-146.7216 -494.8557,-141.9336 -495.8265,-141.8609 -496.8111,-141.7818 -497.8097,-141.6961 -498.8221,-141.6036 -499.8482,-141.5042 -500.8882,-141.3978 -501.9418,-141.2841 -503.0091,-141.1631 -504.0899,-141.0346 -505.1844,-140.8984 -506.2923,-140.7544 -507.4137,-140.6024 -508.5484,-140.4422 -509.6965,-140.2739 -510.8579,-140.097 -512.0325,-139.9116 -513.2203,-139.7175 -514.4211,-139.5146 -515.635,-139.3026 -516.8619,-139.0814 -518.1017,-138.8509 -519.3544,-138.6109 -520.6198,-138.3614 -521.8979,-138.1021 -523.1887,-137.8328 -524.4921,-137.5536 -525.8079,-137.2641 -527.1362,-136.9643 -528.4768,-136.654 -529.8297,-136.3331 -531.1948,-136.0014 -532.5721,-135.6588 -533.1493,-135.0994 -535.2127,-126.6781 -534.9595,-125.9152 -533.8967,-124.9747 -532.8395,-124.0495 -531.7882,-123.1395 -530.7429,-122.2446 -529.7037,-121.3647 -528.6707,-120.4997 -527.6441,-119.6495 -526.624,-118.8141 -525.6105,-117.9932 -524.6038,-117.1869 -523.604,-116.3951 -522.6112,-115.6175 -521.6255,-114.8542 -520.6472,-114.1051 -519.6762,-113.3699 -518.7127,-112.6487 -517.7568,-111.9413 -516.8087,-111.2476 -515.8685,-110.5675 -514.9363,-109.9009 -514.0123,-109.2477 -513.0964,-108.6078 -512.1889,-107.9811 -511.2899,-107.3674 -510.3995,-106.7667 -509.5177,-106.1789 -508.6448,-105.6037 -507.7808,-105.0412 -506.9259,-104.4912 -506.0801,-103.9536 -505.2435,-103.4282 -504.4164,-102.915 -504.7964,-97.7134 -504.7964,-97.7134 -506.3848,-92.7458 -507.3437,-92.5783 -508.3159,-92.4031 -509.3012,-92.2199 -510.2997,-92.0286 -511.3112,-91.8292 -512.3357,-91.6213 -513.3731,-91.4049 -514.4233,-91.1799 -515.4864,-90.946 -516.5622,-90.7032 -517.6507,-90.4513 -518.7518,-90.1901 -519.8654,-89.9195 -520.9914,-89.6394 -522.1299,-89.3496 -523.2807,-89.05 -524.4437,-88.7404 -525.6189,-88.4207 -526.8062,-88.0907 -528.0055,-87.7503 -529.2167,-87.3994 -530.4398,-87.0379 -531.6747,-86.6655 -532.9212,-86.2821 -534.1794,-85.8877 -535.4491,-85.482 -536.7302,-85.0649 -538.0227,-84.6364 -539.3265,-84.1962 -540.6414,-83.7442 -541.9675,-83.2803 -543.3045,-82.8044 -543.8241,-82.1911 -545.0522,-73.6081 -544.7254,-72.8737 -543.5755,-72.0419 -542.4327,-71.2248 -541.2973,-70.4222 -540.1693,-69.634 -539.0488,-68.8602 -537.9361,-68.1007 -536.8311,-67.3552 -535.734,-66.6238 -534.6449,-65.9062 -533.564,-65.2025 -532.4914,-64.5124 -531.4272,-63.8359 -530.3715,-63.1729 -529.3243,-62.5233 -528.286,-61.8868 -527.2564,-61.2635 -526.2359,-60.6532 -525.2243,-60.0558 -524.222,-59.4711 -523.229,-58.8991 -522.2453,-58.3397 -521.2711,-57.7926 -520.3066,-57.2579 -519.3518,-56.7353 -518.4067,-56.2247 -517.4716,-55.7261 -516.5465,-55.2393 -515.6316,-54.7642 -514.7268,-54.3006 -513.8324,-53.8485 -512.9484,-53.4076 -512.0749,-52.978 -511.9433,-47.7642 -511.9433,-47.7642 -513.0371,-42.6648 -513.975,-42.4042 -514.9253,-42.1345 -515.888,-41.8556 -516.8628,-41.5674 -517.8499,-41.2697 -518.8491,-40.9624 -519.8603,-40.6454 -520.8834,-40.3185 -521.9185,-39.9816 -522.9653,-39.6345 -524.0238,-39.2771 -525.094,-38.9092 -526.1757,-38.5308 -527.2689,-38.1417 -528.3735,-37.7417 -529.4894,-37.3307 -530.6164,-36.9086 -531.7546,-36.4752 -532.9038,-36.0305 -534.064,-35.5742 -535.235,-35.1063 -536.4168,-34.6266 -537.6092,-34.1349 -538.8122,-33.6312 -540.0256,-33.1154 -541.2495,-32.5872 -542.4835,-32.0466 -543.7278,-31.4934 -544.9821,-30.9275 -546.2465,-30.3488 -547.5206,-29.7572 -548.8046,-29.1525 -549.2615,-28.4912 -549.6424,-19.8292 -549.2453,-19.1303 -548.0194,-18.4153 -546.802,-17.7141 -545.5934,-17.0267 -544.3936,-16.3529 -543.2027,-15.6926 -542.0208,-15.0458 -540.848,-14.4122 -539.6845,-13.7918 -538.5304,-13.1845 -537.3857,-12.5901 -536.2507,-12.0085 -535.1252,-11.4396 -534.0096,-10.8832 -532.9039,-10.3393 -531.8081,-9.8077 -530.7224,-9.2883 -529.6469,-8.781 -528.5817,-8.2856 -527.5269,-7.802 -526.4826,-7.3301 -525.4488,-6.8697 -524.4257,-6.4208 -523.4134,-5.9832 -522.412,-5.5567 -521.4215,-5.1412 -520.442,-4.7367 -519.4736,-4.3429 -518.5165,-3.9597 -517.5707,-3.5871 -516.6362,-3.2248 -515.7133,-2.8727 -514.8019,-2.5307 -514.1599,2.645 -514.1599,2.645 -514.7486,7.827 -515.6564,8.1784 -516.5757,8.5399 -517.5064,8.9118 -518.4483,9.2942 -519.4015,9.6872 -520.3657,10.0909 -521.341,10.5055 -522.3271,10.9311 -523.3242,11.3679 -524.3319,11.8159 -525.3503,12.2754 -526.3793,12.7463 -527.4187,13.229 -528.4685,13.7234 -529.5286,14.2297 -530.5988,14.7481 -531.679,15.2786 -532.7693,15.8215 -533.8694,16.3767 -534.9792,16.9445 -536.0987,17.525 -537.2278,18.1182 -538.3663,18.7244 -539.5141,19.3435 -540.6711,19.9759 -541.8373,20.6215 -543.0125,21.2804 -544.1965,21.9529 -545.3893,22.639 -546.5908,23.3388 -547.8009,24.0525 -549.0194,24.7801 -549.4093,25.483 -548.9394,34.1407 -548.4756,34.7972 -547.1855,35.3887 -545.9053,35.9672 -544.6351,36.5328 -543.375,37.0858 -542.1251,37.6261 -540.8855,38.154 -539.6563,38.6696 -538.4377,39.1729 -537.2295,39.6642 -536.0321,40.1435 -534.8455,40.6111 -533.6697,41.0669 -532.5049,41.5113 -531.3512,41.9442 -530.2086,42.3658 -529.0773,42.7763 -527.9572,43.1758 -526.8486,43.5644 -525.7515,43.9422 -524.6659,44.3095 -523.592,44.6663 -522.5298,45.0128 -521.4795,45.3491 -520.4411,45.6754 -519.4146,45.9918 -518.4002,46.2984 -517.3979,46.5953 -516.4078,46.8828 -515.43,47.161 -514.4646,47.4299 -513.5115,47.6899 -512.571,47.9409 -511.4248,53.0287 -511.4248,53.0287 -511.5027,58.2435 -512.3718,58.6822 -513.2512,59.1321 -514.1409,59.5934 -515.0409,60.0663 -515.9509,60.5508 -516.8709,61.0471 -517.8008,61.5553 -518.7406,62.0755 -519.69,62.6079 -520.649,63.1526 -521.6174,63.7096 -522.5953,64.2792 -523.5824,64.8613 -524.5787,65.4563 -525.584,66.0641 -526.5982,66.6848 -527.6213,67.3187 -528.6531,67.9658 -529.6934,68.6262 -530.7423,69.3001 -531.7995,69.9875 -532.865,70.6885 -533.9386,71.4033 -535.0202,72.132 -536.1097,72.8747 -537.2069,73.6315 -538.3119,74.4025 -539.4243,75.1878 -540.5441,75.9875 -541.6712,76.8017 -542.8055,77.6305 -543.9468,78.4741 -544.266,79.2118 -542.9497,87.7818 -542.4238,88.3897 -541.082,88.8519 -539.7512,89.3021 -538.4317,89.7405 -537.1235,90.1673 -535.8266,90.5825 -534.5413,90.9863 -533.2675,91.3789 -532.0053,91.7604 -530.7549,92.1309 -529.5162,92.4906 -528.2895,92.8396 -527.0747,93.178 -525.872,93.506 -524.6814,93.8237 -523.5029,94.1313 -522.3368,94.4289 -521.183,94.7167 -520.0416,94.9948 -518.9127,95.2633 -517.7964,95.5224 -516.6927,95.7722 -515.6017,96.0129 -514.5234,96.2447 -513.458,96.4676 -512.4055,96.6818 -511.3659,96.8875 -510.3394,97.0848 -509.3259,97.2739 -508.3255,97.4549 -507.3383,97.6279 -506.3644,97.7931 -505.4038,97.9508 -503.7644,102.9018 -503.7644,102.9018 -503.3308,108.0991 -504.1527,108.6208 -504.9838,109.1548 -505.824,109.7011 -506.6733,110.2599 -507.5314,110.8312 -508.3984,111.4153 -509.274,112.0122 -510.1582,112.6221 -511.0509,113.2449 -511.9519,113.881 -512.8611,114.5303 -513.7784,115.1929 -514.7037,115.8691 -515.6368,116.5588 -516.5777,117.2622 -517.5263,117.9794 -518.4823,118.7105 -519.4457,119.4556 -520.4163,120.2148 -521.394,120.9882 -522.3788,121.7759 -523.3704,122.578 -524.3688,123.3946 -525.3737,124.2258 -526.3852,125.0717 -527.403,125.9324 -528.427,126.808 -529.4571,127.6986 -530.4932,128.6042 -531.5351,129.5249 -532.5826,130.461 -533.6358,131.4123 -533.8811,132.1778 -531.7311,140.5775 -531.1482,141.1309 -529.7675,141.4593 -528.399,141.7769 -527.0429,142.0839 -525.6991,142.3804 -524.3679,142.6665 -523.0491,142.9424 -521.7429,143.2083 -520.4495,143.4642 -519.1687,143.7104 -517.9008,143.9469 -516.6458,144.1739 -515.4037,144.3917 -514.1746,144.6002 -512.9585,144.7997 -511.7557,144.9903 -510.566,145.1722 -509.3895,145.3455 -508.2264,145.5103 -507.0766,145.6669 -505.9402,145.8154 -504.8174,145.9558 -503.708,146.0884 -502.6122,146.2134 -501.5301,146.3308 -500.4616,146.4408 -499.4069,146.5436 -498.3659,146.6393 -497.3388,146.7282 -496.3255,146.8102 -495.3262,146.8857 -494.3407,146.9546 -493.3693,147.0173 -491.2525,151.7838 -491.2525,151.7838 -490.3116,156.9136 -491.0784,157.5134 -491.8531,158.1262 -492.6358,158.7523 -493.4261,159.3916 -494.2242,160.0443 -495.0297,160.7106 -495.8426,161.3904 -496.6628,162.084 -497.4901,162.7914 -498.3244,163.5127 -499.1656,164.2479 -500.0135,164.9973 -500.8681,165.7609 -501.7291,166.5388 -502.5966,167.331 -503.4702,168.1377 -504.35,168.959 -505.2357,169.795 -506.1272,170.6456 -507.0245,171.5112 -507.9273,172.3916 -508.8355,173.287 -509.749,174.1976 -510.6677,175.1233 -511.5913,176.0643 -512.5199,177.0206 -513.4531,177.9923 -514.391,178.9795 -515.3333,179.9823 -516.2799,181.0008 -517.2307,182.035 -518.1855,183.085 -518.3546,183.8708 -515.3917,192.0193 -514.7573,192.5129 -513.3511,192.7044 -511.9581,192.8864 -510.5784,193.059 -509.212,193.2223 -507.8591,193.3766 -506.5197,193.5219 -505.1937,193.6584 -503.8814,193.7863 -502.5827,193.9058 -501.2977,194.0169 -500.0265,194.1198 -498.769,194.2148 -497.5254,194.3018 -496.2957,194.3812 -495.0799,194.453 -493.8781,194.5174 -492.6903,194.5745 -491.5166,194.6246 -490.357,194.6677 -489.2116,194.704 -488.0804,194.7337 -486.9634,194.757 -485.8606,194.7739 -484.7722,194.7847 -483.6981,194.7895 -482.6383,194.7884 -481.593,194.7816 -480.5621,194.7693 -479.5457,194.7517 -478.5437,194.7288 -477.5563,194.7009 -476.5834,194.668 -474.0096,199.2041 -474.0096,199.2041 -472.5704,204.217 -473.2747,204.889 -473.9856,205.5748 -474.7031,206.2746 -475.4271,206.9883 -476.1573,207.7161 -476.8936,208.4581 -477.636,209.2144 -478.3842,209.985 -479.1382,210.7701 -479.8978,211.5696 -480.6628,212.3838 -481.4333,213.2127 -482.2089,214.0564 -482.9895,214.9149 -483.7751,215.7884 -484.5655,216.6768 -485.3605,217.5804 -486.16,218.4991 -486.9639,219.4331 -487.772,220.3824 -488.5841,221.3471 -489.4002,222.3272 -490.2201,223.3229 -491.0436,224.3342 -491.8706,225.3612 -492.7009,226.4039 -493.5344,227.4624 -494.371,228.5368 -495.2105,229.6272 -496.0527,230.7335 -496.8975,231.8559 -497.7448,232.9945 -497.8361,233.7931 -494.0888,241.6119 -493.409,242.041 -491.9908,242.0937 -490.5867,242.1383 -489.1967,242.1748 -487.821,242.2034 -486.4594,242.2243 -485.1122,242.2376 -483.7793,242.2436 -482.4607,242.2422 -481.1566,242.2338 -479.8668,242.2184 -478.5916,242.1963 -477.3309,242.1675 -476.0848,242.1322 -474.8532,242.0907 -473.6362,242.0429 -472.4339,241.9892 -471.2462,241.9297 -470.0733,241.8645 -468.9151,241.7937 -467.7716,241.7176 -466.6429,241.6363 -465.529,241.5499 -464.4299,241.4587 -463.3456,241.3627 -462.2762,241.2622 -461.2217,241.1573 -460.1821,241.0481 -459.1573,240.9348 -458.1475,240.8176 -457.1526,240.6966 -456.1727,240.572 -455.2077,240.444 -452.2017,244.706 -452.2017,244.706 -450.2781,249.5536 -450.9131,250.2914 -451.5534,251.0437 -452.1989,251.8103 -452.8493,252.5916 -453.5047,253.3875 -454.1648,254.1981 -454.8294,255.0235 -455.4985,255.8637 -456.1719,256.7189 -456.8495,257.5891 -457.5311,258.4743 -458.2165,259.3748 -458.9057,260.2904 -459.5985,261.2213 -460.2947,262.1675 -460.9941,263.1292 -461.6968,264.1063 -462.4024,265.099 -463.1108,266.1073 -463.822,267.1312 -464.5357,268.1708 -465.2517,269.2263 -465.9701,270.2975 -466.6905,271.3847 -467.4128,272.4877 -468.1369,273.6068 -468.8627,274.742 -469.5899,275.8932 -470.3185,277.0606 -471.0482,278.2441 -471.779,279.4439 -472.5106,280.66 -472.5232,281.4638 -468.0275,288.8776 -467.309,289.238 -465.8924,289.1515 -464.4907,289.0582 -463.1038,288.9583 -461.7319,288.8519 -460.3749,288.7393 -459.0328,288.6205 -457.7057,288.4957 -456.3936,288.3652 -455.0966,288.229 -453.8146,288.0872 -452.5477,287.9402 -451.2959,287.788 -450.0592,287.6308 -448.8376,287.4687 -447.6312,287.3019 -446.4399,287.1306 -445.2638,286.9549 -444.1029,286.775 -442.9572,286.5911 -441.8267,286.4033 -440.7114,286.2117 -439.6113,286.0166 -438.5264,285.8181 -437.4568,285.6163 -436.4024,285.4115 -435.3633,285.2037 -434.3393,284.9931 -433.3306,284.7799 -432.3372,284.5643 -431.3589,284.3464 -430.3959,284.1264 -429.4481,283.9044 -426.0388,287.8511 -426.0388,287.8511 -423.6493,292.4869 -424.209,293.2834 -424.7725,294.0948 -425.3397,294.921 -425.9104,295.7623 -426.4846,296.6186 -427.0621,297.49 -427.6426,298.3765 -428.2261,299.2783 -428.8125,300.1954 -429.4015,301.1278 -429.993,302.0756 -430.5869,303.0389 -431.183,304.0176 -431.7812,305.012 -432.3813,306.0219 -432.9832,307.0475 -433.5866,308.0888 -434.1915,309.1458 -434.7977,310.2187 -435.4051,311.3074 -436.0134,312.412 -436.6226,313.5325 -437.2325,314.669 -437.8429,315.8215 -438.4536,316.9901 -439.0646,318.1748 -439.6756,319.3756 -440.2865,320.5925 -440.8971,321.8257 -441.5073,323.0751 -442.1169,324.3408 -442.7258,325.6227 -442.6596,326.4238 -437.4588,333.3613 -436.7085,333.6496 -435.3072,333.4246 -433.9214,333.1944 -432.551,332.959 -431.1961,332.7187 -429.8566,332.4736 -428.5327,332.2238 -427.2242,331.9696 -425.9312,331.711 -424.6538,331.4483 -423.3919,331.1816 -422.1455,330.9111 -420.9146,330.6369 -419.6993,330.3592 -418.4995,330.0782 -417.3152,329.794 -416.1464,329.5068 -414.9932,329.2166 -413.8555,328.9238 -412.7334,328.6285 -411.6267,328.3308 -410.5356,328.0308 -409.4599,327.7288 -408.3997,327.4249 -407.355,327.1193 -406.3258,326.812 -405.312,326.5034 -404.3137,326.1935 -403.3307,325.8825 -402.3632,325.5705 -401.411,325.2578 -400.4742,324.9444 -399.5527,324.6306 -395.773,328.2242 -395.773,328.2242 -392.9406,332.6034 -393.4195,333.4509 -393.9008,334.3136 -394.3842,335.1915 -394.8698,336.0846 -395.3573,336.9931 -395.8465,337.9169 -396.3374,338.8561 -396.8297,339.8107 -397.3233,340.7808 -397.8181,341.7665 -398.3139,342.7677 -398.8105,343.7845 -399.3078,344.817 -399.8057,345.8652 -400.3039,346.9291 -400.8023,348.0087 -401.3008,349.1042 -401.7992,350.2154 -402.2973,351.3425 -402.795,352.4855 -403.2922,353.6444 -403.7886,354.8193 -404.2841,356.0101 -404.7786,357.2169 -405.2719,358.4397 -405.7638,359.6785 -406.2541,360.9334 -406.7428,362.2044 -407.2296,363.4915 -407.7144,364.7947 -408.1971,366.114 -408.6774,367.4495 -408.5329,368.2402 -402.6772,374.6346 -401.9022,374.8479 -400.5298,374.4866 -399.1732,374.1217 -397.8325,373.7531 -396.5076,373.3811 -395.1986,373.0059 -393.9055,372.6276 -392.6283,372.2463 -391.3669,371.8623 -390.1214,371.4757 -388.8916,371.0866 -387.6778,370.6952 -386.4797,370.3017 -385.2974,369.9062 -384.1309,369.5089 -382.9802,369.11 -381.8453,368.7096 -380.726,368.3078 -379.6225,367.9049 -378.5347,367.501 -377.4626,367.0962 -376.4061,366.6908 -375.3652,366.2848 -374.3399,365.8784 -373.3302,365.4719 -372.3361,365.0652 -371.3574,364.6587 -370.3942,364.2524 -369.4465,363.8466 -368.5142,363.4413 -367.5973,363.0367 -366.6957,362.633 -365.8094,362.2304 -361.6956,365.4362 -361.6956,365.4362 -358.4476,369.5168 -358.8412,370.4071 -359.2355,371.3128 -359.6307,372.2339 -360.0263,373.1703 -360.4224,374.1222 -360.8188,375.0895 -361.2152,376.0723 -361.6116,377.0705 -362.0078,378.0844 -362.4035,379.1138 -362.7988,380.1588 -363.1934,381.2194 -363.5871,382.2957 -363.9798,383.3876 -364.3713,384.4952 -364.7615,385.6185 -365.1502,386.7575 -365.5373,387.9122 -365.9226,389.0827 -366.3059,390.269 -366.687,391.4711 -367.0659,392.6889 -367.4423,393.9226 -367.8161,395.172 -368.1872,396.4373 -368.5553,397.7184 -368.9203,399.0153 -369.282,400.3281 -369.6403,401.6567 -369.9951,403.0011 -370.346,404.3614 -370.6931,405.7375 -370.4719,406.5103 -364.0176,412.2999 -363.2254,412.4362 -361.895,411.9422 -360.5807,411.446 -359.2826,410.9478 -358.0006,410.4478 -356.7347,409.946 -355.4849,409.4428 -354.2512,408.9382 -353.0335,408.4323 -351.8318,407.9255 -350.6462,407.4177 -349.4765,406.9093 -348.3228,406.4002 -347.185,405.8908 -346.063,405.381 -344.957,404.8712 -343.8667,404.3615 -342.7923,403.852 -341.7336,403.3429 -340.6906,402.8343 -339.6633,402.3264 -338.6516,401.8193 -337.6555,401.3133 -336.675,400.8084 -335.71,400.3048 -334.7605,399.8027 -333.8264,399.3022 -332.9077,398.8034 -332.0043,398.3066 -331.1162,397.8119 -330.2434,397.3194 -329.3857,396.8293 -328.5431,396.3417 -324.135,399.1289 -324.135,399.1289 -320.5027,402.8715 -320.807,403.7961 -321.1107,404.7361 -321.4136,405.6914 -321.7156,406.6621 -322.0165,407.6482 -322.3161,408.6497 -322.6143,409.6666 -322.911,410.699 -323.2058,411.7468 -323.4988,412.81 -323.7897,413.8887 -324.0784,414.9829 -324.3648,416.0926 -324.6486,417.2177 -324.9296,418.3583 -325.2079,419.5145 -325.4831,420.6861 -325.7551,421.8733 -326.0238,423.0759 -326.2889,424.294 -326.5504,425.5276 -326.8081,426.7768 -327.0618,428.0414 -327.3114,429.3214 -327.5566,430.617 -327.7973,431.928 -328.0335,433.2545 -328.2648,434.5964 -328.4912,435.9537 -328.7124,437.3264 -328.9284,438.7145 -329.1389,440.118 -328.843,440.8654 -321.8523,445.9945 -321.0506,446.0525 -319.775,445.4305 -318.5156,444.8079 -317.2726,444.1848 -316.0458,443.5615 -314.8352,442.9381 -313.6407,442.3148 -312.4624,441.6917 -311.3002,441.069 -310.154,440.4468 -309.0238,439.8252 -307.9096,439.2046 -306.8113,438.5849 -305.7289,437.9664 -304.6624,437.3491 -303.6116,436.7334 -302.5766,436.1192 -301.5572,435.5069 -300.5535,434.8964 -299.5654,434.288 -298.5928,433.6819 -297.6357,433.0781 -296.694,432.4769 -295.7677,431.8783 -294.8568,431.2825 -293.961,430.6898 -293.0805,430.1001 -292.2151,429.5138 -291.3647,428.9308 -290.5294,428.3514 -289.709,427.7757 -288.9035,427.2039 -288.1128,426.6361 -283.4527,428.9778 -283.4527,428.9778 -279.471,432.3463 -279.6833,433.2963 -279.8934,434.2615 -280.1012,435.242 -280.3066,436.2376 -280.5094,437.2484 -280.7094,438.2745 -280.9065,439.3157 -281.1005,440.3722 -281.2913,441.4438 -281.4786,442.5306 -281.6624,443.6327 -281.8425,444.7499 -282.0187,445.8823 -282.1908,447.0298 -282.3587,448.1925 -282.5223,449.3704 -282.6813,450.5633 -282.8357,451.7714 -282.9852,452.9946 -283.1297,454.2328 -283.269,455.4862 -283.403,456.7545 -283.5315,458.0379 -283.6544,459.3363 -283.7715,460.6496 -283.8826,461.9779 -283.9875,463.3211 -284.0862,464.6792 -284.1784,466.0522 -284.2641,467.44 -284.343,468.8426 -284.4149,470.26 -284.0471,470.9748 -276.5874,475.3939 -275.7839,475.3731 -274.5753,474.629 -273.3831,473.886 -272.2071,473.1441 -271.0473,472.4036 -269.9036,471.6645 -268.776,470.9271 -267.6644,470.1915 -266.5688,469.4579 -265.4892,468.7263 -264.4254,467.997 -263.3774,467.2701 -262.3451,466.5457 -261.3285,465.8241 -260.3276,465.1053 -259.3423,464.3895 -258.3724,463.6769 -257.418,462.9676 -256.479,462.2617 -255.5552,461.5594 -254.6468,460.8608 -253.7534,460.1661 -252.8752,459.4755 -252.0121,458.789 -251.1639,458.1068 -250.3305,457.4291 -249.512,456.756 -248.7083,456.0876 -247.9192,455.4241 -247.1447,454.7656 -246.3846,454.1123 -245.6391,453.4643 -244.9078,452.8217 -240.0406,454.6954 -240.0406,454.6954 -235.748,457.6574 -235.8661,458.6236 -235.9806,459.6048 -236.0913,460.6009 -236.1981,461.6119 -236.3008,462.6377 -236.3993,463.6784 -236.4934,464.7339 -236.5829,465.8043 -236.6677,466.8895 -236.7476,467.9895 -236.8225,469.1042 -236.8922,470.2337 -236.9566,471.3779 -237.0154,472.5368 -237.0685,473.7103 -237.1159,474.8985 -237.1572,476.1014 -237.1924,477.3187 -237.2213,478.5507 -237.2437,479.7971 -237.2595,481.0581 -237.2686,482.3335 -237.2707,483.6233 -237.2657,484.9274 -237.2535,486.2459 -237.2338,487.5787 -237.2066,488.9258 -237.1717,490.287 -237.1289,491.6624 -237.0781,493.0519 -237.0192,494.4555 -236.9518,495.8731 -236.5158,496.5484 -228.6588,500.2151 -227.8612,500.1156 -226.7314,499.2566 -225.6178,498.4003 -224.5201,497.5467 -223.4385,496.6961 -222.3727,495.8485 -221.3229,495.0041 -220.2887,494.1631 -219.2703,493.3256 -218.2676,492.4917 -217.2804,491.6617 -216.3086,490.8356 -215.3524,490.0135 -214.4114,489.1957 -213.4858,488.3823 -212.5753,487.5734 -211.68,486.7691 -210.7997,485.9696 -209.9344,485.1751 -209.0839,484.3856 -208.2483,483.6014 -207.4274,482.8225 -206.6211,482.0491 -205.8294,481.2813 -205.0521,480.5193 -204.2892,479.7631 -203.5407,479.013 -202.8063,478.2691 -202.086,477.5315 -201.3798,476.8002 -200.6874,476.0756 -200.009,475.3576 -199.3442,474.6464 -194.3168,476.034 -194.3168,476.034 -189.7545,478.561 -189.7773,479.5341 -189.7951,480.5218 -189.8077,481.524 -189.8149,482.5405 -189.8165,483.5715 -189.8125,484.6168 -189.8027,485.6765 -189.7869,486.7505 -189.7649,487.8388 -189.7366,488.9413 -189.7019,490.058 -189.6606,491.1889 -189.6124,492.3339 -189.5574,493.493 -189.4953,494.6661 -189.4259,495.8532 -189.3491,497.0543 -189.2648,498.2692 -189.1728,499.4981 -189.073,500.7407 -188.9651,501.9972 -188.8491,503.2673 -188.7248,504.5511 -188.592,505.8485 -188.4506,507.1594 -188.3004,508.4839 -188.1413,509.8218 -187.9732,511.173 -187.7958,512.5376 -187.609,513.9155 -187.4127,515.3065 -187.2068,516.7107 -186.7066,517.34 -178.5281,520.2189 -177.7441,520.0417 -176.7039,519.0762 -175.6796,518.1148 -174.6709,517.1577 -173.6778,516.2052 -172.7003,515.2572 -171.7382,514.314 -170.7915,513.3757 -169.8601,512.4424 -168.9439,511.5142 -168.0428,510.5914 -167.1568,509.674 -166.2857,508.7622 -165.4294,507.8561 -164.588,506.9558 -163.7612,506.0616 -162.949,505.1734 -162.1513,504.2915 -161.368,503.416 -160.599,502.547 -159.8443,501.6846 -159.1037,500.829 -158.3771,499.9803 -157.6644,499.1386 -156.9656,498.3041 -156.2805,497.4768 -155.6091,496.6569 -154.9511,495.8446 -154.3066,495.0399 -153.6755,494.243 -153.0575,493.4539 -152.4527,492.6729 -151.8609,491.9 -146.7216,492.7881 -146.7216,492.7881 -141.9336,494.8557 -141.8609,495.8265 -141.7818,496.8111 -141.6961,497.8097 -141.6036,498.8221 -141.5042,499.8482 -141.3978,500.8882 -141.2841,501.9418 -141.1631,503.0091 -141.0346,504.0899 -140.8984,505.1844 -140.7544,506.2923 -140.6024,507.4137 -140.4422,508.5484 -140.2739,509.6965 -140.097,510.8579 -139.9116,512.0325 -139.7175,513.2203 -139.5146,514.4211 -139.3026,515.635 -139.0814,516.8619 -138.8509,518.1017 -138.6109,519.3544 -138.3614,520.6198 -138.1021,521.8979 -137.8328,523.1887 -137.5536,524.4921 -137.2641,525.8079 -136.9643,527.1362 -136.654,528.4768 -136.3331,529.8297 -136.0014,531.1948 -135.6588,532.5721 -135.0994,533.1493 -126.6781,535.2127 -125.9152,534.9595 -124.9747,533.8967 -124.0495,532.8395 -123.1395,531.7882 -122.2446,530.7429 -121.3647,529.7037 -120.4997,528.6707 -119.6495,527.6441 -118.8141,526.624 -117.9932,525.6105 -117.1869,524.6038 -116.3951,523.604 -115.6175,522.6112 -114.8542,521.6255 -114.1051,520.6472 -113.3699,519.6762 -112.6487,518.7127 -111.9413,517.7568 -111.2476,516.8087 -110.5675,515.8685 -109.9009,514.9363 -109.2477,514.0123 -108.6078,513.0964 -107.9811,512.1889 -107.3674,511.2899 -106.7667,510.3995 -106.1789,509.5177 -105.6037,508.6448 -105.0412,507.7808 -104.4912,506.9259 -103.9536,506.0801 -103.4282,505.2435 -102.915,504.4164 -97.7134,504.7964 -97.7134,504.7964 -92.7458,506.3848 -92.5783,507.3437 -92.4031,508.3159 -92.2199,509.3012 -92.0286,510.2997 -91.8292,511.3112 -91.6213,512.3357 -91.4049,513.3731 -91.1799,514.4233 -90.946,515.4864 -90.7032,516.5622 -90.4513,517.6507 -90.1901,518.7518 -89.9195,519.8654 -89.6394,520.9914 -89.3496,522.1299 -89.05,523.2807 -88.7404,524.4437 -88.4207,525.6189 -88.0907,526.8062 -87.7503,528.0055 -87.3994,529.2167 -87.0379,530.4398 -86.6655,531.6747 -86.2821,532.9212 -85.8877,534.1794 -85.482,535.4491 -85.0649,536.7302 -84.6364,538.0227 -84.1962,539.3265 -83.7442,540.6414 -83.2803,541.9675 -82.8044,543.3045 -82.1911,543.8241 -73.6081,545.0522 -72.8737,544.7254 -72.0419,543.5755 -71.2248,542.4327 -70.4222,541.2973 -69.634,540.1693 -68.8602,539.0488 -68.1007,537.9361 -67.3552,536.8311 -66.6238,535.734 -65.9062,534.6449 -65.2025,533.564 -64.5124,532.4914 -63.8359,531.4272 -63.1729,530.3715 -62.5233,529.3243 -61.8868,528.286 -61.2635,527.2564 -60.6532,526.2359 -60.0558,525.2243 -59.4711,524.222 -58.8991,523.229 -58.3397,522.2453 -57.7926,521.2711 -57.2579,520.3066 -56.7353,519.3518 -56.2247,518.4067 -55.7261,517.4716 -55.2393,516.5465 -54.7642,515.6316 -54.3006,514.7268 -53.8485,513.8324 -53.4076,512.9484 -52.978,512.0749 -47.7642,511.9433 -47.7642,511.9433 -42.6648,513.0371 -42.4042,513.975 -42.1345,514.9253 -41.8556,515.888 -41.5674,516.8628 -41.2697,517.8499 -40.9624,518.8491 -40.6454,519.8603 -40.3185,520.8834 -39.9816,521.9185 -39.6345,522.9653 -39.2771,524.0238 -38.9092,525.094 -38.5308,526.1757 -38.1417,527.2689 -37.7417,528.3735 -37.3307,529.4894 -36.9086,530.6164 -36.4752,531.7546 -36.0305,532.9038 -35.5742,534.064 -35.1063,535.235 -34.6266,536.4168 -34.1349,537.6092 -33.6312,538.8122 -33.1154,540.0256 -32.5872,541.2495 -32.0466,542.4835 -31.4934,543.7278 -30.9275,544.9821 -30.3488,546.2465 -29.7572,547.5206 -29.1525,548.8046 -28.4912,549.2615 -19.8292,549.6424 -19.1303,549.2453 -18.4153,548.0194 -17.7141,546.802 -17.0267,545.5934 -16.3529,544.3936 -15.6926,543.2027 -15.0458,542.0208 -14.4122,540.848 -13.7918,539.6845 -13.1845,538.5304 -12.5901,537.3857 -12.0085,536.2507 -11.4396,535.1252 -10.8832,534.0096 -10.3393,532.9039 -9.8077,531.8081 -9.2883,530.7224 -8.781,529.6469 -8.2856,528.5817 -7.802,527.5269 -7.3301,526.4826 -6.8697,525.4488 -6.4208,524.4257 -5.9832,523.4134 -5.5567,522.412 -5.1412,521.4215 -4.7367,520.442 -4.3429,519.4736 -3.9597,518.5165 -3.5871,517.5707 -3.2248,516.6362 -2.8727,515.7133 -2.5307,514.8019 2.645,514.1599 2.645,514.1599 7.827,514.7486 8.1784,515.6564 8.5399,516.5757 8.9118,517.5064 9.2942,518.4483 9.6872,519.4015 10.0909,520.3657 10.5055,521.341 10.9311,522.3271 11.3679,523.3242 11.8159,524.3319 12.2754,525.3503 12.7463,526.3793 13.229,527.4187 13.7234,528.4685 14.2297,529.5286 14.7481,530.5988 15.2786,531.679 15.8215,532.7693 16.3767,533.8694 16.9445,534.9792 17.525,536.0987 18.1182,537.2278 18.7244,538.3663 19.3435,539.5141 19.9759,540.6711 20.6215,541.8373 21.2804,543.0125 21.9529,544.1965 22.639,545.3893 23.3388,546.5908 24.0525,547.8009 24.7801,549.0194 25.483,549.4093 34.1407,548.9394 34.7972,548.4756 35.3887,547.1855 35.9672,545.9053 36.5328,544.6351 37.0858,543.375 37.6261,542.1251 38.154,540.8855 38.6696,539.6563 39.1729,538.4377 39.6642,537.2295 40.1435,536.0321 40.6111,534.8455 41.0669,533.6697 41.5113,532.5049 41.9442,531.3512 42.3658,530.2086 42.7763,529.0773 43.1758,527.9572 43.5644,526.8486 43.9422,525.7515 44.3095,524.6659 44.6663,523.592 45.0128,522.5298 45.3491,521.4795 45.6754,520.4411 45.9918,519.4146 46.2984,518.4002 46.5953,517.3979 46.8828,516.4078 47.161,515.43 47.4299,514.4646 47.6899,513.5115 47.9409,512.571 53.0287,511.4248 53.0287,511.4248 58.2435,511.5027 58.6822,512.3718 59.1321,513.2512 59.5934,514.1409 60.0663,515.0409 60.5508,515.9509 61.0471,516.8709 61.5553,517.8008 62.0755,518.7406 62.6079,519.69 63.1526,520.649 63.7096,521.6174 64.2792,522.5953 64.8613,523.5824 65.4563,524.5787 66.0641,525.584 66.6848,526.5982 67.3187,527.6213 67.9658,528.6531 68.6262,529.6934 69.3001,530.7423 69.9875,531.7995 70.6885,532.865 71.4033,533.9386 72.132,535.0202 72.8747,536.1097 73.6315,537.2069 74.4025,538.3119 75.1878,539.4243 75.9875,540.5441 76.8017,541.6712 77.6305,542.8055 78.4741,543.9468 79.2118,544.266 87.7818,542.9497 88.3897,542.4238 88.8519,541.082 89.3021,539.7512 89.7405,538.4317 90.1673,537.1235 90.5825,535.8266 90.9863,534.5413 91.3789,533.2675 91.7604,532.0053 92.1309,530.7549 92.4906,529.5162 92.8396,528.2895 93.178,527.0747 93.506,525.872 93.8237,524.6814 94.1313,523.5029 94.4289,522.3368 94.7167,521.183 94.9948,520.0416 95.2633,518.9127 95.5224,517.7964 95.7722,516.6927 96.0129,515.6017 96.2447,514.5234 96.4676,513.458 96.6818,512.4055 96.8875,511.3659 97.0848,510.3394 97.2739,509.3259 97.4549,508.3255 97.6279,507.3383 97.7931,506.3644 97.9508,505.4038 102.9018,503.7644 102.9018,503.7644 108.0991,503.3308 108.6208,504.1527 109.1548,504.9838 109.7011,505.824 110.2599,506.6733 110.8312,507.5314 111.4153,508.3984 112.0122,509.274 112.6221,510.1582 113.2449,511.0509 113.881,511.9519 114.5303,512.8611 115.1929,513.7784 115.8691,514.7037 116.5588,515.6368 117.2622,516.5777 117.9794,517.5263 118.7105,518.4823 119.4556,519.4457 120.2148,520.4163 120.9882,521.394 121.7759,522.3788 122.578,523.3704 123.3946,524.3688 124.2258,525.3737 125.0717,526.3852 125.9324,527.403 126.808,528.427 127.6986,529.4571 128.6042,530.4932 129.5249,531.5351 130.461,532.5826 131.4123,533.6358 132.1778,533.8811 140.5775,531.7311 141.1309,531.1482 141.4593,529.7675 141.7769,528.399 142.0839,527.0429 142.3804,525.6991 142.6665,524.3679 142.9424,523.0491 143.2083,521.7429 143.4642,520.4495 143.7104,519.1687 143.9469,517.9008 144.1739,516.6458 144.3917,515.4037 144.6002,514.1746 144.7997,512.9585 144.9903,511.7557 145.1722,510.566 145.3455,509.3895 145.5103,508.2264 145.6669,507.0766 145.8154,505.9402 145.9558,504.8174 146.0884,503.708 146.2134,502.6122 146.3308,501.5301 146.4408,500.4616 146.5436,499.4069 146.6393,498.3659 146.7282,497.3388 146.8102,496.3255 146.8857,495.3262 146.9546,494.3407 147.0173,493.3693 151.7838,491.2525 151.7838,491.2525 156.9136,490.3116 157.5134,491.0784 158.1262,491.8531 158.7523,492.6358 159.3916,493.4261 160.0443,494.2242 160.7106,495.0297 161.3904,495.8426 162.084,496.6628 162.7914,497.4901 163.5127,498.3244 164.2479,499.1656 164.9973,500.0135 165.7609,500.8681 166.5388,501.7291 167.331,502.5966 168.1377,503.4702 168.959,504.35 169.795,505.2357 170.6456,506.1272 171.5112,507.0245 172.3916,507.9273 173.287,508.8355 174.1976,509.749 175.1233,510.6677 176.0643,511.5913 177.0206,512.5199 177.9923,513.4531 178.9795,514.391 179.9823,515.3333 181.0008,516.2799 182.035,517.2307 183.085,518.1855 183.8708,518.3546 192.0193,515.3917 192.5129,514.7573 192.7044,513.3511 192.8864,511.9581 193.059,510.5784 193.2223,509.212 193.3766,507.8591 193.5219,506.5197 193.6584,505.1937 193.7863,503.8814 193.9058,502.5827 194.0169,501.2977 194.1198,500.0265 194.2148,498.769 194.3018,497.5254 194.3812,496.2957 194.453,495.0799 194.5174,493.8781 194.5745,492.6903 194.6246,491.5166 194.6677,490.357 194.704,489.2116 194.7337,488.0804 194.757,486.9634 194.7739,485.8606 194.7847,484.7722 194.7895,483.6981 194.7884,482.6383 194.7816,481.593 194.7693,480.5621 194.7517,479.5457 194.7288,478.5437 194.7009,477.5563 194.668,476.5834 199.2041,474.0096 199.2041,474.0096 204.217,472.5704 204.889,473.2747 205.5748,473.9856 206.2746,474.7031 206.9883,475.4271 207.7161,476.1573 208.4581,476.8936 209.2144,477.636 209.985,478.3842 210.7701,479.1382 211.5696,479.8978 212.3838,480.6628 213.2127,481.4333 214.0564,482.2089 214.9149,482.9895 215.7884,483.7751 216.6768,484.5655 217.5804,485.3605 218.4991,486.16 219.4331,486.9639 220.3824,487.772 221.3471,488.5841 222.3272,489.4002 223.3229,490.2201 224.3342,491.0436 225.3612,491.8706 226.4039,492.7009 227.4624,493.5344 228.5368,494.371 229.6272,495.2105 230.7335,496.0527 231.8559,496.8975 232.9945,497.7448 233.7931,497.8361 241.6119,494.0888 242.041,493.409 242.0937,491.9908 242.1383,490.5867 242.1748,489.1967 242.2034,487.821 242.2243,486.4594 242.2376,485.1122 242.2436,483.7793 242.2422,482.4607 242.2338,481.1566 242.2184,479.8668 242.1963,478.5916 242.1675,477.3309 242.1322,476.0848 242.0907,474.8532 242.0429,473.6362 241.9892,472.4339 241.9297,471.2462 241.8645,470.0733 241.7937,468.9151 241.7176,467.7716 241.6363,466.6429 241.5499,465.529 241.4587,464.4299 241.3627,463.3456 241.2622,462.2762 241.1573,461.2217 241.0481,460.1821 240.9348,459.1573 240.8176,458.1475 240.6966,457.1526 240.572,456.1727 240.444,455.2077 244.706,452.2017 244.706,452.2017 249.5536,450.2781 250.2914,450.9131 251.0437,451.5534 251.8103,452.1989 252.5916,452.8493 253.3875,453.5047 254.1981,454.1648 255.0235,454.8294 255.8637,455.4985 256.7189,456.1719 257.5891,456.8495 258.4743,457.5311 259.3748,458.2165 260.2904,458.9057 261.2213,459.5985 262.1675,460.2947 263.1292,460.9941 264.1063,461.6968 265.099,462.4024 266.1073,463.1108 267.1312,463.822 268.1708,464.5357 269.2263,465.2517 270.2975,465.9701 271.3847,466.6905 272.4877,467.4128 273.6068,468.1369 274.742,468.8627 275.8932,469.5899 277.0606,470.3185 278.2441,471.0482 279.4439,471.779 280.66,472.5106 281.4638,472.5232 288.8776,468.0275 289.238,467.309 289.1515,465.8924 289.0582,464.4907 288.9583,463.1038 288.8519,461.7319 288.7393,460.3749 288.6205,459.0328 288.4957,457.7057 288.3652,456.3936 288.229,455.0966 288.0872,453.8146 287.9402,452.5477 287.788,451.2959 287.6308,450.0592 287.4687,448.8376 287.3019,447.6312 287.1306,446.4399 286.9549,445.2638 286.775,444.1029 286.5911,442.9572 286.4033,441.8267 286.2117,440.7114 286.0166,439.6113 285.8181,438.5264 285.6163,437.4568 285.4115,436.4024 285.2037,435.3633 284.9931,434.3393 284.7799,433.3306 284.5643,432.3372 284.3464,431.3589 284.1264,430.3959 283.9044,429.4481 287.8511,426.0388 287.8511,426.0388 292.4869,423.6493 293.2834,424.209 294.0948,424.7725 294.921,425.3397 295.7623,425.9104 296.6186,426.4846 297.49,427.0621 298.3765,427.6426 299.2783,428.2261 300.1954,428.8125 301.1278,429.4015 302.0756,429.993 303.0389,430.5869 304.0176,431.183 305.012,431.7812 306.0219,432.3813 307.0475,432.9832 308.0888,433.5866 309.1458,434.1915 310.2187,434.7977 311.3074,435.4051 312.412,436.0134 313.5325,436.6226 314.669,437.2325 315.8215,437.8429 316.9901,438.4536 318.1748,439.0646 319.3756,439.6756 320.5925,440.2865 321.8257,440.8971 323.0751,441.5073 324.3408,442.1169 325.6227,442.7258 326.4238,442.6596 333.3613,437.4588 333.6496,436.7085 333.4246,435.3072 333.1944,433.9214 332.959,432.551 332.7187,431.1961 332.4736,429.8566 332.2238,428.5327 331.9696,427.2242 331.711,425.9312 331.4483,424.6538 331.1816,423.3919 330.9111,422.1455 330.6369,420.9146 330.3592,419.6993 330.0782,418.4995 329.794,417.3152 329.5068,416.1464 329.2166,414.9932 328.9238,413.8555 328.6285,412.7334 328.3308,411.6267 328.0308,410.5356 327.7288,409.4599 327.4249,408.3997 327.1193,407.355 326.812,406.3258 326.5034,405.312 326.1935,404.3137 325.8825,403.3307 325.5705,402.3632 325.2578,401.411 324.9444,400.4742 324.6306,399.5527 328.2242,395.773 328.2242,395.773 332.6034,392.9406 333.4509,393.4195 334.3136,393.9008 335.1915,394.3842 336.0846,394.8698 336.9931,395.3573 337.9169,395.8465 338.8561,396.3374 339.8107,396.8297 340.7808,397.3233 341.7665,397.8181 342.7677,398.3139 343.7845,398.8105 344.817,399.3078 345.8652,399.8057 346.9291,400.3039 348.0087,400.8023 349.1042,401.3008 350.2154,401.7992 351.3425,402.2973 352.4855,402.795 353.6444,403.2922 354.8193,403.7886 356.0101,404.2841 357.2169,404.7786 358.4397,405.2719 359.6785,405.7638 360.9334,406.2541 362.2044,406.7428 363.4915,407.2296 364.7947,407.7144 366.114,408.1971 367.4495,408.6774 368.2402,408.5329 374.6346,402.6772 374.8479,401.9022 374.4866,400.5298 374.1217,399.1732 373.7531,397.8325 373.3811,396.5076 373.0059,395.1986 372.6276,393.9055 372.2463,392.6283 371.8623,391.3669 371.4757,390.1214 371.0866,388.8916 370.6952,387.6778 370.3017,386.4797 369.9062,385.2974 369.5089,384.1309 369.11,382.9802 368.7096,381.8453 368.3078,380.726 367.9049,379.6225 367.501,378.5347 367.0962,377.4626 366.6908,376.4061 366.2848,375.3652 365.8784,374.3399 365.4719,373.3302 365.0652,372.3361 364.6587,371.3574 364.2524,370.3942 363.8466,369.4465 363.4413,368.5142 363.0367,367.5973 362.633,366.6957 362.2304,365.8094 365.4362,361.6956 365.4362,361.6956 369.5168,358.4476 370.4071,358.8412 371.3128,359.2355 372.2339,359.6307 373.1703,360.0263 374.1222,360.4224 375.0895,360.8188 376.0723,361.2152 377.0705,361.6116 378.0844,362.0078 379.1138,362.4035 380.1588,362.7988 381.2194,363.1934 382.2957,363.5871 383.3876,363.9798 384.4952,364.3713 385.6185,364.7615 386.7575,365.1502 387.9122,365.5373 389.0827,365.9226 390.269,366.3059 391.4711,366.687 392.6889,367.0659 393.9226,367.4423 395.172,367.8161 396.4373,368.1872 397.7184,368.5553 399.0153,368.9203 400.3281,369.282 401.6567,369.6403 403.0011,369.9951 404.3614,370.346 405.7375,370.6931 406.5103,370.4719 412.2999,364.0176 412.4362,363.2254 411.9422,361.895 411.446,360.5807 410.9478,359.2826 410.4478,358.0006 409.946,356.7347 409.4428,355.4849 408.9382,354.2512 408.4323,353.0335 407.9255,351.8318 407.4177,350.6462 406.9093,349.4765 406.4002,348.3228 405.8908,347.185 405.381,346.063 404.8712,344.957 404.3615,343.8667 403.852,342.7923 403.3429,341.7336 402.8343,340.6906 402.3264,339.6633 401.8193,338.6516 401.3133,337.6555 400.8084,336.675 400.3048,335.71 399.8027,334.7605 399.3022,333.8264 398.8034,332.9077 398.3066,332.0043 397.8119,331.1162 397.3194,330.2434 396.8293,329.3857 396.3417,328.5431 399.1289,324.135 399.1289,324.135 402.8715,320.5027 403.7961,320.807 404.7361,321.1107 405.6914,321.4136 406.6621,321.7156 407.6482,322.0165 408.6497,322.3161 409.6666,322.6143 410.699,322.911 411.7468,323.2058 412.81,323.4988 413.8887,323.7897 414.9829,324.0784 416.0926,324.3648 417.2177,324.6486 418.3583,324.9296 419.5145,325.2079 420.6861,325.4831 421.8733,325.7551 423.0759,326.0238 424.294,326.2889 425.5276,326.5504 426.7768,326.8081 428.0414,327.0618 429.3214,327.3114 430.617,327.5566 431.928,327.7973 433.2545,328.0335 434.5964,328.2648 435.9537,328.4912 437.3264,328.7124 438.7145,328.9284 440.118,329.1389 440.8654,328.843 445.9945,321.8523 446.0525,321.0506 445.4305,319.775 444.8079,318.5156 444.1848,317.2726 443.5615,316.0458 442.9381,314.8352 442.3148,313.6407 441.6917,312.4624 441.069,311.3002 440.4468,310.154 439.8252,309.0238 439.2046,307.9096 438.5849,306.8113 437.9664,305.7289 437.3491,304.6624 436.7334,303.6116 436.1192,302.5766 435.5069,301.5572 434.8964,300.5535 434.288,299.5654 433.6819,298.5928 433.0781,297.6357 432.4769,296.694 431.8783,295.7677 431.2825,294.8568 430.6898,293.961 430.1001,293.0805 429.5138,292.2151 428.9308,291.3647 428.3514,290.5294 427.7757,289.709 427.2039,288.9035 426.6361,288.1128 428.9778,283.4527 428.9778,283.4527 432.3463,279.471 433.2963,279.6833 434.2615,279.8934 435.242,280.1012 436.2376,280.3066 437.2484,280.5094 438.2745,280.7094 439.3157,280.9065 440.3722,281.1005 441.4438,281.2913 442.5306,281.4786 443.6327,281.6624 444.7499,281.8425 445.8823,282.0187 447.0298,282.1908 448.1925,282.3587 449.3704,282.5223 450.5633,282.6813 451.7714,282.8357 452.9946,282.9852 454.2328,283.1297 455.4862,283.269 456.7545,283.403 458.0379,283.5315 459.3363,283.6544 460.6496,283.7715 461.9779,283.8826 463.3211,283.9875 464.6792,284.0862 466.0522,284.1784 467.44,284.2641 468.8426,284.343 470.26,284.4149 470.9748,284.0471 475.3939,276.5874 475.3731,275.7839 474.629,274.5753 473.886,273.3831 473.1441,272.2071 472.4036,271.0473 471.6645,269.9036 470.9271,268.776 470.1915,267.6644 469.4579,266.5688 468.7263,265.4892 467.997,264.4254 467.2701,263.3774 466.5457,262.3451 465.8241,261.3285 465.1053,260.3276 464.3895,259.3423 463.6769,258.3724 462.9676,257.418 462.2617,256.479 461.5594,255.5552 460.8608,254.6468 460.1661,253.7534 459.4755,252.8752 458.789,252.0121 458.1068,251.1639 457.4291,250.3305 456.756,249.512 456.0876,248.7083 455.4241,247.9192 454.7656,247.1447 454.1123,246.3846 453.4643,245.6391 452.8217,244.9078 454.6954,240.0406 454.6954,240.0406 457.6574,235.748 458.6236,235.8661 459.6048,235.9806 460.6009,236.0913 461.6119,236.1981 462.6377,236.3008 463.6784,236.3993 464.7339,236.4934 465.8043,236.5829 466.8895,236.6677 467.9895,236.7476 469.1042,236.8225 470.2337,236.8922 471.3779,236.9566 472.5368,237.0154 473.7103,237.0685 474.8985,237.1159 476.1014,237.1572 477.3187,237.1924 478.5507,237.2213 479.7971,237.2437 481.0581,237.2595 482.3335,237.2686 483.6233,237.2707 484.9274,237.2657 486.2459,237.2535 487.5787,237.2338 488.9258,237.2066 490.287,237.1717 491.6624,237.1289 493.0519,237.0781 494.4555,237.0192 495.8731,236.9518 496.5484,236.5158 500.2151,228.6588 500.1156,227.8612 499.2566,226.7314 498.4003,225.6178 497.5467,224.5201 496.6961,223.4385 495.8485,222.3727 495.0041,221.3229 494.1631,220.2887 493.3256,219.2703 492.4917,218.2676 491.6617,217.2804 490.8356,216.3086 490.0135,215.3524 489.1957,214.4114 488.3823,213.4858 487.5734,212.5753 486.7691,211.68 485.9696,210.7997 485.1751,209.9344 484.3856,209.0839 483.6014,208.2483 482.8225,207.4274 482.0491,206.6211 481.2813,205.8294 480.5193,205.0521 479.7631,204.2892 479.013,203.5407 478.2691,202.8063 477.5315,202.086 476.8002,201.3798 476.0756,200.6874 475.3576,200.009 474.6464,199.3442 476.034,194.3168 476.034,194.3168 478.561,189.7545 479.5341,189.7773 480.5218,189.7951 481.524,189.8077 482.5405,189.8149 483.5715,189.8165 484.6168,189.8125 485.6765,189.8027 486.7505,189.7869 487.8388,189.7649 488.9413,189.7366 490.058,189.7019 491.1889,189.6606 492.3339,189.6124 493.493,189.5574 494.6661,189.4953 495.8532,189.4259 497.0543,189.3491 498.2692,189.2648 499.4981,189.1728 500.7407,189.073 501.9972,188.9651 503.2673,188.8491 504.5511,188.7248 505.8485,188.592 507.1594,188.4506 508.4839,188.3004 509.8218,188.1413 511.173,187.9732 512.5376,187.7958 513.9155,187.609 515.3065,187.4127 516.7107,187.2068 517.34,186.7066 520.2189,178.5281 520.0417,177.7441 519.0762,176.7039 518.1148,175.6796 517.1577,174.6709 516.2052,173.6778 515.2572,172.7003 514.314,171.7382 513.3757,170.7915 512.4424,169.8601 511.5142,168.9439 510.5914,168.0428 509.674,167.1568 508.7622,166.2857 507.8561,165.4294 506.9558,164.588 506.0616,163.7612 505.1734,162.949 504.2915,162.1513 503.416,161.368 502.547,160.599 501.6846,159.8443 500.829,159.1037 499.9803,158.3771 499.1386,157.6644 498.3041,156.9656 497.4768,156.2805 496.6569,155.6091 495.8446,154.9511 495.0399,154.3066 494.243,153.6755 493.4539,153.0575 492.6729,152.4527 491.9,151.8609 492.7881,146.7216 492.7881,146.7216 494.8557,141.9336 495.8265,141.8609 496.8111,141.7818 497.8097,141.6961 498.8221,141.6036 499.8482,141.5042 500.8882,141.3978 501.9418,141.2841 503.0091,141.1631 504.0899,141.0346 505.1844,140.8984 506.2923,140.7544 507.4137,140.6024 508.5484,140.4422 509.6965,140.2739 510.8579,140.097 512.0325,139.9116 513.2203,139.7175 514.4211,139.5146 515.635,139.3026 516.8619,139.0814 518.1017,138.8509 519.3544,138.6109 520.6198,138.3614 521.8979,138.1021 523.1887,137.8328 524.4921,137.5536 525.8079,137.2641 527.1362,136.9643 528.4768,136.654 529.8297,136.3331 531.1948,136.0014 532.5721,135.6588 533.1493,135.0994 535.2127,126.6781 534.9595,125.9152 533.8967,124.9747 532.8395,124.0495 531.7882,123.1395 530.7429,122.2446 529.7037,121.3647 528.6707,120.4997 527.6441,119.6495 526.624,118.8141 525.6105,117.9932 524.6038,117.1869 523.604,116.3951 522.6112,115.6175 521.6255,114.8542 520.6472,114.1051 519.6762,113.3699 518.7127,112.6487 517.7568,111.9413 516.8087,111.2476 515.8685,110.5675 514.9363,109.9009 514.0123,109.2477 513.0964,108.6078 512.1889,107.9811 511.2899,107.3674 510.3995,106.7667 509.5177,106.1789 508.6448,105.6037 507.7808,105.0412 506.9259,104.4912 506.0801,103.9536 505.2435,103.4282 504.4164,102.915 504.7964,97.7134 504.7964,97.7134 506.3848,92.7458 507.3437,92.5783 508.3159,92.4031 509.3012,92.2199 510.2997,92.0286 511.3112,91.8292 512.3357,91.6213 513.3731,91.4049 514.4233,91.1799 515.4864,90.946 516.5622,90.7032 517.6507,90.4513 518.7518,90.1901 519.8654,89.9195 520.9914,89.6394 522.1299,89.3496 523.2807,89.05 524.4437,88.7404 525.6189,88.4207 526.8062,88.0907 528.0055,87.7503 529.2167,87.3994 530.4398,87.0379 531.6747,86.6655 532.9212,86.2821 534.1794,85.8877 535.4491,85.482 536.7302,85.0649 538.0227,84.6364 539.3265,84.1962 540.6414,83.7442 541.9675,83.2803 543.3045,82.8044 543.8241,82.1911 545.0522,73.6081 544.7254,72.8737 543.5755,72.0419 542.4327,71.2248 541.2973,70.4222 540.1693,69.634 539.0488,68.8602 537.9361,68.1007 536.8311,67.3552 535.734,66.6238 534.6449,65.9062 533.564,65.2025 532.4914,64.5124 531.4272,63.8359 530.3715,63.1729 529.3243,62.5233 528.286,61.8868 527.2564,61.2635 526.2359,60.6532 525.2243,60.0558 524.222,59.4711 523.229,58.8991 522.2453,58.3397 521.2711,57.7926 520.3066,57.2579 519.3518,56.7353 518.4067,56.2247 517.4716,55.7261 516.5465,55.2393 515.6316,54.7642 514.7268,54.3006 513.8324,53.8485 512.9484,53.4076 512.0749,52.978 511.9433,47.7642 511.9433,47.7642 513.0371,42.6648 513.975,42.4042 514.9253,42.1345 515.888,41.8556 516.8628,41.5674 517.8499,41.2697 518.8491,40.9624 519.8603,40.6454 520.8834,40.3185 521.9185,39.9816 522.9653,39.6345 524.0238,39.2771 525.094,38.9092 526.1757,38.5308 527.2689,38.1417 528.3735,37.7417 529.4894,37.3307 530.6164,36.9086 531.7546,36.4752 532.9038,36.0305 534.064,35.5742 535.235,35.1063 536.4168,34.6266 537.6092,34.1349 538.8122,33.6312 540.0256,33.1154 541.2495,32.5872 542.4835,32.0466 543.7278,31.4934 544.9821,30.9275 546.2465,30.3488 547.5206,29.7572 548.8046,29.1525 549.2615,28.4912 549.6424,19.8292 549.2453,19.1303 548.0194,18.4153 546.802,17.7141 545.5934,17.0267 544.3936,16.3529 543.2027,15.6926 542.0208,15.0458 540.848,14.4122 539.6845,13.7918 538.5304,13.1845 537.3857,12.5901 536.2507,12.0085 535.1252,11.4396 534.0096,10.8832 532.9039,10.3393 531.8081,9.8077 530.7224,9.2883 529.6469,8.781 528.5817,8.2856 527.5269,7.802 526.4826,7.3301 525.4488,6.8697 524.4257,6.4208 523.4134,5.9832 522.412,5.5567 521.4215,5.1412 520.442,4.7367 519.4736,4.3429 518.5165,3.9597 517.5707,3.5871 516.6362,3.2248 515.7133,2.8727 514.8019,2.5307 514.1599,-2.645 "/><g class="guides"><polyline fill="none" stroke="#444" stroke-width="0.5" stroke-miterlimit="10" points="10,0 -10,0"/><polyline fill="none" stroke="#444" stroke-width="0.5" stroke-miterlimit="10" points="0,10 0,-10"/></g><circle fill="#c00" class="firstmarker" stroke="none" stroke-miterlimit="10" cx="532.5492" cy="-28.9094" r="6.5417"/><g class="geartext"><g class="text"><polyline fill="none" stroke="#444" stroke-width="0.5" stroke-linecap="square" stroke-miterlimit="1"  points="426.6 -228.97 425.18 -231.61 423.73 -234.24 422.27 -236.86 420.8 -239.47 "/><polyline fill="none" stroke="#444" stroke-width="0.5" stroke-linecap="square" stroke-miterlimit="1"  points="418.48 -231.34 428.98 -237.14 "/><polyline fill="none" stroke="#444" stroke-width="0.5" stroke-linecap="square" stroke-miterlimit="1"  points="431.89 -231.81 427.81 -233.04 423.73 -234.24 419.66 -235.39 415.58 -236.51 "/><polyline fill="none" stroke="#444" stroke-width="0.5" stroke-linecap="square" stroke-miterlimit="1"  points="421.32 -226.13 422.54 -230.17 423.73 -234.24 424.89 -238.33 426.01 -242.44 "/><polyline fill="none" stroke="#444" stroke-width="0.5" stroke-linecap="square" stroke-miterlimit="1"  points="434.73 -226.44 438.79 -225.11 422.78 -216.89 "/><polyline fill="none" stroke="#444" stroke-width="0.5" stroke-linecap="square" stroke-miterlimit="1"  points="424.11 -214.27 422.78 -216.89 421.43 -219.51 "/><polyline fill="none" stroke="#444" stroke-width="0.5" stroke-linecap="square" stroke-miterlimit="1"  points="454.3 -191.89 437.72 -184.89 440.7 -189.37 443.64 -193.9 446.55 -198.48 449.41 -203.09 433 -195.68 "/><polyline fill="none" stroke="#444" stroke-width="0.5" stroke-linecap="square" stroke-miterlimit="1"  points="455.51 -172.75 454.43 -175.56 453.34 -178.38 452.22 -181.18 451.09 -183.98 "/><polyline fill="none" stroke="#444" stroke-width="0.5" stroke-linecap="square" stroke-miterlimit="1"  points="449.9 -170.62 448.84 -173.4 447.75 -176.18 446.65 -178.95 445.53 -181.72 "/><polyline fill="none" stroke="#444" stroke-width="0.5" stroke-linecap="square" stroke-miterlimit="1"  points="454.8 -166.06 455.82 -163.24 456.82 -160.41 457.81 -157.58 455.93 -153.78 453.09 -152.82 449.3 -154.65 448.33 -157.43 447.35 -160.2 449.16 -164 457.62 -167.09 461.47 -165.26 465.31 -163.39 466.32 -160.51 "/><polyline fill="none" stroke="#444" stroke-width="0.5" stroke-linecap="square" stroke-miterlimit="1"  points="461.33 -136.73 460.48 -139.58 459.6 -142.43 458.71 -145.28 457.8 -148.12 462.52 -146.48 467.24 -144.8 471.96 -143.06 454.73 -137.84 "/><polyline fill="none" stroke="#444" stroke-width="0.5" stroke-linecap="square" stroke-miterlimit="1"  points="469.74 -117.32 470.46 -114.41 471.16 -111.49 471.84 -108.57 475.43 -106.3 478.36 -106.95 480.61 -110.59 479.91 -113.56 479.2 -116.53 478.47 -119.5 461.01 -115.14 "/><polyline fill="none" stroke="#444" stroke-width="0.5" stroke-linecap="square" stroke-miterlimit="1"  points="464.97 -97.93 476.71 -100.4 "/><polyline fill="none" stroke="#444" stroke-width="0.5" stroke-linecap="square" stroke-miterlimit="1"  points="479.64 -101.02 482.58 -101.63 "/><polyline fill="none" stroke="#444" stroke-width="0.5" stroke-linecap="square" stroke-miterlimit="1"  points="471.24 -81.08 467.78 -83.48 470.2 -86.92 484.95 -89.64 "/><polyline fill="none" stroke="#444" stroke-width="0.5" stroke-linecap="square" stroke-miterlimit="1"  points="480.11 -82.61 479.59 -85.58 479.05 -88.55 478.49 -91.52 477.92 -94.48 "/><polyline fill="none" stroke="#444" stroke-width="0.5" stroke-linecap="square" stroke-miterlimit="1"  points="470.96 -63.11 470.56 -66.03 470.14 -68.95 469.7 -71.86 472.21 -75.24 478.14 -76.18 481.56 -73.67 482.01 -70.69 482.44 -67.7 482.85 -64.71 "/><polyline fill="none" stroke="#444" stroke-width="0.5" stroke-linecap="square" stroke-miterlimit="1"  points="477.66 -58 480.99 -55.38 484.31 -52.72 484.62 -49.72 481.94 -46.43 472.98 -45.57 "/><polyline fill="none" stroke="#444" stroke-width="0.5" stroke-linecap="square" stroke-miterlimit="1"  points="471.7 -57.27 489.57 -59.44 "/><polyline fill="none" stroke="#444" stroke-width="0.5" stroke-linecap="square" stroke-miterlimit="1"  points="474.51 -25.01 474.65 -22.07 474.78 -19.13 474.89 -16.19 477.98 -13.33 489.98 -13.67 492.88 -16.8 492.77 -19.86 492.63 -22.91 492.48 -25.96 "/><polyline fill="none" stroke="#444" stroke-width="0.5" stroke-linecap="square" stroke-miterlimit="1"  points="492.63 -22.91 474.65 -22.07 "/><polyline fill="none" stroke="#444" stroke-width="0.5" stroke-linecap="square" stroke-miterlimit="1"  points="487.15 4.53 487.16 1.51 487.16 -1.51 487.15 -4.53 487.11 -7.55 "/><polyline fill="none" stroke="#444" stroke-width="0.5" stroke-linecap="square" stroke-miterlimit="1"  points="481.15 4.47 481.16 1.49 481.16 -1.49 481.15 -4.47 481.11 -7.45 "/><polyline fill="none" stroke="#444" stroke-width="0.5" stroke-linecap="square" stroke-miterlimit="1"  points="490.05 10.63 492.97 13.75 474.98 13.25 "/><polyline fill="none" stroke="#444" stroke-width="0.5" stroke-linecap="square" stroke-miterlimit="1"  points="474.89 16.19 474.98 13.25 475.05 10.3 "/><polyline fill="none" stroke="#444" stroke-width="0.5" stroke-linecap="square" stroke-miterlimit="1"  points="477.16 31.09 474.34 27.95 474.51 25.01 477.65 22.21 489.64 22.77 492.48 25.96 492.31 29.01 489.13 31.87 477.16 31.09 "/><polyline fill="none" stroke="#444" stroke-width="0.5" stroke-linecap="square" stroke-miterlimit="1"  points="476.73 37 473.74 36.77 "/><polyline fill="none" stroke="#444" stroke-width="0.5" stroke-linecap="square" stroke-miterlimit="1"  points="482.21 43.44 481.94 46.43 481.64 49.41 481.32 52.4 478.01 55.04 475.03 54.69 472.38 51.42 472.69 48.5 472.98 45.57 476.24 42.9 485.2 43.71 487.91 47 490.59 50.33 490.27 53.37 "/><polyline fill="none" stroke="#444" stroke-width="0.5" stroke-linecap="square" stroke-miterlimit="1"  points="489.19 62.47 488.8 65.5 488.38 68.53 487.95 71.56 487.49 74.58 479.04 70.25 470.56 66.03 "/><polyline fill="none" stroke="#444" stroke-width="0.5" stroke-linecap="square" stroke-miterlimit="1"  points="474.97 93.9 474.38 96.84 473.77 99.78 473.15 102.71 475.43 106.3 478.36 106.95 481.94 104.62 482.58 101.63 483.2 98.64 483.8 95.65 466.14 92.16 "/><polyline fill="none" stroke="#444" stroke-width="0.5" stroke-linecap="square" stroke-miterlimit="1"  points="471.15 123.9 471.91 120.97 472.65 118.05 473.37 115.12 474.07 112.18 "/><polyline fill="none" stroke="#444" stroke-width="0.5" stroke-linecap="square" stroke-miterlimit="1"  points="465.35 122.37 466.1 119.48 466.83 116.59 467.54 113.7 468.24 110.8 "/><polyline fill="none" stroke="#444" stroke-width="0.5" stroke-linecap="square" stroke-miterlimit="1"  points="466.69 128.93 465.88 131.81 465.05 134.7 464.21 137.58 460.48 139.58 457.61 138.71 455.58 135.02 456.41 132.2 457.22 129.36 460.9 127.33 469.58 129.72 471.65 133.45 473.7 137.2 472.84 140.14 "/><polyline fill="none" stroke="#444" stroke-width="0.5" stroke-linecap="square" stroke-miterlimit="1"  points="456.82 160.41 455.82 163.24 454.8 166.06 453.76 168.87 455.51 172.75 458.32 173.81 462.2 172.01 463.25 169.15 464.29 166.27 465.31 163.39 448.33 157.43 "/><polyline fill="none" stroke="#444" stroke-width="0.5" stroke-linecap="square" stroke-miterlimit="1"  points="442.17 173.98 447.75 176.18 452.22 181.18 456.65 186.25 449.94 186.77 443.25 187.22 437.72 184.89 "/><polyline fill="none" stroke="#444" stroke-width="0.5" stroke-linecap="square" stroke-miterlimit="1"  points="447.75 176.18 446.65 178.95 445.53 181.72 444.4 184.47 443.25 187.22 "/><polyline fill="none" stroke="#444" stroke-width="0.5" stroke-linecap="square" stroke-miterlimit="1"  points="441.42 206.11 442.69 203.37 443.94 200.62 445.17 197.87 446.39 195.1 "/><polyline fill="none" stroke="#444" stroke-width="0.5" stroke-linecap="square" stroke-miterlimit="1"  points="435.98 203.57 437.24 200.86 438.47 198.15 439.69 195.43 440.89 192.7 "/><polyline fill="none" stroke="#444" stroke-width="0.5" stroke-linecap="square" stroke-miterlimit="1"  points="422.78 216.89 424.11 214.27 425.43 211.64 426.74 209 428.02 206.35 433.43 208.96 434.82 212.96 433.49 215.65 432.15 218.33 433.45 222.37 436.12 223.74 440.18 222.39 441.55 219.66 442.9 216.91 441.53 212.86 "/><polyline fill="none" stroke="#444" stroke-width="0.5" stroke-linecap="square" stroke-miterlimit="1"  points="430.12 241.26 431.61 238.59 433.08 235.92 434.53 233.23 435.97 230.53 430.67 227.73 429.25 230.39 427.81 233.04 426.36 235.69 422.27 236.86 417.04 233.93 415.86 229.89 417.27 227.3 418.67 224.71 422.71 223.52 "/></g></g><g class="guides gearguides" opacity="0.2"><circle class="pitch" fill="none" stroke="#f00" stroke-miterlimit="10" cx="0" cy="0" r="533.33"/><circle class="outer" fill="none" stroke="#ccc" stroke-miterlimit="10" stroke-dasharray="2,2" cx="0" cy="0" r="550"/><circle class="base" fill="none" stroke="#00f" stroke-miterlimit="10" stroke-dasharray="2,2" cx="0" cy="0" r="483.36"/></g></svg>