<?xml version="1.0" encoding="utf-8"?><!-- Generator: Iparigrafika Gear Generator by Abel Vincze http://geargenerator.com/ --><svg version="1.2" class="svggear" xmlns="http://www.w3.org/2000/svg" xmlns:xlink="http://www.w3.org/1999/xlink" x="0px" y="0px" width="568px" height="568px" viewBox="-284 -284 568 568" overflow="scroll" xml:space="preserve"><polygon id="gearpoly0" data-id="0" class="gear" fill="#ddd" stroke="#444" stroke-width="1" stroke-miterlimit="10" points="247.5,0 247.8232,-0.9362 248.4193,-1.0772 249.0417,-1.2317 249.6902,-1.4002 250.3646,-1.5833 251.0646,-1.7816 251.79,-1.9956 252.5406,-2.226 253.3159,-2.4733 254.1159,-2.7381 254.9401,-3.0209 255.7882,-3.3223 256.66,-3.6429 257.5552,-3.9832 258.4733,-4.3437 259.4141,-4.7251 260.3772,-5.1277 261.3623,-5.5522 262.369,-5.9992 263.3969,-6.469 264.4457,-6.9622 265.5148,-7.4794 266.6041,-8.021 267.7129,-8.5876 268.841,-9.1796 269.9879,-9.7974 271.1531,-10.4417 272.3363,-11.1128 273.5369,-11.8113 274.7545,-12.5376 275.9887,-13.292 277.239,-14.0752 278.5048,-14.8875 279.7857,-15.7293 281.0812,-16.6011 282.3909,-17.5034 282.737,-18.3729 282.1966,-25.3549 281.7207,-26.1608 280.2879,-26.8508 278.8736,-27.5128 277.4784,-28.1475 276.1027,-28.7554 274.7468,-29.3368 273.4112,-29.8924 272.0963,-30.4226 270.8025,-30.928 269.5302,-31.409 268.2797,-31.8663 267.0514,-32.3004 265.8456,-32.7117 264.6628,-33.1009 263.5032,-33.4684 262.3672,-33.8149 261.255,-34.1409 260.1671,-34.4469 259.1036,-34.7336 258.0649,-35.0015 257.0513,-35.2512 256.063,-35.4832 255.1003,-35.6981 254.1635,-35.8966 253.2527,-36.0792 252.3683,-36.2465 251.5104,-36.3991 250.6792,-36.5377 249.8751,-36.6627 249.098,-36.7748 248.3483,-36.8747 247.6261,-36.9629 246.9316,-37.04 246.2648,-37.1067 245.626,-37.1636 245.0154,-37.2113 244.552,-38.0865 242.7444,-48.2849 242.8787,-49.2661 243.4358,-49.5207 244.0161,-49.7937 244.6193,-50.0855 245.245,-50.3966 245.8929,-50.7276 246.5626,-51.0791 247.2538,-51.4515 247.966,-51.8453 248.6989,-52.261 249.4521,-52.6992 250.2252,-53.1603 251.0177,-53.6448 251.8292,-54.1532 252.6594,-54.6859 253.5077,-55.2434 254.3738,-55.8263 255.2571,-56.4348 256.1573,-57.0695 257.0738,-57.7309 258.0061,-58.4192 258.9539,-59.1351 259.9165,-59.8788 260.8936,-60.6508 261.8845,-61.4515 262.8888,-62.2812 263.9059,-63.1404 264.9354,-64.0295 265.9767,-64.9488 267.0293,-65.8986 268.0925,-66.8794 269.166,-67.8914 270.249,-68.935 271.3411,-70.0106 272.4416,-71.1184 273.5501,-72.2588 273.7199,-73.1791 271.8277,-79.9216 271.2038,-80.6192 269.6639,-81.0163 268.1477,-81.3897 266.6554,-81.74 265.1875,-82.0678 263.7443,-82.3735 262.326,-82.6579 260.9329,-82.9214 259.5654,-83.1647 258.2236,-83.3883 256.908,-83.5928 255.6186,-83.7789 254.3558,-83.9471 253.1197,-84.098 251.9107,-84.2322 250.7289,-84.3505 249.5745,-84.4532 248.4478,-84.5411 247.3488,-84.6148 246.2778,-84.6749 245.235,-84.722 244.2204,-84.7568 243.2343,-84.7798 242.2767,-84.7917 241.3478,-84.7931 240.4478,-84.7847 239.5766,-84.767 238.7344,-84.7407 237.9212,-84.7064 237.1373,-84.6648 236.3825,-84.6165 235.6569,-84.5621 234.9607,-84.5023 234.2937,-84.4376 233.6562,-84.3688 233.0479,-84.2964 232.4227,-85.0644 228.6602,-94.7141 228.6005,-95.7027 229.0972,-96.0612 229.6131,-96.4421 230.1478,-96.8459 230.7008,-97.2732 231.2717,-97.7243 231.86,-98.1996 232.4652,-98.6997 233.0869,-99.2249 233.7246,-99.7756 234.3779,-100.3523 235.0461,-100.9553 235.7289,-101.5851 236.4256,-102.2421 237.1359,-102.9265 237.8592,-103.6389 238.5949,-104.3795 239.3426,-105.1486 240.1016,-105.9468 240.8714,-106.7742 241.6516,-107.6312 242.4415,-108.5182 243.2405,-109.4354 244.0482,-110.3832 244.8639,-111.3618 245.687,-112.3716 246.517,-113.4127 247.3532,-114.4855 248.1952,-115.5903 249.0422,-116.7272 249.8937,-117.8965 250.7491,-119.0985 251.6077,-120.3334 252.4689,-121.6014 253.3322,-122.9026 254.1969,-124.2373 254.1839,-125.1731 251.0127,-131.4169 250.2647,-131.9793 248.6769,-132.0684 247.1169,-132.1389 245.585,-132.1913 244.0814,-132.2264 242.6062,-132.2447 241.1597,-132.2469 239.742,-132.2336 238.3533,-132.2054 236.9937,-132.1629 235.6634,-132.1068 234.3625,-132.0378 233.0911,-131.9564 231.8494,-131.8633 230.6374,-131.7591 229.4553,-131.6445 228.303,-131.52 227.1807,-131.3864 226.0885,-131.2443 225.0264,-131.0943 223.9944,-130.9371 222.9925,-130.7733 222.0209,-130.6034 221.0794,-130.4283 220.1681,-130.2485 219.2869,-130.0646 218.436,-129.8773 217.6151,-129.6872 216.8243,-129.4949 216.0634,-129.3012 215.3326,-129.1066 214.6316,-128.9117 213.9604,-128.7171 213.3189,-128.5236 212.707,-128.3317 212.1245,-128.142 211.3615,-128.7734 205.7887,-137.5036 205.5373,-138.4616 205.9546,-138.91 206.3863,-139.3843 206.8319,-139.8847 207.2909,-140.4116 207.7628,-140.9654 208.2471,-141.5464 208.7431,-142.1549 209.2504,-142.7913 209.7684,-143.4559 210.2966,-144.1489 210.8343,-144.8707 211.3811,-145.6216 211.9364,-146.4019 212.4995,-147.2117 213.0699,-148.0515 213.647,-148.9214 214.2302,-149.8217 214.8189,-150.7525 215.4126,-151.7143 216.0105,-152.707 216.6122,-153.7311 217.2169,-154.7865 217.8242,-155.8737 218.4332,-156.9926 219.0436,-158.1435 219.6545,-159.3266 220.2654,-160.5419 220.8756,-161.7897 221.4846,-163.07 222.0916,-164.383 222.696,-165.7288 223.2972,-167.1075 223.8946,-168.5191 224.4874,-169.9637 225.0751,-171.4415 224.8798,-172.3568 220.5514,-177.8619 219.7081,-178.2676 218.1334,-178.0452 216.5896,-177.81 215.0769,-177.5626 213.5954,-177.3036 212.145,-177.0338 210.7258,-176.7537 209.3379,-176.4641 207.9814,-176.1655 206.6562,-175.8586 205.3624,-175.5441 204.1,-175.2226 202.8689,-174.8947 201.6692,-174.5611 200.5009,-174.2225 199.3638,-173.8794 198.2579,-173.5326 197.1833,-173.1827 196.1398,-172.8302 195.1273,-172.4759 194.1458,-172.1203 193.1952,-171.7642 192.2753,-171.4081 191.3861,-171.0526 190.5274,-170.6984 189.6991,-170.3462 188.901,-169.9965 188.1329,-169.6499 187.3948,-169.3071 186.6864,-168.9686 186.0076,-168.6351 185.3581,-168.3072 184.7377,-167.9855 184.1463,-167.6705 183.5836,-167.3629 183.0494,-167.0633 182.1778,-167.5336 175.0089,-175.0089 174.5755,-175.8994 174.8972,-176.4207 175.2281,-176.97 175.5675,-177.5477 175.9149,-178.1541 176.2697,-178.7893 176.6313,-179.4536 176.9991,-180.1472 177.3725,-180.8703 177.7509,-181.6232 178.1337,-182.4059 178.5203,-183.2188 178.9101,-184.062 179.3025,-184.9355 179.6968,-185.8397 180.0924,-186.7746 180.4887,-187.7404 180.885,-188.7371 181.2809,-189.765 181.6755,-190.824 182.0683,-191.9144 182.4586,-193.0361 182.8458,-194.1893 183.2293,-195.374 183.6084,-196.5902 183.9824,-197.8381 184.3508,-199.1176 184.7129,-200.4288 185.068,-201.7717 185.4154,-203.1462 185.7546,-204.5524 186.0849,-205.9902 186.4056,-207.4597 186.7161,-208.9607 187.0157,-210.4932 187.3037,-212.0572 186.9337,-212.9168 181.6145,-217.4718 180.7081,-217.7051 179.2071,-217.1798 177.7389,-216.648 176.3036,-216.1102 174.901,-215.5672 173.5311,-215.0196 172.1938,-214.468 170.8891,-213.9132 169.6169,-213.3557 168.3771,-212.7962 167.1695,-212.2353 165.994,-211.6737 164.8506,-211.1119 163.739,-210.5507 162.6592,-209.9906 161.6109,-209.4323 160.5939,-208.8764 159.6082,-208.3236 158.6535,-207.7743 157.7296,-207.2292 156.8364,-206.689 155.9735,-206.1543 155.1408,-205.6256 154.338,-205.1035 153.5649,-204.5886 152.8212,-204.0815 152.1066,-203.5828 151.421,-203.093 150.7639,-202.6128 150.1352,-202.1426 149.5344,-201.6831 148.9614,-201.2348 148.4157,-200.7982 147.8971,-200.3739 147.4052,-199.9625 146.9397,-199.5644 145.9931,-199.8556 137.5036,-205.7887 136.9048,-206.5775 137.1187,-207.1515 137.336,-207.7549 137.5562,-208.3877 137.7786,-209.0502 138.0027,-209.7424 138.2277,-210.4645 138.4532,-211.2165 138.6783,-211.9986 138.9026,-212.8108 139.1253,-213.6532 139.3459,-214.5259 139.5637,-215.4289 139.7781,-216.3622 139.9884,-217.3259 140.194,-218.3201 140.3943,-219.3446 140.5886,-220.3995 140.7763,-221.4848 140.9567,-222.6005 141.1292,-223.7465 141.2932,-224.9229 141.448,-226.1294 141.593,-227.3662 141.7275,-228.633 141.851,-229.9299 141.9626,-231.2567 142.0619,-232.6133 142.1482,-233.9996 142.2209,-235.4155 142.2792,-236.8609 142.3226,-238.3355 142.3505,-239.8393 142.3622,-241.3721 142.357,-242.9336 142.3344,-244.5238 141.8038,-245.2947 135.6982,-248.7243 134.7637,-248.7764 133.394,-247.9683 132.0578,-247.1603 130.7549,-246.3528 129.4852,-245.5466 128.2485,-244.7423 127.0445,-243.9404 125.8732,-243.1417 124.7342,-242.3467 123.6273,-241.5561 122.5523,-240.7704 121.509,-239.9902 120.4971,-239.2162 119.5164,-238.4489 118.5666,-237.689 117.6473,-236.9369 116.7584,-236.1933 115.8995,-235.4587 115.0703,-234.7337 114.2705,-234.0189 113.4998,-233.3148 112.7578,-232.622 112.0442,-231.941 111.3587,-231.2723 110.7009,-230.6165 110.0704,-229.974 109.4669,-229.3455 108.89,-228.7314 108.3392,-228.1322 107.8143,-227.5484 107.3147,-226.9806 106.8402,-226.4291 106.3902,-225.8944 105.9643,-225.3771 105.5621,-224.8776 105.1832,-224.3963 104.198,-224.4973 94.7141,-228.6602 93.9729,-229.317 94.0707,-229.9217 94.1662,-230.5559 94.2587,-231.2195 94.3476,-231.9126 94.4323,-232.6353 94.5121,-233.3874 94.5865,-234.1689 94.6548,-234.9799 94.7163,-235.8203 94.7704,-236.69 94.8165,-237.5889 94.8539,-238.517 94.8821,-239.4742 94.9004,-240.4605 94.9081,-241.4756 94.9047,-242.5195 94.8894,-243.5921 94.8618,-244.6931 94.8211,-245.8226 94.7667,-246.9803 94.698,-248.166 94.6145,-249.3796 94.5154,-250.6208 94.4002,-251.8896 94.2682,-253.1856 94.1189,-254.5087 93.9517,-255.8586 93.7658,-257.2352 93.5608,-258.638 93.3361,-260.067 93.091,-261.5217 92.8249,-263.0021 92.5374,-264.5076 92.2277,-266.0382 91.8953,-267.5934 91.2244,-268.2459 84.567,-270.4185 83.6404,-270.2873 82.4547,-269.2276 81.3018,-268.1743 80.1815,-267.1282 79.0934,-266.0898 78.0374,-265.0597 77.013,-264.0384 76.0199,-263.0265 75.0579,-262.0245 74.1266,-261.0332 73.2255,-260.0528 72.3545,-259.0841 71.5131,-258.1276 70.7009,-257.1837 69.9175,-256.253 69.1627,-255.3361 68.4359,-254.4333 67.7368,-253.5453 67.065,-252.6725 66.42,-251.8154 65.8014,-250.9745 65.2089,-250.1502 64.6419,-249.343 64.1,-248.5535 63.5828,-247.7819 63.0897,-247.0288 62.6204,-246.2946 62.1744,-245.5798 61.7511,-244.8847 61.3502,-244.2097 60.971,-243.5553 60.6132,-242.9218 60.2761,-242.3096 59.9593,-241.7192 59.6623,-241.1508 59.3846,-240.6048 58.3986,-240.5116 48.2849,-242.7444 47.4297,-243.244 47.4077,-243.8561 47.3776,-244.4967 47.3388,-245.1656 47.2908,-245.8628 47.2329,-246.5881 47.1645,-247.3413 47.085,-248.1224 46.9937,-248.9311 46.8901,-249.7673 46.7735,-250.6308 46.6433,-251.5215 46.499,-252.4391 46.3399,-253.3834 46.1654,-254.3542 45.9749,-255.3514 45.7679,-256.3745 45.5437,-257.4235 45.3018,-258.498 45.0415,-259.5979 44.7623,-260.7227 44.4637,-261.8722 44.145,-263.0462 43.8056,-264.2443 43.4451,-265.4662 43.0628,-266.7115 42.6583,-267.9801 42.2309,-269.2714 41.78,-270.5853 41.3053,-271.9212 40.8061,-273.2788 40.2819,-274.6578 39.7322,-276.0578 39.1564,-277.4783 38.5541,-278.9191 37.9247,-280.3795 37.1394,-280.8887 30.1861,-281.7207 29.3028,-281.4113 28.3466,-280.1406 27.4214,-278.8826 26.5267,-277.6381 25.6621,-276.4073 24.8273,-275.1909 24.0219,-273.9894 23.2453,-272.8032 22.4972,-271.6329 21.7772,-270.4789 21.0847,-269.3416 20.4194,-268.2216 19.7808,-267.1192 19.1683,-266.035 18.5816,-264.9694 18.0201,-263.9228 17.4834,-262.8956 16.971,-261.8883 16.4824,-260.9012 16.017,-259.9347 15.5744,-258.9893 15.154,-258.0653 14.7554,-257.163 14.378,-256.2829 14.0212,-255.4252 13.6846,-254.5904 13.3675,-253.7788 13.0695,-252.9907 12.79,-252.2263 12.5284,-251.4861 12.2842,-250.7703 12.0568,-250.0791 11.8456,-249.413 11.6502,-248.7721 11.4698,-248.1567 11.3039,-247.567 10.355,-247.2833 0,-247.5 -0.9362,-247.8232 -1.0772,-248.4193 -1.2317,-249.0417 -1.4002,-249.6902 -1.5833,-250.3646 -1.7816,-251.0646 -1.9956,-251.79 -2.226,-252.5406 -2.4733,-253.3159 -2.7381,-254.1159 -3.0209,-254.9401 -3.3223,-255.7882 -3.6429,-256.66 -3.9832,-257.5552 -4.3437,-258.4733 -4.7251,-259.4141 -5.1277,-260.3772 -5.5522,-261.3623 -5.9992,-262.369 -6.469,-263.3969 -6.9622,-264.4457 -7.4794,-265.5148 -8.021,-266.6041 -8.5876,-267.7129 -9.1796,-268.841 -9.7974,-269.9879 -10.4417,-271.1531 -11.1128,-272.3363 -11.8113,-273.5369 -12.5376,-274.7545 -13.292,-275.9887 -14.0752,-277.239 -14.8875,-278.5048 -15.7293,-279.7857 -16.6011,-281.0812 -17.5034,-282.3909 -18.3729,-282.737 -25.3549,-282.1966 -26.1608,-281.7207 -26.8508,-280.2879 -27.5128,-278.8736 -28.1475,-277.4784 -28.7554,-276.1027 -29.3368,-274.7468 -29.8924,-273.4112 -30.4226,-272.0963 -30.928,-270.8025 -31.409,-269.5302 -31.8663,-268.2797 -32.3004,-267.0514 -32.7117,-265.8456 -33.1009,-264.6628 -33.4684,-263.5032 -33.8149,-262.3672 -34.1409,-261.255 -34.4469,-260.1671 -34.7336,-259.1036 -35.0015,-258.0649 -35.2512,-257.0513 -35.4832,-256.063 -35.6981,-255.1003 -35.8966,-254.1635 -36.0792,-253.2527 -36.2465,-252.3683 -36.3991,-251.5104 -36.5377,-250.6792 -36.6627,-249.8751 -36.7748,-249.098 -36.8747,-248.3483 -36.9629,-247.6261 -37.04,-246.9316 -37.1067,-246.2648 -37.1636,-245.626 -37.2113,-245.0154 -38.0865,-244.552 -48.2849,-242.7444 -49.2661,-242.8787 -49.5207,-243.4358 -49.7937,-244.0161 -50.0855,-244.6193 -50.3966,-245.245 -50.7276,-245.8929 -51.0791,-246.5626 -51.4515,-247.2538 -51.8453,-247.966 -52.261,-248.6989 -52.6992,-249.4521 -53.1603,-250.2252 -53.6448,-251.0177 -54.1532,-251.8292 -54.6859,-252.6594 -55.2434,-253.5077 -55.8263,-254.3738 -56.4348,-255.2571 -57.0695,-256.1573 -57.7309,-257.0738 -58.4192,-258.0061 -59.1351,-258.9539 -59.8788,-259.9165 -60.6508,-260.8936 -61.4515,-261.8845 -62.2812,-262.8888 -63.1404,-263.9059 -64.0295,-264.9354 -64.9488,-265.9767 -65.8986,-267.0293 -66.8794,-268.0925 -67.8914,-269.166 -68.935,-270.249 -70.0106,-271.3411 -71.1184,-272.4416 -72.2588,-273.5501 -73.1791,-273.7199 -79.9216,-271.8277 -80.6192,-271.2038 -81.0163,-269.6639 -81.3897,-268.1477 -81.74,-266.6554 -82.0678,-265.1875 -82.3735,-263.7443 -82.6579,-262.326 -82.9214,-260.9329 -83.1647,-259.5654 -83.3883,-258.2236 -83.5928,-256.908 -83.7789,-255.6186 -83.9471,-254.3558 -84.098,-253.1197 -84.2322,-251.9107 -84.3505,-250.7289 -84.4532,-249.5745 -84.5411,-248.4478 -84.6148,-247.3488 -84.6749,-246.2778 -84.722,-245.235 -84.7568,-244.2204 -84.7798,-243.2343 -84.7917,-242.2767 -84.7931,-241.3478 -84.7847,-240.4478 -84.767,-239.5766 -84.7407,-238.7344 -84.7064,-237.9212 -84.6648,-237.1373 -84.6165,-236.3825 -84.5621,-235.6569 -84.5023,-234.9607 -84.4376,-234.2937 -84.3688,-233.6562 -84.2964,-233.0479 -85.0644,-232.4227 -94.7141,-228.6602 -95.7027,-228.6005 -96.0612,-229.0972 -96.4421,-229.6131 -96.8459,-230.1478 -97.2732,-230.7008 -97.7243,-231.2717 -98.1996,-231.86 -98.6997,-232.4652 -99.2249,-233.0869 -99.7756,-233.7246 -100.3523,-234.3779 -100.9553,-235.0461 -101.5851,-235.7289 -102.2421,-236.4256 -102.9265,-237.1359 -103.6389,-237.8592 -104.3795,-238.5949 -105.1486,-239.3426 -105.9468,-240.1016 -106.7742,-240.8714 -107.6312,-241.6516 -108.5182,-242.4415 -109.4354,-243.2405 -110.3832,-244.0482 -111.3618,-244.8639 -112.3716,-245.687 -113.4127,-246.517 -114.4855,-247.3532 -115.5903,-248.1952 -116.7272,-249.0422 -117.8965,-249.8937 -119.0985,-250.7491 -120.3334,-251.6077 -121.6014,-252.4689 -122.9026,-253.3322 -124.2373,-254.1969 -125.1731,-254.1839 -131.4169,-251.0127 -131.9793,-250.2647 -132.0684,-248.6769 -132.1389,-247.1169 -132.1913,-245.585 -132.2264,-244.0814 -132.2447,-242.6062 -132.2469,-241.1597 -132.2336,-239.742 -132.2054,-238.3533 -132.1629,-236.9937 -132.1068,-235.6634 -132.0378,-234.3625 -131.9564,-233.0911 -131.8633,-231.8494 -131.7591,-230.6374 -131.6445,-229.4553 -131.52,-228.303 -131.3864,-227.1807 -131.2443,-226.0885 -131.0943,-225.0264 -130.9371,-223.9944 -130.7733,-222.9925 -130.6034,-222.0209 -130.4283,-221.0794 -130.2485,-220.1681 -130.0646,-219.2869 -129.8773,-218.436 -129.6872,-217.6151 -129.4949,-216.8243 -129.3012,-216.0634 -129.1066,-215.3326 -128.9117,-214.6316 -128.7171,-213.9604 -128.5236,-213.3189 -128.3317,-212.707 -128.142,-212.1245 -128.7734,-211.3615 -137.5036,-205.7887 -138.4616,-205.5373 -138.91,-205.9546 -139.3843,-206.3863 -139.8847,-206.8319 -140.4116,-207.2909 -140.9654,-207.7628 -141.5464,-208.2471 -142.1549,-208.7431 -142.7913,-209.2504 -143.4559,-209.7684 -144.1489,-210.2966 -144.8707,-210.8343 -145.6216,-211.3811 -146.4019,-211.9364 -147.2117,-212.4995 -148.0515,-213.0699 -148.9214,-213.647 -149.8217,-214.2302 -150.7525,-214.8189 -151.7143,-215.4126 -152.707,-216.0105 -153.7311,-216.6122 -154.7865,-217.2169 -155.8737,-217.8242 -156.9926,-218.4332 -158.1435,-219.0436 -159.3266,-219.6545 -160.5419,-220.2654 -161.7897,-220.8756 -163.07,-221.4846 -164.383,-222.0916 -165.7288,-222.696 -167.1075,-223.2972 -168.5191,-223.8946 -169.9637,-224.4874 -171.4415,-225.0751 -172.3568,-224.8798 -177.8619,-220.5514 -178.2676,-219.7081 -178.0452,-218.1334 -177.81,-216.5896 -177.5626,-215.0769 -177.3036,-213.5954 -177.0338,-212.145 -176.7537,-210.7258 -176.4641,-209.3379 -176.1655,-207.9814 -175.8586,-206.6562 -175.5441,-205.3624 -175.2226,-204.1 -174.8947,-202.8689 -174.5611,-201.6692 -174.2225,-200.5009 -173.8794,-199.3638 -173.5326,-198.2579 -173.1827,-197.1833 -172.8302,-196.1398 -172.4759,-195.1273 -172.1203,-194.1458 -171.7642,-193.1952 -171.4081,-192.2753 -171.0526,-191.3861 -170.6984,-190.5274 -170.3462,-189.6991 -169.9965,-188.901 -169.6499,-188.1329 -169.3071,-187.3948 -168.9686,-186.6864 -168.6351,-186.0076 -168.3072,-185.3581 -167.9855,-184.7377 -167.6705,-184.1463 -167.3629,-183.5836 -167.0633,-183.0494 -167.5336,-182.1778 -175.0089,-175.0089 -175.8994,-174.5755 -176.4207,-174.8972 -176.97,-175.2281 -177.5477,-175.5675 -178.1541,-175.9149 -178.7893,-176.2697 -179.4536,-176.6313 -180.1472,-176.9991 -180.8703,-177.3725 -181.6232,-177.7509 -182.4059,-178.1337 -183.2188,-178.5203 -184.062,-178.9101 -184.9355,-179.3025 -185.8397,-179.6968 -186.7746,-180.0924 -187.7404,-180.4887 -188.7371,-180.885 -189.765,-181.2809 -190.824,-181.6755 -191.9144,-182.0683 -193.0361,-182.4586 -194.1893,-182.8458 -195.374,-183.2293 -196.5902,-183.6084 -197.8381,-183.9824 -199.1176,-184.3508 -200.4288,-184.7129 -201.7717,-185.068 -203.1462,-185.4154 -204.5524,-185.7546 -205.9902,-186.0849 -207.4597,-186.4056 -208.9607,-186.7161 -210.4932,-187.0157 -212.0572,-187.3037 -212.9168,-186.9337 -217.4718,-181.6145 -217.7051,-180.7081 -217.1798,-179.2071 -216.648,-177.7389 -216.1102,-176.3036 -215.5672,-174.901 -215.0196,-173.5311 -214.468,-172.1938 -213.9132,-170.8891 -213.3557,-169.6169 -212.7962,-168.3771 -212.2353,-167.1695 -211.6737,-165.994 -211.1119,-164.8506 -210.5507,-163.739 -209.9906,-162.6592 -209.4323,-161.6109 -208.8764,-160.5939 -208.3236,-159.6082 -207.7743,-158.6535 -207.2292,-157.7296 -206.689,-156.8364 -206.1543,-155.9735 -205.6256,-155.1408 -205.1035,-154.338 -204.5886,-153.5649 -204.0815,-152.8212 -203.5828,-152.1066 -203.093,-151.421 -202.6128,-150.7639 -202.1426,-150.1352 -201.6831,-149.5344 -201.2348,-148.9614 -200.7982,-148.4157 -200.3739,-147.8971 -199.9625,-147.4052 -199.5644,-146.9397 -199.8556,-145.9931 -205.7887,-137.5036 -206.5775,-136.9048 -207.1515,-137.1187 -207.7549,-137.336 -208.3877,-137.5562 -209.0502,-137.7786 -209.7424,-138.0027 -210.4645,-138.2277 -211.2165,-138.4532 -211.9986,-138.6783 -212.8108,-138.9026 -213.6532,-139.1253 -214.5259,-139.3459 -215.4289,-139.5637 -216.3622,-139.7781 -217.3259,-139.9884 -218.3201,-140.194 -219.3446,-140.3943 -220.3995,-140.5886 -221.4848,-140.7763 -222.6005,-140.9567 -223.7465,-141.1292 -224.9229,-141.2932 -226.1294,-141.448 -227.3662,-141.593 -228.633,-141.7275 -229.9299,-141.851 -231.2567,-141.9626 -232.6133,-142.0619 -233.9996,-142.1482 -235.4155,-142.2209 -236.8609,-142.2792 -238.3355,-142.3226 -239.8393,-142.3505 -241.3721,-142.3622 -242.9336,-142.357 -244.5238,-142.3344 -245.2947,-141.8038 -248.7243,-135.6982 -248.7764,-134.7637 -247.9683,-133.394 -247.1603,-132.0578 -246.3528,-130.7549 -245.5466,-129.4852 -244.7423,-128.2485 -243.9404,-127.0445 -243.1417,-125.8732 -242.3467,-124.7342 -241.5561,-123.6273 -240.7704,-122.5523 -239.9902,-121.509 -239.2162,-120.4971 -238.4489,-119.5164 -237.689,-118.5666 -236.9369,-117.6473 -236.1933,-116.7584 -235.4587,-115.8995 -234.7337,-115.0703 -234.0189,-114.2705 -233.3148,-113.4998 -232.622,-112.7578 -231.941,-112.0442 -231.2723,-111.3587 -230.6165,-110.7009 -229.974,-110.0704 -229.3455,-109.4669 -228.7314,-108.89 -228.1322,-108.3392 -227.5484,-107.8143 -226.9806,-107.3147 -226.4291,-106.8402 -225.8944,-106.3902 -225.3771,-105.9643 -224.8776,-105.5621 -224.3963,-105.1832 -224.4973,-104.198 -228.6602,-94.7141 -229.317,-93.9729 -229.9217,-94.0707 -230.5559,-94.1662 -231.2195,-94.2587 -231.9126,-94.3476 -232.6353,-94.4323 -233.3874,-94.5121 -234.1689,-94.5865 -234.9799,-94.6548 -235.8203,-94.7163 -236.69,-94.7704 -237.5889,-94.8165 -238.517,-94.8539 -239.4742,-94.8821 -240.4605,-94.9004 -241.4756,-94.9081 -242.5195,-94.9047 -243.5921,-94.8894 -244.6931,-94.8618 -245.8226,-94.8211 -246.9803,-94.7667 -248.166,-94.698 -249.3796,-94.6145 -250.6208,-94.5154 -251.8896,-94.4002 -253.1856,-94.2682 -254.5087,-94.1189 -255.8586,-93.9517 -257.2352,-93.7658 -258.638,-93.5608 -260.067,-93.3361 -261.5217,-93.091 -263.0021,-92.8249 -264.5076,-92.5374 -266.0382,-92.2277 -267.5934,-91.8953 -268.2459,-91.2244 -270.4185,-84.567 -270.2873,-83.6404 -269.2276,-82.4547 -268.1743,-81.3018 -267.1282,-80.1815 -266.0898,-79.0934 -265.0597,-78.0374 -264.0384,-77.013 -263.0265,-76.0199 -262.0245,-75.0579 -261.0332,-74.1266 -260.0528,-73.2255 -259.0841,-72.3545 -258.1276,-71.5131 -257.1837,-70.7009 -256.253,-69.9175 -255.3361,-69.1627 -254.4333,-68.4359 -253.5453,-67.7368 -252.6725,-67.065 -251.8154,-66.42 -250.9745,-65.8014 -250.1502,-65.2089 -249.343,-64.6419 -248.5535,-64.1 -247.7819,-63.5828 -247.0288,-63.0897 -246.2946,-62.6204 -245.5798,-62.1744 -244.8847,-61.7511 -244.2097,-61.3502 -243.5553,-60.971 -242.9218,-60.6132 -242.3096,-60.2761 -241.7192,-59.9593 -241.1508,-59.6623 -240.6048,-59.3846 -240.5116,-58.3986 -242.7444,-48.2849 -243.244,-47.4297 -243.8561,-47.4077 -244.4967,-47.3776 -245.1656,-47.3388 -245.8628,-47.2908 -246.5881,-47.2329 -247.3413,-47.1645 -248.1224,-47.085 -248.9311,-46.9937 -249.7673,-46.8901 -250.6308,-46.7735 -251.5215,-46.6433 -252.4391,-46.499 -253.3834,-46.3399 -254.3542,-46.1654 -255.3514,-45.9749 -256.3745,-45.7679 -257.4235,-45.5437 -258.498,-45.3018 -259.5979,-45.0415 -260.7227,-44.7623 -261.8722,-44.4637 -263.0462,-44.145 -264.2443,-43.8056 -265.4662,-43.4451 -266.7115,-43.0628 -267.9801,-42.6583 -269.2714,-42.2309 -270.5853,-41.78 -271.9212,-41.3053 -273.2788,-40.8061 -274.6578,-40.2819 -276.0578,-39.7322 -277.4783,-39.1564 -278.9191,-38.5541 -280.3795,-37.9247 -280.8887,-37.1394 -281.7207,-30.1861 -281.4113,-29.3028 -280.1406,-28.3466 -278.8826,-27.4214 -277.6381,-26.5267 -276.4073,-25.6621 -275.1909,-24.8273 -273.9894,-24.0219 -272.8032,-23.2453 -271.6329,-22.4972 -270.4789,-21.7772 -269.3416,-21.0847 -268.2216,-20.4194 -267.1192,-19.7808 -266.035,-19.1683 -264.9694,-18.5816 -263.9228,-18.0201 -262.8956,-17.4834 -261.8883,-16.971 -260.9012,-16.4824 -259.9347,-16.017 -258.9893,-15.5744 -258.0653,-15.154 -257.163,-14.7554 -256.2829,-14.378 -255.4252,-14.0212 -254.5904,-13.6846 -253.7788,-13.3675 -252.9907,-13.0695 -252.2263,-12.79 -251.4861,-12.5284 -250.7703,-12.2842 -250.0791,-12.0568 -249.413,-11.8456 -248.7721,-11.6502 -248.1567,-11.4698 -247.567,-11.3039 -247.2833,-10.355 -247.5,0 -247.8232,0.9362 -248.4193,1.0772 -249.0417,1.2317 -249.6902,1.4002 -250.3646,1.5833 -251.0646,1.7816 -251.79,1.9956 -252.5406,2.226 -253.3159,2.4733 -254.1159,2.7381 -254.9401,3.0209 -255.7882,3.3223 -256.66,3.6429 -257.5552,3.9832 -258.4733,4.3437 -259.4141,4.7251 -260.3772,5.1277 -261.3623,5.5522 -262.369,5.9992 -263.3969,6.469 -264.4457,6.9622 -265.5148,7.4794 -266.6041,8.021 -267.7129,8.5876 -268.841,9.1796 -269.9879,9.7974 -271.1531,10.4417 -272.3363,11.1128 -273.5369,11.8113 -274.7545,12.5376 -275.9887,13.292 -277.239,14.0752 -278.5048,14.8875 -279.7857,15.7293 -281.0812,16.6011 -282.3909,17.5034 -282.737,18.3729 -282.1966,25.3549 -281.7207,26.1608 -280.2879,26.8508 -278.8736,27.5128 -277.4784,28.1475 -276.1027,28.7554 -274.7468,29.3368 -273.4112,29.8924 -272.0963,30.4226 -270.8025,30.928 -269.5302,31.409 -268.2797,31.8663 -267.0514,32.3004 -265.8456,32.7117 -264.6628,33.1009 -263.5032,33.4684 -262.3672,33.8149 -261.255,34.1409 -260.1671,34.4469 -259.1036,34.7336 -258.0649,35.0015 -257.0513,35.2512 -256.063,35.4832 -255.1003,35.6981 -254.1635,35.8966 -253.2527,36.0792 -252.3683,36.2465 -251.5104,36.3991 -250.6792,36.5377 -249.8751,36.6627 -249.098,36.7748 -248.3483,36.8747 -247.6261,36.9629 -246.9316,37.04 -246.2648,37.1067 -245.626,37.1636 -245.0154,37.2113 -244.552,38.0865 -242.7444,48.2849 -242.8787,49.2661 -243.4358,49.5207 -244.0161,49.7937 -244.6193,50.0855 -245.245,50.3966 -245.8929,50.7276 -246.5626,51.0791 -247.2538,51.4515 -247.966,51.8453 -248.6989,52.261 -249.4521,52.6992 -250.2252,53.1603 -251.0177,53.6448 -251.8292,54.1532 -252.6594,54.6859 -253.5077,55.2434 -254.3738,55.8263 -255.2571,56.4348 -256.1573,57.0695 -257.0738,57.7309 -258.0061,58.4192 -258.9539,59.1351 -259.9165,59.8788 -260.8936,60.6508 -261.8845,61.4515 -262.8888,62.2812 -263.9059,63.1404 -264.9354,64.0295 -265.9767,64.9488 -267.0293,65.8986 -268.0925,66.8794 -269.166,67.8914 -270.249,68.935 -271.3411,70.0106 -272.4416,71.1184 -273.5501,72.2588 -273.7199,73.1791 -271.8277,79.9216 -271.2038,80.6192 -269.6639,81.0163 -268.1477,81.3897 -266.6554,81.74 -265.1875,82.0678 -263.7443,82.3735 -262.326,82.6579 -260.9329,82.9214 -259.5654,83.1647 -258.2236,83.3883 -256.908,83.5928 -255.6186,83.7789 -254.3558,83.9471 -253.1197,84.098 -251.9107,84.2322 -250.7289,84.3505 -249.5745,84.4532 -248.4478,84.5411 -247.3488,84.6148 -246.2778,84.6749 -245.235,84.722 -244.2204,84.7568 -243.2343,84.7798 -242.2767,84.7917 -241.3478,84.7931 -240.4478,84.7847 -239.5766,84.767 -238.7344,84.7407 -237.9212,84.7064 -237.1373,84.6648 -236.3825,84.6165 -235.6569,84.5621 -234.9607,84.5023 -234.2937,84.4376 -233.6562,84.3688 -233.0479,84.2964 -232.4227,85.0644 -228.6602,94.7141 -228.6005,95.7027 -229.0972,96.0612 -229.6131,96.4421 -230.1478,96.8459 -230.7008,97.2732 -231.2717,97.7243 -231.86,98.1996 -232.4652,98.6997 -233.0869,99.2249 -233.7246,99.7756 -234.3779,100.3523 -235.0461,100.9553 -235.7289,101.5851 -236.4256,102.2421 -237.1359,102.9265 -237.8592,103.6389 -238.5949,104.3795 -239.3426,105.1486 -240.1016,105.9468 -240.8714,106.7742 -241.6516,107.6312 -242.4415,108.5182 -243.2405,109.4354 -244.0482,110.3832 -244.8639,111.3618 -245.687,112.3716 -246.517,113.4127 -247.3532,114.4855 -248.1952,115.5903 -249.0422,116.7272 -249.8937,117.8965 -250.7491,119.0985 -251.6077,120.3334 -252.4689,121.6014 -253.3322,122.9026 -254.1969,124.2373 -254.1839,125.1731 -251.0127,131.4169 -250.2647,131.9793 -248.6769,132.0684 -247.1169,132.1389 -245.585,132.1913 -244.0814,132.2264 -242.6062,132.2447 -241.1597,132.2469 -239.742,132.2336 -238.3533,132.2054 -236.9937,132.1629 -235.6634,132.1068 -234.3625,132.0378 -233.0911,131.9564 -231.8494,131.8633 -230.6374,131.7591 -229.4553,131.6445 -228.303,131.52 -227.1807,131.3864 -226.0885,131.2443 -225.0264,131.0943 -223.9944,130.9371 -222.9925,130.7733 -222.0209,130.6034 -221.0794,130.4283 -220.1681,130.2485 -219.2869,130.0646 -218.436,129.8773 -217.6151,129.6872 -216.8243,129.4949 -216.0634,129.3012 -215.3326,129.1066 -214.6316,128.9117 -213.9604,128.7171 -213.3189,128.5236 -212.707,128.3317 -212.1245,128.142 -211.3615,128.7734 -205.7887,137.5036 -205.5373,138.4616 -205.9546,138.91 -206.3863,139.3843 -206.8319,139.8847 -207.2909,140.4116 -207.7628,140.9654 -208.2471,141.5464 -208.7431,142.1549 -209.2504,142.7913 -209.7684,143.4559 -210.2966,144.1489 -210.8343,144.8707 -211.3811,145.6216 -211.9364,146.4019 -212.4995,147.2117 -213.0699,148.0515 -213.647,148.9214 -214.2302,149.8217 -214.8189,150.7525 -215.4126,151.7143 -216.0105,152.707 -216.6122,153.7311 -217.2169,154.7865 -217.8242,155.8737 -218.4332,156.9926 -219.0436,158.1435 -219.6545,159.3266 -220.2654,160.5419 -220.8756,161.7897 -221.4846,163.07 -222.0916,164.383 -222.696,165.7288 -223.2972,167.1075 -223.8946,168.5191 -224.4874,169.9637 -225.0751,171.4415 -224.8798,172.3568 -220.5514,177.8619 -219.7081,178.2676 -218.1334,178.0452 -216.5896,177.81 -215.0769,177.5626 -213.5954,177.3036 -212.145,177.0338 -210.7258,176.7537 -209.3379,176.4641 -207.9814,176.1655 -206.6562,175.8586 -205.3624,175.5441 -204.1,175.2226 -202.8689,174.8947 -201.6692,174.5611 -200.5009,174.2225 -199.3638,173.8794 -198.2579,173.5326 -197.1833,173.1827 -196.1398,172.8302 -195.1273,172.4759 -194.1458,172.1203 -193.1952,171.7642 -192.2753,171.4081 -191.3861,171.0526 -190.5274,170.6984 -189.6991,170.3462 -188.901,169.9965 -188.1329,169.6499 -187.3948,169.3071 -186.6864,168.9686 -186.0076,168.6351 -185.3581,168.3072 -184.7377,167.9855 -184.1463,167.6705 -183.5836,167.3629 -183.0494,167.0633 -182.1778,167.5336 -175.0089,175.0089 -174.5755,175.8994 -174.8972,176.4207 -175.2281,176.97 -175.5675,177.5477 -175.9149,178.1541 -176.2697,178.7893 -176.6313,179.4536 -176.9991,180.1472 -177.3725,180.8703 -177.7509,181.6232 -178.1337,182.4059 -178.5203,183.2188 -178.9101,184.062 -179.3025,184.9355 -179.6968,185.8397 -180.0924,186.7746 -180.4887,187.7404 -180.885,188.7371 -181.2809,189.765 -181.6755,190.824 -182.0683,191.9144 -182.4586,193.0361 -182.8458,194.1893 -183.2293,195.374 -183.6084,196.5902 -183.9824,197.8381 -184.3508,199.1176 -184.7129,200.4288 -185.068,201.7717 -185.4154,203.1462 -185.7546,204.5524 -186.0849,205.9902 -186.4056,207.4597 -186.7161,208.9607 -187.0157,210.4932 -187.3037,212.0572 -186.9337,212.9168 -181.6145,217.4718 -180.7081,217.7051 -179.2071,217.1798 -177.7389,216.648 -176.3036,216.1102 -174.901,215.5672 -173.5311,215.0196 -172.1938,214.468 -170.8891,213.9132 -169.6169,213.3557 -168.3771,212.7962 -167.1695,212.2353 -165.994,211.6737 -164.8506,211.1119 -163.739,210.5507 -162.6592,209.9906 -161.6109,209.4323 -160.5939,208.8764 -159.6082,208.3236 -158.6535,207.7743 -157.7296,207.2292 -156.8364,206.689 -155.9735,206.1543 -155.1408,205.6256 -154.338,205.1035 -153.5649,204.5886 -152.8212,204.0815 -152.1066,203.5828 -151.421,203.093 -150.7639,202.6128 -150.1352,202.1426 -149.5344,201.6831 -148.9614,201.2348 -148.4157,200.7982 -147.8971,200.3739 -147.4052,199.9625 -146.9397,199.5644 -145.9931,199.8556 -137.5036,205.7887 -136.9048,206.5775 -137.1187,207.1515 -137.336,207.7549 -137.5562,208.3877 -137.7786,209.0502 -138.0027,209.7424 -138.2277,210.4645 -138.4532,211.2165 -138.6783,211.9986 -138.9026,212.8108 -139.1253,213.6532 -139.3459,214.5259 -139.5637,215.4289 -139.7781,216.3622 -139.9884,217.3259 -140.194,218.3201 -140.3943,219.3446 -140.5886,220.3995 -140.7763,221.4848 -140.9567,222.6005 -141.1292,223.7465 -141.2932,224.9229 -141.448,226.1294 -141.593,227.3662 -141.7275,228.633 -141.851,229.9299 -141.9626,231.2567 -142.0619,232.6133 -142.1482,233.9996 -142.2209,235.4155 -142.2792,236.8609 -142.3226,238.3355 -142.3505,239.8393 -142.3622,241.3721 -142.357,242.9336 -142.3344,244.5238 -141.8038,245.2947 -135.6982,248.7243 -134.7637,248.7764 -133.394,247.9683 -132.0578,247.1603 -130.7549,246.3528 -129.4852,245.5466 -128.2485,244.7423 -127.0445,243.9404 -125.8732,243.1417 -124.7342,242.3467 -123.6273,241.5561 -122.5523,240.7704 -121.509,239.9902 -120.4971,239.2162 -119.5164,238.4489 -118.5666,237.689 -117.6473,236.9369 -116.7584,236.1933 -115.8995,235.4587 -115.0703,234.7337 -114.2705,234.0189 -113.4998,233.3148 -112.7578,232.622 -112.0442,231.941 -111.3587,231.2723 -110.7009,230.6165 -110.0704,229.974 -109.4669,229.3455 -108.89,228.7314 -108.3392,228.1322 -107.8143,227.5484 -107.3147,226.9806 -106.8402,226.4291 -106.3902,225.8944 -105.9643,225.3771 -105.5621,224.8776 -105.1832,224.3963 -104.198,224.4973 -94.7141,228.6602 -93.9729,229.317 -94.0707,229.9217 -94.1662,230.5559 -94.2587,231.2195 -94.3476,231.9126 -94.4323,232.6353 -94.5121,233.3874 -94.5865,234.1689 -94.6548,234.9799 -94.7163,235.8203 -94.7704,236.69 -94.8165,237.5889 -94.8539,238.517 -94.8821,239.4742 -94.9004,240.4605 -94.9081,241.4756 -94.9047,242.5195 -94.8894,243.5921 -94.8618,244.6931 -94.8211,245.8226 -94.7667,246.9803 -94.698,248.166 -94.6145,249.3796 -94.5154,250.6208 -94.4002,251.8896 -94.2682,253.1856 -94.1189,254.5087 -93.9517,255.8586 -93.7658,257.2352 -93.5608,258.638 -93.3361,260.067 -93.091,261.5217 -92.8249,263.0021 -92.5374,264.5076 -92.2277,266.0382 -91.8953,267.5934 -91.2244,268.2459 -84.567,270.4185 -83.6404,270.2873 -82.4547,269.2276 -81.3018,268.1743 -80.1815,267.1282 -79.0934,266.0898 -78.0374,265.0597 -77.013,264.0384 -76.0199,263.0265 -75.0579,262.0245 -74.1266,261.0332 -73.2255,260.0528 -72.3545,259.0841 -71.5131,258.1276 -70.7009,257.1837 -69.9175,256.253 -69.1627,255.3361 -68.4359,254.4333 -67.7368,253.5453 -67.065,252.6725 -66.42,251.8154 -65.8014,250.9745 -65.2089,250.1502 -64.6419,249.343 -64.1,248.5535 -63.5828,247.7819 -63.0897,247.0288 -62.6204,246.2946 -62.1744,245.5798 -61.7511,244.8847 -61.3502,244.2097 -60.971,243.5553 -60.6132,242.9218 -60.2761,242.3096 -59.9593,241.7192 -59.6623,241.1508 -59.3846,240.6048 -58.3986,240.5116 -48.2849,242.7444 -47.4297,243.244 -47.4077,243.8561 -47.3776,244.4967 -47.3388,245.1656 -47.2908,245.8628 -47.2329,246.5881 -47.1645,247.3413 -47.085,248.1224 -46.9937,248.9311 -46.8901,249.7673 -46.7735,250.6308 -46.6433,251.5215 -46.499,252.4391 -46.3399,253.3834 -46.1654,254.3542 -45.9749,255.3514 -45.7679,256.3745 -45.5437,257.4235 -45.3018,258.498 -45.0415,259.5979 -44.7623,260.7227 -44.4637,261.8722 -44.145,263.0462 -43.8056,264.2443 -43.4451,265.4662 -43.0628,266.7115 -42.6583,267.9801 -42.2309,269.2714 -41.78,270.5853 -41.3053,271.9212 -40.8061,273.2788 -40.2819,274.6578 -39.7322,276.0578 -39.1564,277.4783 -38.5541,278.9191 -37.9247,280.3795 -37.1394,280.8887 -30.1861,281.7207 -29.3028,281.4113 -28.3466,280.1406 -27.4214,278.8826 -26.5267,277.6381 -25.6621,276.4073 -24.8273,275.1909 -24.0219,273.9894 -23.2453,272.8032 -22.4972,271.6329 -21.7772,270.4789 -21.0847,269.3416 -20.4194,268.2216 -19.7808,267.1192 -19.1683,266.035 -18.5816,264.9694 -18.0201,263.9228 -17.4834,262.8956 -16.971,261.8883 -16.4824,260.9012 -16.017,259.9347 -15.5744,258.9893 -15.154,258.0653 -14.7554,257.163 -14.378,256.2829 -14.0212,255.4252 -13.6846,254.5904 -13.3675,253.7788 -13.0695,252.9907 -12.79,252.2263 -12.5284,251.4861 -12.2842,250.7703 -12.0568,250.0791 -11.8456,249.413 -11.6502,248.7721 -11.4698,248.1567 -11.3039,247.567 -10.355,247.2833 0,247.5 0.9362,247.8232 1.0772,248.4193 1.2317,249.0417 1.4002,249.6902 1.5833,250.3646 1.7816,251.0646 1.9956,251.79 2.226,252.5406 2.4733,253.3159 2.7381,254.1159 3.0209,254.9401 3.3223,255.7882 3.6429,256.66 3.9832,257.5552 4.3437,258.4733 4.7251,259.4141 5.1277,260.3772 5.5522,261.3623 5.9992,262.369 6.469,263.3969 6.9622,264.4457 7.4794,265.5148 8.021,266.6041 8.5876,267.7129 9.1796,268.841 9.7974,269.9879 10.4417,271.1531 11.1128,272.3363 11.8113,273.5369 12.5376,274.7545 13.292,275.9887 14.0752,277.239 14.8875,278.5048 15.7293,279.7857 16.6011,281.0812 17.5034,282.3909 18.3729,282.737 25.3549,282.1966 26.1608,281.7207 26.8508,280.2879 27.5128,278.8736 28.1475,277.4784 28.7554,276.1027 29.3368,274.7468 29.8924,273.4112 30.4226,272.0963 30.928,270.8025 31.409,269.5302 31.8663,268.2797 32.3004,267.0514 32.7117,265.8456 33.1009,264.6628 33.4684,263.5032 33.8149,262.3672 34.1409,261.255 34.4469,260.1671 34.7336,259.1036 35.0015,258.0649 35.2512,257.0513 35.4832,256.063 35.6981,255.1003 35.8966,254.1635 36.0792,253.2527 36.2465,252.3683 36.3991,251.5104 36.5377,250.6792 36.6627,249.8751 36.7748,249.098 36.8747,248.3483 36.9629,247.6261 37.04,246.9316 37.1067,246.2648 37.1636,245.626 37.2113,245.0154 38.0865,244.552 48.2849,242.7444 49.2661,242.8787 49.5207,243.4358 49.7937,244.0161 50.0855,244.6193 50.3966,245.245 50.7276,245.8929 51.0791,246.5626 51.4515,247.2538 51.8453,247.966 52.261,248.6989 52.6992,249.4521 53.1603,250.2252 53.6448,251.0177 54.1532,251.8292 54.6859,252.6594 55.2434,253.5077 55.8263,254.3738 56.4348,255.2571 57.0695,256.1573 57.7309,257.0738 58.4192,258.0061 59.1351,258.9539 59.8788,259.9165 60.6508,260.8936 61.4515,261.8845 62.2812,262.8888 63.1404,263.9059 64.0295,264.9354 64.9488,265.9767 65.8986,267.0293 66.8794,268.0925 67.8914,269.166 68.935,270.249 70.0106,271.3411 71.1184,272.4416 72.2588,273.5501 73.1791,273.7199 79.9216,271.8277 80.6192,271.2038 81.0163,269.6639 81.3897,268.1477 81.74,266.6554 82.0678,265.1875 82.3735,263.7443 82.6579,262.326 82.9214,260.9329 83.1647,259.5654 83.3883,258.2236 83.5928,256.908 83.7789,255.6186 83.9471,254.3558 84.098,253.1197 84.2322,251.9107 84.3505,250.7289 84.4532,249.5745 84.5411,248.4478 84.6148,247.3488 84.6749,246.2778 84.722,245.235 84.7568,244.2204 84.7798,243.2343 84.7917,242.2767 84.7931,241.3478 84.7847,240.4478 84.767,239.5766 84.7407,238.7344 84.7064,237.9212 84.6648,237.1373 84.6165,236.3825 84.5621,235.6569 84.5023,234.9607 84.4376,234.2937 84.3688,233.6562 84.2964,233.0479 85.0644,232.4227 94.7141,228.6602 95.7027,228.6005 96.0612,229.0972 96.4421,229.6131 96.8459,230.1478 97.2732,230.7008 97.7243,231.2717 98.1996,231.86 98.6997,232.4652 99.2249,233.0869 99.7756,233.7246 100.3523,234.3779 100.9553,235.0461 101.5851,235.7289 102.2421,236.4256 102.9265,237.1359 103.6389,237.8592 104.3795,238.5949 105.1486,239.3426 105.9468,240.1016 106.7742,240.8714 107.6312,241.6516 108.5182,242.4415 109.4354,243.2405 110.3832,244.0482 111.3618,244.8639 112.3716,245.687 113.4127,246.517 114.4855,247.3532 115.5903,248.1952 116.7272,249.0422 117.8965,249.8937 119.0985,250.7491 120.3334,251.6077 121.6014,252.4689 122.9026,253.3322 124.2373,254.1969 125.1731,254.1839 131.4169,251.0127 131.9793,250.2647 132.0684,248.6769 132.1389,247.1169 132.1913,245.585 132.2264,244.0814 132.2447,242.6062 132.2469,241.1597 132.2336,239.742 132.2054,238.3533 132.1629,236.9937 132.1068,235.6634 132.0378,234.3625 131.9564,233.0911 131.8633,231.8494 131.7591,230.6374 131.6445,229.4553 131.52,228.303 131.3864,227.1807 131.2443,226.0885 131.0943,225.0264 130.9371,223.9944 130.7733,222.9925 130.6034,222.0209 130.4283,221.0794 130.2485,220.1681 130.0646,219.2869 129.8773,218.436 129.6872,217.6151 129.4949,216.8243 129.3012,216.0634 129.1066,215.3326 128.9117,214.6316 128.7171,213.9604 128.5236,213.3189 128.3317,212.707 128.142,212.1245 128.7734,211.3615 137.5036,205.7887 138.4616,205.5373 138.91,205.9546 139.3843,206.3863 139.8847,206.8319 140.4116,207.2909 140.9654,207.7628 141.5464,208.2471 142.1549,208.7431 142.7913,209.2504 143.4559,209.7684 144.1489,210.2966 144.8707,210.8343 145.6216,211.3811 146.4019,211.9364 147.2117,212.4995 148.0515,213.0699 148.9214,213.647 149.8217,214.2302 150.7525,214.8189 151.7143,215.4126 152.707,216.0105 153.7311,216.6122 154.7865,217.2169 155.8737,217.8242 156.9926,218.4332 158.1435,219.0436 159.3266,219.6545 160.5419,220.2654 161.7897,220.8756 163.07,221.4846 164.383,222.0916 165.7288,222.696 167.1075,223.2972 168.5191,223.8946 169.9637,224.4874 171.4415,225.0751 172.3568,224.8798 177.8619,220.5514 178.2676,219.7081 178.0452,218.1334 177.81,216.5896 177.5626,215.0769 177.3036,213.5954 177.0338,212.145 176.7537,210.7258 176.4641,209.3379 176.1655,207.9814 175.8586,206.6562 175.5441,205.3624 175.2226,204.1 174.8947,202.8689 174.5611,201.6692 174.2225,200.5009 173.8794,199.3638 173.5326,198.2579 173.1827,197.1833 172.8302,196.1398 172.4759,195.1273 172.1203,194.1458 171.7642,193.1952 171.4081,192.2753 171.0526,191.3861 170.6984,190.5274 170.3462,189.6991 169.9965,188.901 169.6499,188.1329 169.3071,187.3948 168.9686,186.6864 168.6351,186.0076 168.3072,185.3581 167.9855,184.7377 167.6705,184.1463 167.3629,183.5836 167.0633,183.0494 167.5336,182.1778 175.0089,175.0089 175.8994,174.5755 176.4207,174.8972 176.97,175.2281 177.5477,175.5675 178.1541,175.9149 178.7893,176.2697 179.4536,176.6313 180.1472,176.9991 180.8703,177.3725 181.6232,177.7509 182.4059,178.1337 183.2188,178.5203 184.062,178.9101 184.9355,179.3025 185.8397,179.6968 186.7746,180.0924 187.7404,180.4887 188.7371,180.885 189.765,181.2809 190.824,181.6755 191.9144,182.0683 193.0361,182.4586 194.1893,182.8458 195.374,183.2293 196.5902,183.6084 197.8381,183.9824 199.1176,184.3508 200.4288,184.7129 201.7717,185.068 203.1462,185.4154 204.5524,185.7546 205.9902,186.0849 207.4597,186.4056 208.9607,186.7161 210.4932,187.0157 212.0572,187.3037 212.9168,186.9337 217.4718,181.6145 217.7051,180.7081 217.1798,179.2071 216.648,177.7389 216.1102,176.3036 215.5672,174.901 215.0196,173.5311 214.468,172.1938 213.9132,170.8891 213.3557,169.6169 212.7962,168.3771 212.2353,167.1695 211.6737,165.994 211.1119,164.8506 210.5507,163.739 209.9906,162.6592 209.4323,161.6109 208.8764,160.5939 208.3236,159.6082 207.7743,158.6535 207.2292,157.7296 206.689,156.8364 206.1543,155.9735 205.6256,155.1408 205.1035,154.338 204.5886,153.5649 204.0815,152.8212 203.5828,152.1066 203.093,151.421 202.6128,150.7639 202.1426,150.1352 201.6831,149.5344 201.2348,148.9614 200.7982,148.4157 200.3739,147.8971 199.9625,147.4052 199.5644,146.9397 199.8556,145.9931 205.7887,137.5036 206.5775,136.9048 207.1515,137.1187 207.7549,137.336 208.3877,137.5562 209.0502,137.7786 209.7424,138.0027 210.4645,138.2277 211.2165,138.4532 211.9986,138.6783 212.8108,138.9026 213.6532,139.1253 214.5259,139.3459 215.4289,139.5637 216.3622,139.7781 217.3259,139.9884 218.3201,140.194 219.3446,140.3943 220.3995,140.5886 221.4848,140.7763 222.6005,140.9567 223.7465,141.1292 224.9229,141.2932 226.1294,141.448 227.3662,141.593 228.633,141.7275 229.9299,141.851 231.2567,141.9626 232.6133,142.0619 233.9996,142.1482 235.4155,142.2209 236.8609,142.2792 238.3355,142.3226 239.8393,142.3505 241.3721,142.3622 242.9336,142.357 244.5238,142.3344 245.2947,141.8038 248.7243,135.6982 248.7764,134.7637 247.9683,133.394 247.1603,132.0578 246.3528,130.7549 245.5466,129.4852 244.7423,128.2485 243.9404,127.0445 243.1417,125.8732 242.3467,124.7342 241.5561,123.6273 240.7704,122.5523 239.9902,121.509 239.2162,120.4971 238.4489,119.5164 237.689,118.5666 236.9369,117.6473 236.1933,116.7584 235.4587,115.8995 234.7337,115.0703 234.0189,114.2705 233.3148,113.4998 232.622,112.7578 231.941,112.0442 231.2723,111.3587 230.6165,110.7009 229.974,110.0704 229.3455,109.4669 228.7314,108.89 228.1322,108.3392 227.5484,107.8143 226.9806,107.3147 226.4291,106.8402 225.8944,106.3902 225.3771,105.9643 224.8776,105.5621 224.3963,105.1832 224.4973,104.198 228.6602,94.7141 229.317,93.9729 229.9217,94.0707 230.5559,94.1662 231.2195,94.2587 231.9126,94.3476 232.6353,94.4323 233.3874,94.5121 234.1689,94.5865 234.9799,94.6548 235.8203,94.7163 236.69,94.7704 237.5889,94.8165 238.517,94.8539 239.4742,94.8821 240.4605,94.9004 241.4756,94.9081 242.5195,94.9047 243.5921,94.8894 244.6931,94.8618 245.8226,94.8211 246.9803,94.7667 248.166,94.698 249.3796,94.6145 250.6208,94.5154 251.8896,94.4002 253.1856,94.2682 254.5087,94.1189 255.8586,93.9517 257.2352,93.7658 258.638,93.5608 260.067,93.3361 261.5217,93.091 263.0021,92.8249 264.5076,92.5374 266.0382,92.2277 267.5934,91.8953 268.2459,91.2244 270.4185,84.567 270.2873,83.6404 269.2276,82.4547 268.1743,81.3018 267.1282,80.1815 266.0898,79.0934 265.0597,78.0374 264.0384,77.013 263.0265,76.0199 262.0245,75.0579 261.0332,74.1266 260.0528,73.2255 259.0841,72.3545 258.1276,71.5131 257.1837,70.7009 256.253,69.9175 255.3361,69.1627 254.4333,68.4359 253.5453,67.7368 252.6725,67.065 251.8154,66.42 250.9745,65.8014 250.1502,65.2089 249.343,64.6419 248.5535,64.1 247.7819,63.5828 247.0288,63.0897 246.2946,62.6204 245.5798,62.1744 244.8847,61.7511 244.2097,61.3502 243.5553,60.971 242.9218,60.6132 242.3096,60.2761 241.7192,59.9593 241.1508,59.6623 240.6048,59.3846 240.5116,58.3986 242.7444,48.2849 243.244,47.4297 243.8561,47.4077 244.4967,47.3776 245.1656,47.3388 245.8628,47.2908 246.5881,47.2329 247.3413,47.1645 248.1224,47.085 248.9311,46.9937 249.7673,46.8901 250.6308,46.7735 251.5215,46.6433 252.4391,46.499 253.3834,46.3399 254.3542,46.1654 255.3514,45.9749 256.3745,45.7679 257.4235,45.5437 258.498,45.3018 259.5979,45.0415 260.7227,44.7623 261.8722,44.4637 263.0462,44.145 264.2443,43.8056 265.4662,43.4451 266.7115,43.0628 267.9801,42.6583 269.2714,42.2309 270.5853,41.78 271.9212,41.3053 273.2788,40.8061 274.6578,40.2819 276.0578,39.7322 277.4783,39.1564 278.9191,38.5541 280.3795,37.9247 280.8887,37.1394 281.7207,30.1861 281.4113,29.3028 280.1406,28.3466 278.8826,27.4214 277.6381,26.5267 276.4073,25.6621 275.1909,24.8273 273.9894,24.0219 272.8032,23.2453 271.6329,22.4972 270.4789,21.7772 269.3416,21.0847 268.2216,20.4194 267.1192,19.7808 266.035,19.1683 264.9694,18.5816 263.9228,18.0201 262.8956,17.4834 261.8883,16.971 260.9012,16.4824 259.9347,16.017 258.9893,15.5744 258.0653,15.154 257.163,14.7554 256.2829,14.378 255.4252,14.0212 254.5904,13.6846 253.7788,13.3675 252.9907,13.0695 252.2263,12.79 251.4861,12.5284 250.7703,12.2842 250.0791,12.0568 249.413,11.8456 248.7721,11.6502 248.1567,11.4698 247.567,11.3039 247.2833,10.355 "/><g class="guides"><polyline fill="none" stroke="#444" stroke-width="0.5" stroke-miterlimit="10" points="10,0 -10,0"/><polyline fill="none" stroke="#444" stroke-width="0.5" stroke-miterlimit="10" points="0,10 0,-10"/></g><circle fill="#c00" class="firstmarker" stroke="none" stroke-miterlimit="10" cx="265.8714" cy="-20.5794" r="6.5417"/><g class="geartext"><g class="text"><polyline fill="none" stroke="#444" stroke-width="0.5" stroke-linecap="square" stroke-miterlimit="1"  points="101.98 -192.11 99.32 -193.5 96.65 -194.85 93.95 -196.16 91.24 -197.44 "/><polyline fill="none" stroke="#444" stroke-width="0.5" stroke-linecap="square" stroke-miterlimit="1"  points="93.98 -189.47 99.31 -200.22 "/><polyline fill="none" stroke="#444" stroke-width="0.5" stroke-linecap="square" stroke-miterlimit="1"  points="104.8 -197.41 100.69 -196.17 96.65 -194.85 92.65 -193.46 88.72 -191.99 "/><polyline fill="none" stroke="#444" stroke-width="0.5" stroke-linecap="square" stroke-miterlimit="1"  points="99.17 -186.81 97.95 -190.83 96.65 -194.85 95.25 -198.87 93.75 -202.89 "/><polyline fill="none" stroke="#444" stroke-width="0.5" stroke-linecap="square" stroke-miterlimit="1"  points="111.81 -179.53 107.77 -178.49 105.3 -179.96 104.29 -184 110.2 -194.44 114.39 -195.49 117.07 -193.9 118.15 -189.72 111.81 -179.53 "/><polyline fill="none" stroke="#444" stroke-width="0.5" stroke-linecap="square" stroke-miterlimit="1"  points="147.42 -171.96 135.71 -158.29 136.39 -163.6 136.96 -168.97 137.4 -174.37 137.71 -179.82 126.77 -165.53 "/><polyline fill="none" stroke="#444" stroke-width="0.5" stroke-linecap="square" stroke-miterlimit="1"  points="156.86 -154.96 154.71 -157.11 152.53 -159.23 150.32 -161.32 148.08 -163.38 "/><polyline fill="none" stroke="#444" stroke-width="0.5" stroke-linecap="square" stroke-miterlimit="1"  points="152.59 -150.75 150.5 -152.84 148.38 -154.9 146.23 -156.93 144.05 -158.93 "/><polyline fill="none" stroke="#444" stroke-width="0.5" stroke-linecap="square" stroke-miterlimit="1"  points="163.27 -152.63 167.58 -152.38 169.66 -150.05 171.72 -147.7 171.44 -143.39 169.14 -141.47 164.89 -141.83 164.53 -137.62 162.23 -135.69 158.07 -135.96 156.18 -138.13 154.26 -140.27 154.5 -144.43 "/><polyline fill="none" stroke="#444" stroke-width="0.5" stroke-linecap="square" stroke-miterlimit="1"  points="162.92 -144.09 164.89 -141.83 "/><polyline fill="none" stroke="#444" stroke-width="0.5" stroke-linecap="square" stroke-miterlimit="1"  points="170.44 -120.09 168.77 -122.43 167.07 -124.75 165.33 -127.04 163.56 -129.31 168.27 -133.03 172.47 -132.52 174.28 -130.13 176.05 -127.71 180.25 -127 182.7 -128.73 183.34 -133 181.49 -135.52 179.6 -138.01 175.33 -138.61 "/><polyline fill="none" stroke="#444" stroke-width="0.5" stroke-linecap="square" stroke-miterlimit="1"  points="189.05 -107.55 190.51 -104.93 191.94 -102.29 193.34 -99.64 197.38 -98.3 200.06 -99.64 201.34 -103.76 199.89 -106.53 198.4 -109.27 196.87 -112 181.23 -103.1 "/><polyline fill="none" stroke="#444" stroke-width="0.5" stroke-linecap="square" stroke-miterlimit="1"  points="189.13 -87.77 200.01 -92.82 "/><polyline fill="none" stroke="#444" stroke-width="0.5" stroke-linecap="square" stroke-miterlimit="1"  points="202.73 -94.08 205.46 -95.34 "/><polyline fill="none" stroke="#444" stroke-width="0.5" stroke-linecap="square" stroke-miterlimit="1"  points="198.55 -72.87 194.73 -74.52 196.47 -78.31 210.4 -83.87 "/><polyline fill="none" stroke="#444" stroke-width="0.5" stroke-linecap="square" stroke-miterlimit="1"  points="207 -75.97 205.93 -78.81 204.83 -81.65 203.68 -84.46 202.5 -87.27 "/><polyline fill="none" stroke="#444" stroke-width="0.5" stroke-linecap="square" stroke-miterlimit="1"  points="201 -55.41 200.22 -58.17 199.4 -60.93 198.54 -63.67 200.49 -67.36 206.17 -69.27 209.97 -67.34 210.88 -64.44 211.74 -61.52 212.57 -58.59 "/><polyline fill="none" stroke="#444" stroke-width="0.5" stroke-linecap="square" stroke-miterlimit="1"  points="208.28 -51.27 211.89 -49.07 215.48 -46.78 216.1 -43.81 213.74 -40.27 204.9 -38.6 "/><polyline fill="none" stroke="#444" stroke-width="0.5" stroke-linecap="square" stroke-miterlimit="1"  points="202.46 -49.84 219.93 -54.14 "/><polyline fill="none" stroke="#444" stroke-width="0.5" stroke-linecap="square" stroke-miterlimit="1"  points="207.66 -18.67 207.9 -15.8 208.1 -12.93 208.26 -10.06 211.37 -7.29 223.37 -7.71 226.24 -10.93 226.06 -14.05 225.85 -17.17 225.59 -20.28 "/><polyline fill="none" stroke="#444" stroke-width="0.5" stroke-linecap="square" stroke-miterlimit="1"  points="225.85 -17.17 207.9 -15.8 "/><polyline fill="none" stroke="#444" stroke-width="0.5" stroke-linecap="square" stroke-miterlimit="1"  points="220.24 10.64 220.37 7.6 220.45 4.56 220.49 1.52 220.49 -1.52 "/><polyline fill="none" stroke="#444" stroke-width="0.5" stroke-linecap="square" stroke-miterlimit="1"  points="214.25 10.35 214.37 7.4 214.45 4.44 214.49 1.48 214.49 -1.48 "/><polyline fill="none" stroke="#444" stroke-width="0.5" stroke-linecap="square" stroke-miterlimit="1"  points="224.56 29.59 224.95 26.49 225.29 23.39 225.59 20.28 225.85 17.17 219.87 16.71 219.61 19.74 219.32 22.77 218.99 25.79 215.64 28.42 209.69 27.63 207.07 24.39 207.39 21.53 207.66 18.67 210.89 16.03 "/><polyline fill="none" stroke="#444" stroke-width="0.5" stroke-linecap="square" stroke-miterlimit="1"  points="208.84 33.41 205.88 32.93 "/><polyline fill="none" stroke="#444" stroke-width="0.5" stroke-linecap="square" stroke-miterlimit="1"  points="219.64 41.38 221.99 45 221.34 48.06 220.66 51.1 217.02 53.43 214.11 52.71 211.89 49.07 208.28 51.27 205.37 50.56 203.12 47.04 203.75 44.24 204.34 41.42 207.84 39.16 "/><polyline fill="none" stroke="#444" stroke-width="0.5" stroke-linecap="square" stroke-miterlimit="1"  points="212.55 46.15 211.89 49.07 "/><polyline fill="none" stroke="#444" stroke-width="0.5" stroke-linecap="square" stroke-miterlimit="1"  points="215.46 59.39 217.51 63.19 216.61 66.19 215.68 69.17 211.86 71.18 209.02 70.23 207.11 66.42 203.33 68.32 200.49 67.36 198.54 63.67 199.4 60.93 200.22 58.17 203.9 56.2 "/><polyline fill="none" stroke="#444" stroke-width="0.5" stroke-linecap="square" stroke-miterlimit="1"  points="208.01 63.56 207.11 66.42 "/><polyline fill="none" stroke="#444" stroke-width="0.5" stroke-linecap="square" stroke-miterlimit="1"  points="198.54 88.82 197.29 91.55 196.01 94.27 194.69 96.96 196 101.01 198.67 102.39 202.75 100.97 204.12 98.17 205.46 95.34 206.75 92.5 190.32 85.15 "/><polyline fill="none" stroke="#444" stroke-width="0.5" stroke-linecap="square" stroke-miterlimit="1"  points="186.98 116.87 188.58 114.28 190.13 111.67 191.66 109.03 193.14 106.38 "/><polyline fill="none" stroke="#444" stroke-width="0.5" stroke-linecap="square" stroke-miterlimit="1"  points="181.89 113.69 183.44 111.17 184.96 108.63 186.44 106.07 187.89 103.49 "/><polyline fill="none" stroke="#444" stroke-width="0.5" stroke-linecap="square" stroke-miterlimit="1"  points="181.19 120.32 179.51 122.81 177.8 125.27 176.05 127.71 171.87 128.34 169.47 126.54 168.77 122.43 170.44 120.09 172.08 117.73 176.19 117 183.69 121.98 184.46 126.2 185.16 130.46 183.34 133 "/><polyline fill="none" stroke="#444" stroke-width="0.5" stroke-linecap="square" stroke-miterlimit="1"  points="160.92 146.32 158.89 148.53 156.82 150.71 154.73 152.86 154.71 157.11 156.82 159.25 161.13 159.18 163.31 156.94 165.46 154.68 167.58 152.38 154.26 140.27 "/><polyline fill="none" stroke="#444" stroke-width="0.5" stroke-linecap="square" stroke-miterlimit="1"  points="142.14 152.54 146.23 156.93 148.08 163.38 149.78 169.91 143.52 167.4 137.35 164.76 133.51 160.15 "/><polyline fill="none" stroke="#444" stroke-width="0.5" stroke-linecap="square" stroke-miterlimit="1"  points="146.23 156.93 144.05 158.93 141.84 160.91 139.61 162.85 137.35 164.76 "/><polyline fill="none" stroke="#444" stroke-width="0.5" stroke-linecap="square" stroke-miterlimit="1"  points="126.71 180.46 129.19 178.69 131.64 176.89 134.07 175.06 136.47 173.2 "/><polyline fill="none" stroke="#444" stroke-width="0.5" stroke-linecap="square" stroke-miterlimit="1"  points="123.26 175.55 125.67 173.83 128.06 172.08 130.42 170.3 132.76 168.48 "/><polyline fill="none" stroke="#444" stroke-width="0.5" stroke-linecap="square" stroke-miterlimit="1"  points="105.3 179.96 107.77 178.49 110.22 176.98 112.65 175.45 115.06 173.88 118.37 178.88 117.52 183.02 114.98 184.62 112.42 186.19 111.36 190.31 112.87 192.9 117.07 193.9 119.74 192.26 122.38 190.59 123.34 186.39 "/><polyline fill="none" stroke="#444" stroke-width="0.5" stroke-linecap="square" stroke-miterlimit="1"  points="97.84 204.28 100.65 202.91 103.43 201.5 106.2 200.06 108.95 198.57 106.07 193.31 103.39 194.76 100.69 196.17 97.98 197.54 93.95 196.16 91.36 190.75 92.65 186.79 95.21 185.49 97.76 184.16 101.74 185.42 "/></g></g><g class="guides gearguides" opacity="0.2"><circle class="pitch" fill="none" stroke="#f00" stroke-miterlimit="10" cx="0" cy="0" r="266.67"/><circle class="outer" fill="none" stroke="#ccc" stroke-miterlimit="10" stroke-dasharray="2,2" cx="0" cy="0" r="283.33"/><circle class="base" fill="none" stroke="#00f" stroke-miterlimit="10" stroke-dasharray="2,2" cx="0" cy="0" r="241.68"/></g></svg>