                                                                        S      1
,,17HHX711 Breakout v3,17HHX711 Breakout v3,7Hunknown,7Hunknown,32,38,7,G      1
99,15,,1.,2,2HMM,1,0.08,15H20170428.165024,0.01,10000.,7Hunknown,7HunknoG      2
wn,11,0,;                                                               G      3
     186       1                                                00000000D      1
     186            -263       1       0                               0D      2
     514       2                                                00010000D      3
     514                       2       1                               0D      4
     510       4                                                00010000D      5
     510            -263       1       1                               0D      6
     510       5                                                00010000D      7
     510            -263       1       1                               0D      8
     510       6                                                00010000D      9
     510            -263       1       1                               0D     10
     510       7                                                00010000D     11
     510            -263       1       1                               0D     12
     510       8                                                00010000D     13
     510            -263       1       1                               0D     14
     510       9                                                00010000D     15
     510            -263       1       1                               0D     16
     510      10                                                00010000D     17
     510            -263       1       1                               0D     18
     510      11                                                00010000D     19
     510            -263       1       1                               0D     20
     510      12                                                00010000D     21
     510            -263       1       1                               0D     22
     510      13                                                00010000D     23
     510            -263       1       1                               0D     24
     510      14                                                00010000D     25
     510            -263       1       1                               0D     26
     510      15                                                00010000D     27
     510            -263       1       1                               0D     28
     510      16                                                00010000D     29
     510            -263       1       1                               0D     30
     510      17                                                00010000D     31
     510            -263       1       1                               0D     32
     510      18                                                00010000D     33
     510            -263       1       1                               0D     34
     510      19                                                00010000D     35
     510            -263       1       1                               0D     36
     510      20                                                00010000D     37
     510            -263       1       1                               0D     38
     510      21                                                00010000D     39
     510            -263       1       1                               0D     40
     510      22                                                00010000D     41
     510            -263       1       1                               0D     42
     510      23                                                00010000D     43
     510            -263       1       1                               0D     44
     510      24                                                00010000D     45
     510            -263       1       1                               0D     46
     510      25                                                00010000D     47
     510            -263       1       1                               0D     48
     508      26                                                00010000D     49
     508                       1       1                               0D     50
     508      27                                                00010000D     51
     508                       1       1                               0D     52
     508      28                                                00010000D     53
     508                       1       1                               0D     54
     508      29                                                00010000D     55
     508                       1       1                               0D     56
     508      30                                                00010000D     57
     508                       1       1                               0D     58
     508      31                                                00010000D     59
     508                       1       1                               0D     60
     508      32                                                00010000D     61
     508                       1       1                               0D     62
     508      33                                                00010000D     63
     508                       1       1                               0D     64
     508      34                                                00010000D     65
     508                       1       1                               0D     66
     508      35                                                00010000D     67
     508                       1       1                               0D     68
     508      36                                                00010000D     69
     508                       1       1                               0D     70
     508      37                                                00010000D     71
     508                       1       1                               0D     72
     508      38                                                00010000D     73
     508                       1       1                               0D     74
     508      39                                                00010000D     75
     508                       1       1                               0D     76
     508      40                                                00010000D     77
     508                       1       1                               0D     78
     508      41                                                00010000D     79
     508                       1       1                               0D     80
     508      42                                                00010000D     81
     508                       1       1                               0D     82
     508      43                                                00010000D     83
     508                       1       1                               0D     84
     508      44                                                00010000D     85
     508                       1       1                               0D     86
     508      45                                                00010000D     87
     508                       1       1                               0D     88
     508      46                                                00010000D     89
     508                       1       1                               0D     90
     508      47                                                00010000D     91
     508                       1       1                               0D     92
     508      48                                                00010000D     93
     508                       2       1                               0D     94
     508      50                                                00010000D     95
     508                       1       1                               0D     96
     508      51                                                00010000D     97
     508                       2       1                               0D     98
     508      53                                                00010000D     99
     508                       1       1                               0D    100
     508      54                                                00010000D    101
     508                       1       1                               0D    102
     508      55                                                00010000D    103
     508                       1       1                               0D    104
     126      56                                                00010000D    105
     126       0              12       0                               0D    106
     126      68                                                00010000D    107
     126       0               3       0                               0D    108
     126      71                                                00010000D    109
     126       0              12       0                               0D    110
     126      83                                                00010000D    111
     126       0              12       0                               0D    112
     126      95                                                00010000D    113
     126       0               3       0                               0D    114
     126      98                                                00010000D    115
     126       0              12       0                               0D    116
     126     110                                                00010000D    117
     126       0               3       0                               0D    118
     126     113                                                00010000D    119
     126       0               3       0                               0D    120
     126     116                                                00010000D    121
     126       0               3       0                               0D    122
     126     119                                                00010000D    123
     126       0               3       0                               0D    124
     126     122                                                00010000D    125
     126       0               3       0                               0D    126
     126     125                                                00010000D    127
     126       0               3       0                               0D    128
     126     128                                                00010000D    129
     126       0               3       0                               0D    130
     126     131                                                00010000D    131
     126       0               3       0                               0D    132
     126     134                                                00010000D    133
     126       0               3       0                               0D    134
     126     137                                                00010000D    135
     126       0               3       0                               0D    136
     126     140                                                00010000D    137
     126       0               3       0                               0D    138
     126     143                                                00010000D    139
     126       0               3       0                               0D    140
     126     146                                                00010000D    141
     126       0               3       0                               0D    142
     126     149                                                00010000D    143
     126       0               3       0                               0D    144
     126     152                                                00010000D    145
     126       0               3       0                               0D    146
     126     155                                                00010000D    147
     126       0               3       0                               0D    148
     126     158                                                00010000D    149
     126       0               3       0                               0D    150
     126     161                                                00010000D    151
     126       0               3       0                               0D    152
     126     164                                                00010000D    153
     126       0               3       0                               0D    154
     126     167                                                00010000D    155
     126       0               3       0                               0D    156
     126     170                                                00010000D    157
     126       0               3       0                               0D    158
     126     173                                                00010000D    159
     126       0               3       0                               0D    160
     126     176                                                00010000D    161
     126       0               3       0                               0D    162
     126     179                                                00010000D    163
     126       0               3       0                               0D    164
     126     182                                                00010000D    165
     126       0               3       0                               0D    166
     126     185                                                00010000D    167
     126       0               3       0                               0D    168
     126     188                                                00010000D    169
     126       0               3       0                               0D    170
     126     191                                                00010000D    171
     126       0               3       0                               0D    172
     126     194                                                00010000D    173
     126       0               3       0                               0D    174
     126     197                                                00010000D    175
     126       0               3       0                               0D    176
     126     200                                                00010000D    177
     126       0               3       0                               0D    178
     126     203                                                00010000D    179
     126       0               3       0                               0D    180
     126     206                                                00010000D    181
     126       0               3       0                               0D    182
     126     209                                                00010000D    183
     126       0               3       0                               0D    184
     126     212                                                00010000D    185
     126       0               4       0                               0D    186
     126     216                                                00010000D    187
     126       0               3       0                               0D    188
     126     219                                                00010000D    189
     126       0               3       0                               0D    190
     126     222                                                00010000D    191
     126       0               3       0                               0D    192
     126     225                                                00010000D    193
     126       0               3       0                               0D    194
     126     228                                                00010000D    195
     126       0               3       0                               0D    196
     126     231                                                00010000D    197
     126       0               3       0                               0D    198
     126     234                                                00010000D    199
     126       0               3       0                               0D    200
     126     237                                                00010000D    201
     126       0               3       0                               0D    202
     126     240                                                00010000D    203
     126       0               4       0                               0D    204
     126     244                                                00010000D    205
     126       0               3       0                               0D    206
     126     247                                                00010000D    207
     126       0               3       0                               0D    208
     126     250                                                00010000D    209
     126       0               3       0                               0D    210
     126     253                                                00010000D    211
     126       0               3       0                               0D    212
     128     256                                                00010000D    213
     128       0    -263      20       0                               0D    214
     128     276                                                00010000D    215
     128       0    -263      20       0                               0D    216
     128     296                                                00010000D    217
     128       0    -263       5       0                               0D    218
     128     301                                                00010000D    219
     128       0    -263       5       0                               0D    220
     128     306                                                00010000D    221
     128       0    -263       5       0                               0D    222
     128     311                                                00010000D    223
     128       0    -263       5       0                               0D    224
     128     316                                                00010000D    225
     128       0    -263       5       0                               0D    226
     128     321                                                00010000D    227
     128       0    -263       5       0                               0D    228
     128     326                                                00010000D    229
     128       0    -263       5       0                               0D    230
     128     331                                                00010000D    231
     128       0    -263       6       0                               0D    232
     128     337                                                00010000D    233
     128       0    -263       5       0                               0D    234
     128     342                                                00010000D    235
     128       0    -263       5       0                               0D    236
     128     347                                                00010000D    237
     128       0    -263       5       0                               0D    238
     128     352                                                00010000D    239
     128       0    -263       6       0                               0D    240
     128     358                                                00010000D    241
     128       0    -263       5       0                               0D    242
     128     363                                                00010000D    243
     128       0    -263       5       0                               0D    244
     128     368                                                00010000D    245
     128       0    -263       5       0                               0D    246
     128     373                                                00010000D    247
     128       0    -263       5       0                               0D    248
     128     378                                                00010000D    249
     128       0    -263       6       0                               0D    250
     128     384                                                00010000D    251
     128       0    -263       5       0                               0D    252
     128     389                                                00010000D    253
     128       0    -263       5       0                               0D    254
     128     394                                                00010000D    255
     128       0    -263       5       0                               0D    256
     502     399                                                00010000D    257
     502                      24       1                               0D    258
     504     423                                                00010001D    259
     504                      16       1                               0D    260
     406     439                                                00000000D    261
     406                       1      15                               0D    262
     314     440                                                00000200D    263
     314                       2       0                               0D    264
     314     442                                                00000200D    265
     314                       2       0                               0D    266
186,3,1,0,0,1,261;                                                     1P      1
514,22,5,1,7,1,9,1,11,1,13,1,15,1,17,1,19,1,21,1,23,1,25,1,27,1,       3P      2
29,1,31,1,33,1,35,1,37,1,39,1,41,1,43,1,45,1,47,1;                     3P      3
510,213,1,1,49;                                                        5P      4
510,215,1,1,51;                                                        7P      5
510,217,1,1,53;                                                        9P      6
510,219,1,1,55;                                                       11P      7
510,221,1,1,57;                                                       13P      8
510,223,1,1,59;                                                       15P      9
510,225,1,1,61;                                                       17P     10
510,227,1,1,63;                                                       19P     11
510,229,1,1,65;                                                       21P     12
510,231,1,1,67;                                                       23P     13
510,233,1,1,69;                                                       25P     14
510,235,1,1,71;                                                       27P     15
510,237,1,1,73;                                                       29P     16
510,239,1,1,75;                                                       31P     17
510,241,1,1,77;                                                       33P     18
510,243,2,1,79,81;                                                    35P     19
510,245,4,1,83,85,87,89;                                              37P     20
510,247,1,1,91;                                                       39P     21
510,249,1,1,93;                                                       41P     22
510,251,1,1,95;                                                       43P     23
510,253,1,1,97;                                                       45P     24
510,255,3,1,99,101,103;                                               47P     25
508,4,0,259,1,0,0,0,259,2,1,0,0,259,3,0,0,0,259,2,0,0;                49P     26
508,4,0,259,4,0,0,0,259,5,1,0,0,259,6,0,0,0,259,5,0,0;                51P     27
508,4,0,259,7,0,0,0,259,8,1,0,0,259,9,0,0,0,259,10,0,0;               53P     28
508,4,0,259,11,0,0,0,259,10,1,0,0,259,12,0,0,0,259,13,0,0;            55P     29
508,4,0,259,14,0,0,0,259,13,1,0,0,259,15,0,0,0,259,16,0,0;            57P     30
508,4,0,259,17,0,0,0,259,16,1,0,0,259,18,0,0,0,259,8,0,0;             59P     31
508,4,0,259,18,1,0,0,259,15,1,0,0,259,12,1,0,0,259,9,1,0;             61P     32
508,4,0,259,19,0,0,0,259,20,1,0,0,259,21,0,0,0,259,22,0,0;            63P     33
508,4,0,259,23,0,0,0,259,22,1,0,0,259,24,0,0,0,259,25,0,0;            65P     34
508,4,0,259,26,0,0,0,259,25,1,0,0,259,27,0,0,0,259,28,0,0;            67P     35
508,4,0,259,29,0,0,0,259,28,1,0,0,259,30,0,0,0,259,20,0,0;            69P     36
508,4,0,259,30,1,0,0,259,27,1,0,0,259,24,1,0,0,259,21,1,0;            71P     37
508,4,0,259,31,0,0,0,259,32,1,0,0,259,33,0,0,0,259,34,0,0;            73P     38
508,4,0,259,35,0,0,0,259,36,1,0,0,259,37,0,0,0,259,38,0,0;            75P     39
508,4,0,259,39,1,0,0,259,37,1,0,0,259,40,1,0,0,259,33,1,0;            77P     40
508,4,0,259,31,1,0,0,259,41,0,0,0,259,42,0,0,0,259,43,0,0;            79P     41
508,4,0,259,19,1,0,0,259,23,1,0,0,259,26,1,0,0,259,29,1,0;            81P     42
508,4,0,259,35,1,0,0,259,44,0,0,0,259,45,0,0,0,259,46,0,0;            83P     43
508,1,0,259,1,1,0;                                                    85P     44
508,1,0,259,4,1,0;                                                    87P     45
508,4,0,259,7,1,0,0,259,11,1,0,0,259,14,1,0,0,259,17,1,0;             89P     46
508,4,0,259,45,1,0,0,259,47,1,0,0,259,48,0,0,0,259,49,0,0;            91P     47
508,8,0,259,41,1,0,0,259,34,1,0,0,259,40,0,0,0,259,36,0,0,0,259,      93P     48
46,1,0,0,259,49,1,0,0,259,50,0,0,0,259,51,0,0;                        93P     49
508,4,0,259,42,1,0,0,259,51,1,0,0,259,52,0,0,0,259,53,0,0;            95P     50
508,8,0,259,44,1,0,0,259,38,1,0,0,259,39,0,0,0,259,32,0,0,0,259,      97P     51
43,1,0,0,259,53,1,0,0,259,54,0,0,0,259,47,0,0;                        97P     52
508,4,0,259,54,1,0,0,259,52,1,0,0,259,50,1,0,0,259,48,1,0;            99P     53
508,1,0,259,3,1,0;                                                   101P     54
508,1,0,259,6,1,0;                                                   103P     55
126,8,2,0,1,0,0,-3.14159265358979,-3.14159265358979,                 105P     56
-3.14159265358979,-1.5707963267949,-1.5707963267949,0.,0.,           105P     57
1.5707963267949,1.5707963267949,3.14159265358979,                    105P     58
3.14159265358979,3.14159265358979,1.,0.707106781186548,1.,           105P     59
0.707106781186548,1.,0.707106781186548,1.,0.707106781186548,1.,      105P     60
6.23461337708827,0.,4.19791796956914,6.23461337708827,0.,            105P     61
2.69791796956914,7.73461337708827,0.,2.69791796956914,               105P     62
9.23461337708827,0.,2.69791796956914,9.23461337708827,0.,            105P     63
4.19791796956914,9.23461337708827,0.,5.69791796956914,               105P     64
7.73461337708827,0.,5.69791796956914,6.23461337708827,0.,            105P     65
5.69791796956914,6.23461337708827,0.,4.19791796956914,               105P     66
-3.14159265358979,3.14159265358979,0.,0.,0.;                         105P     67
126,1,1,0,0,1,0,0.,0.,1.13333333333333,1.13333333333333,1.,1.,       107P     68
6.23461337708827,0.,4.19791796956914,6.23461337708827,-1.7,          107P     69
4.19791796956914,0.,1.13333333333333,0.,0.,0.;                       107P     70
126,8,2,0,1,0,0,-3.14159265358979,-3.14159265358979,                 109P     71
-3.14159265358979,-1.5707963267949,-1.5707963267949,0.,0.,           109P     72
1.5707963267949,1.5707963267949,3.14159265358979,                    109P     73
3.14159265358979,3.14159265358979,1.,0.707106781186548,1.,           109P     74
0.707106781186548,1.,0.707106781186548,1.,0.707106781186548,1.,      109P     75
6.23461337708827,-1.7,4.19791796956914,6.23461337708827,-1.7,        109P     76
5.69791796956914,7.73461337708827,-1.7,5.69791796956914,             109P     77
9.23461337708827,-1.7,5.69791796956914,9.23461337708827,-1.7,        109P     78
4.19791796956914,9.23461337708827,-1.7,2.69791796956914,             109P     79
7.73461337708827,-1.7,2.69791796956914,6.23461337708827,-1.7,        109P     80
2.69791796956914,6.23461337708827,-1.7,4.19791796956914,             109P     81
-3.14159265358979,3.14159265358979,0.,0.,0.;                         109P     82
126,8,2,0,1,0,0,-3.14159265358979,-3.14159265358979,                 111P     83
-3.14159265358979,-1.5707963267949,-1.5707963267949,0.,0.,           111P     84
1.5707963267949,1.5707963267949,3.14159265358979,                    111P     85
3.14159265358979,3.14159265358979,1.,0.707106781186549,1.,           111P     86
0.707106781186549,1.,0.707106781186548,1.,0.707106781186548,1.,      111P     87
6.23461337708827,0.,-11.0020820304309,6.23461337708827,0.,           111P     88
-12.5020820304309,7.73461337708827,0.,-12.5020820304309,             111P     89
9.23461337708827,0.,-12.5020820304309,9.23461337708827,0.,           111P     90
-11.0020820304309,9.23461337708827,0.,-9.50208203043086,             111P     91
7.73461337708827,0.,-9.50208203043086,6.23461337708827,0.,           111P     92
-9.50208203043086,6.23461337708827,0.,-11.0020820304309,             111P     93
-3.14159265358979,3.14159265358979,0.,0.,0.;                         111P     94
126,1,1,0,0,1,0,0.,0.,1.13333333333333,1.13333333333333,1.,1.,       113P     95
6.23461337708827,0.,-11.0020820304309,6.23461337708827,-1.7,         113P     96
-11.0020820304309,0.,1.13333333333333,0.,0.,0.;                      113P     97
126,8,2,0,1,0,0,-3.14159265358979,-3.14159265358979,                 115P     98
-3.14159265358979,-1.5707963267949,-1.5707963267949,0.,0.,           115P     99
1.5707963267949,1.5707963267949,3.14159265358979,                    115P    100
3.14159265358979,3.14159265358979,1.,0.707106781186548,1.,           115P    101
0.707106781186548,1.,0.707106781186549,1.,0.707106781186549,1.,      115P    102
6.23461337708827,-1.7,-11.0020820304309,6.23461337708827,-1.7,       115P    103
-9.50208203043086,7.73461337708827,-1.7,-9.50208203043086,           115P    104
9.23461337708827,-1.7,-9.50208203043086,9.23461337708827,-1.7,       115P    105
-11.0020820304309,9.23461337708827,-1.7,-12.5020820304309,           115P    106
7.73461337708827,-1.7,-12.5020820304309,6.23461337708827,-1.7,       115P    107
-12.5020820304309,6.23461337708827,-1.7,-11.0020820304309,           115P    108
-3.14159265358979,3.14159265358979,0.,0.,0.;                         115P    109
126,1,1,0,0,1,0,-0.762,-0.762,0.254,0.254,1.,1.,                     117P    110
6.46461337708827,0.,1.67791796956914,6.46461337708827,0.,            117P    111
-8.48208203043086,-0.762,0.254,0.,0.,0.;                             117P    112
126,1,1,0,0,1,0,0.,0.,0.45,0.45,1.,1.,6.46461337708827,0.,           119P    113
1.67791796956914,6.46461337708827,4.5,1.67791796956914,0.,0.45,      119P    114
0.,0.,0.;                                                            119P    115
126,1,1,0,0,1,0,-1.016,-1.016,0.,0.,1.,1.,6.46461337708827,4.5,      121P    116
-8.48208203043086,6.46461337708827,4.5,1.67791796956914,-1.016,      121P    117
0.,0.,0.,0.;                                                         121P    118
126,1,1,0,0,1,0,0.,0.,0.45,0.45,1.,1.,6.46461337708827,0.,           123P    119
-8.48208203043086,6.46461337708827,4.5,-8.48208203043086,0.,         123P    120
0.45,0.,0.,0.;                                                       123P    121
126,1,1,0,0,1,0,0.4595,0.4595,0.7135,0.7135,1.,1.,                   125P    122
6.46461337708827,0.,-8.48208203043086,9.00461337708827,0.,           125P    123
-8.48208203043086,0.4595,0.7135,0.,0.,0.;                            125P    124
126,1,1,0,0,1,0,-0.254,-0.254,0.,0.,1.,1.,9.00461337708827,4.5,      127P    125
-8.48208203043086,6.46461337708827,4.5,-8.48208203043086,-0.254,     127P    126
0.,0.,0.,0.;                                                         127P    127
126,1,1,0,0,1,0,0.,0.,0.45,0.45,1.,1.,9.00461337708827,0.,           129P    128
-8.48208203043086,9.00461337708827,4.5,-8.48208203043086,0.,         129P    129
0.45,0.,0.,0.;                                                       129P    130
126,1,1,0,0,1,0,-0.762,-0.762,0.254,0.254,1.,1.,                     131P    131
9.00461337708827,0.,-8.48208203043086,9.00461337708827,0.,           131P    132
1.67791796956914,-0.762,0.254,0.,0.,0.;                              131P    133
126,1,1,0,0,1,0,-1.016,-1.016,0.,0.,1.,1.,9.00461337708827,4.5,      133P    134
1.67791796956914,9.00461337708827,4.5,-8.48208203043086,-1.016,      133P    135
0.,0.,0.,0.;                                                         133P    136
126,1,1,0,0,1,0,0.,0.,0.45,0.45,1.,1.,9.00461337708827,0.,           135P    137
1.67791796956914,9.00461337708827,4.5,1.67791796956914,0.,0.45,      135P    138
0.,0.,0.;                                                            135P    139
126,1,1,0,0,1,0,-0.8405,-0.8405,-0.5865,-0.5865,1.,1.,               137P    140
9.00461337708827,0.,1.67791796956914,6.46461337708827,0.,            137P    141
1.67791796956914,-0.8405,-0.5865,0.,0.,0.;                           137P    142
126,1,1,0,0,1,0,-0.254,-0.254,0.,0.,1.,1.,6.46461337708827,4.5,      139P    143
1.67791796956914,9.00461337708827,4.5,1.67791796956914,-0.254,       139P    144
0.,0.,0.,0.;                                                         139P    145
126,1,1,0,0,1,0,-1.143,-1.143,0.381,0.381,1.,1.,                     141P    146
-19.5353866229117,0.,4.21791796956914,-19.5353866229117,0.,          141P    147
-11.0220820304309,-1.143,0.381,0.,0.,0.;                             141P    148
126,1,1,0,0,1,0,0.,0.,0.45,0.45,1.,1.,-19.5353866229117,0.,          143P    149
4.21791796956914,-19.5353866229117,4.5,4.21791796956914,0.,0.45,     143P    150
0.,0.,0.;                                                            143P    151
126,1,1,0,0,1,0,-1.524,-1.524,0.,0.,1.,1.,-19.5353866229117,4.5,     145P    152
-11.0220820304309,-19.5353866229117,4.5,4.21791796956914,-1.524,     145P    153
0.,0.,0.,0.;                                                         145P    154
126,1,1,0,0,1,0,0.,0.,0.45,0.45,1.,1.,-19.5353866229117,0.,          147P    155
-11.0220820304309,-19.5353866229117,4.5,-11.0220820304309,0.,        147P    156
0.45,0.,0.,0.;                                                       147P    157
126,1,1,0,0,1,0,-0.8405,-0.8405,-0.5865,-0.5865,1.,1.,               149P    158
-19.5353866229117,0.,-11.0220820304309,-16.9953866229117,0.,         149P    159
-11.0220820304309,-0.8405,-0.5865,0.,0.,0.;                          149P    160
126,1,1,0,0,1,0,-0.254,-0.254,0.,0.,1.,1.,-16.9953866229117,4.5,     151P    161
-11.0220820304309,-19.5353866229117,4.5,-11.0220820304309,           151P    162
-0.254,0.,0.,0.,0.;                                                  151P    163
126,1,1,0,0,1,0,0.,0.,0.45,0.45,1.,1.,-16.9953866229117,0.,          153P    164
-11.0220820304309,-16.9953866229117,4.5,-11.0220820304309,0.,        153P    165
0.45,0.,0.,0.;                                                       153P    166
126,1,1,0,0,1,0,-1.143,-1.143,0.381,0.381,1.,1.,                     155P    167
-16.9953866229117,0.,-11.0220820304309,-16.9953866229117,0.,         155P    168
4.21791796956914,-1.143,0.381,0.,0.,0.;                              155P    169
126,1,1,0,0,1,0,-1.524,-1.524,0.,0.,1.,1.,-16.9953866229117,4.5,     157P    170
4.21791796956914,-16.9953866229117,4.5,-11.0220820304309,-1.524,     157P    171
0.,0.,0.,0.;                                                         157P    172
126,1,1,0,0,1,0,0.,0.,0.45,0.45,1.,1.,-16.9953866229117,0.,          159P    173
4.21791796956914,-16.9953866229117,4.5,4.21791796956914,0.,0.45,     159P    174
0.,0.,0.;                                                            159P    175
126,1,1,0,0,1,0,0.4595,0.4595,0.7135,0.7135,1.,1.,                   161P    176
-16.9953866229117,0.,4.21791796956914,-19.5353866229117,0.,          161P    177
4.21791796956914,0.4595,0.7135,0.,0.,0.;                             161P    178
126,1,1,0,0,1,0,-0.254,-0.254,0.,0.,1.,1.,-19.5353866229117,4.5,     163P    179
4.21791796956914,-16.9953866229117,4.5,4.21791796956914,-0.254,      163P    180
0.,0.,0.,0.;                                                         163P    181
126,1,1,0,0,1,0,-1.59,-1.59,0.53,0.53,1.,1.,-16.2653866229117,       165P    182
0.,7.19791796956915,-16.2653866229117,0.,-14.0020820304309,          165P    183
-1.59,0.53,0.,0.,0.;                                                 165P    184
126,1,1,0,0,1,0,0.,0.,0.22,0.22,1.,1.,-16.2653866229117,0.,          167P    185
7.19791796956915,-16.2653866229117,2.2,7.19791796956915,0.,0.22,     167P    186
0.,0.,0.;                                                            167P    187
126,1,1,0,0,1,0,-2.12,-2.12,0.,0.,1.,1.,-16.2653866229117,2.2,       169P    188
-14.0020820304309,-16.2653866229117,2.2,7.19791796956915,-2.12,      169P    189
0.,0.,0.,0.;                                                         169P    190
126,1,1,0,0,1,0,0.,0.,0.22,0.22,1.,1.,-16.2653866229117,0.,          171P    191
-14.0020820304309,-16.2653866229117,2.2,-14.0020820304309,0.,        171P    192
0.22,0.,0.,0.;                                                       171P    193
126,1,1,0,0,1,0,-1.59,-1.59,0.53,0.53,1.,1.,5.73461337708826,0.,     173P    194
-14.0020820304309,5.73461337708826,0.,7.19791796956914,-1.59,        173P    195
0.53,0.,0.,0.;                                                       173P    196
126,1,1,0,0,1,0,0.,0.,0.22,0.22,1.,1.,5.73461337708826,0.,           175P    197
-14.0020820304309,5.73461337708826,2.2,-14.0020820304309,0.,         175P    198
0.22,0.,0.,0.;                                                       175P    199
126,1,1,0,0,1,0,-2.12,-2.12,0.,0.,1.,1.,5.73461337708826,2.2,        177P    200
7.19791796956914,5.73461337708826,2.2,-14.0020820304309,-2.12,       177P    201
0.,0.,0.,0.;                                                         177P    202
126,1,1,0,0,1,0,0.,0.,0.22,0.22,1.,1.,5.73461337708826,0.,           179P    203
7.19791796956914,5.73461337708826,2.2,7.19791796956914,0.,0.22,      179P    204
0.,0.,0.;                                                            179P    205
126,1,1,0,0,1,0,-2.2,-2.2,0.,0.,1.,1.,-16.2653866229117,2.2,         181P    206
7.19791796956915,5.73461337708826,2.2,7.19791796956914,-2.2,0.,      181P    207
0.,0.,0.;                                                            181P    208
126,1,1,0,0,1,0,-2.2,-2.2,0.,0.,1.,1.,5.73461337708826,2.2,          183P    209
-14.0020820304309,-16.2653866229117,2.2,-14.0020820304309,-2.2,      183P    210
0.,0.,0.,0.;                                                         183P    211
126,1,1,0,0,1,0,2.22044604925031D-16,2.22044604925031D-16,0.61,      185P    212
0.61,1.,1.,-22.3653866229117,0.,-14.0020820304309,                   185P    213
-16.2653866229117,0.,-14.0020820304309,2.22044604925031D-16,         185P    214
0.61,0.,0.,0.;                                                       185P    215
126,1,1,0,0,1,0,0.,0.,2.12,2.12,1.,1.,-22.3653866229117,0.,          187P    216
7.19791796956914,-22.3653866229117,0.,-14.0020820304309,0.,2.12,     187P    217
0.,0.,0.;                                                            187P    218
126,1,1,0,0,1,0,2.81,2.81,3.42,3.42,1.,1.,-16.2653866229117,0.,      189P    219
7.19791796956914,-22.3653866229117,0.,7.19791796956914,2.81,         189P    220
3.42,0.,0.,0.;                                                       189P    221
126,1,1,0,0,1,0,0.,0.,0.61,0.61,1.,1.,11.8346133770883,0.,           191P    222
7.19791796956914,5.73461337708826,0.,7.19791796956914,0.,0.61,       191P    223
0.,0.,0.;                                                            191P    224
126,1,1,0,0,1,0,0.,0.,2.12,2.12,1.,1.,11.8346133770883,0.,           193P    225
-14.0020820304309,11.8346133770883,0.,7.19791796956914,0.,2.12,      193P    226
0.,0.,0.;                                                            193P    227
126,1,1,0,0,1,0,2.81,2.81,3.42,3.42,1.,1.,5.73461337708827,0.,       195P    228
-14.0020820304309,11.8346133770883,0.,-14.0020820304309,2.81,        195P    229
3.42,0.,0.,0.;                                                       195P    230
126,1,1,0,0,1,0,0.,0.,0.17,0.17,1.,1.,11.8346133770883,0.,           197P    231
7.19791796956914,11.8346133770883,-1.7,7.19791796956914,0.,0.17,     197P    232
0.,0.,0.;                                                            197P    233
126,1,1,0,0,1,0,0.,0.,2.12,2.12,1.,1.,11.8346133770883,-1.7,         199P    234
-14.0020820304309,11.8346133770883,-1.7,7.19791796956914,0.,         199P    235
2.12,0.,0.,0.;                                                       199P    236
126,1,1,0,0,1,0,0.,0.,0.17,0.17,1.,1.,11.8346133770883,0.,           201P    237
-14.0020820304309,11.8346133770883,-1.7,-14.0020820304309,0.,        201P    238
0.17,0.,0.,0.;                                                       201P    239
126,1,1,0,0,1,0,2.22044604925031D-16,2.22044604925031D-16,3.42,      203P    240
3.42,1.,1.,-22.3653866229117,-1.7,-14.0020820304309,                 203P    241
11.8346133770883,-1.7,-14.0020820304309,2.22044604925031D-16,        203P    242
3.42,0.,0.,0.;                                                       203P    243
126,1,1,0,0,1,0,0.,0.,0.17,0.17,1.,1.,-22.3653866229117,0.,          205P    244
-14.0020820304309,-22.3653866229117,-1.7,-14.0020820304309,0.,       205P    245
0.17,0.,0.,0.;                                                       205P    246
126,1,1,0,0,1,0,0.,0.,2.12,2.12,1.,1.,-22.3653866229117,-1.7,        207P    247
7.19791796956914,-22.3653866229117,-1.7,-14.0020820304309,0.,        207P    248
2.12,0.,0.,0.;                                                       207P    249
126,1,1,0,0,1,0,0.,0.,0.17,0.17,1.,1.,-22.3653866229117,0.,          209P    250
7.19791796956914,-22.3653866229117,-1.7,7.19791796956914,0.,         209P    251
0.17,0.,0.,0.;                                                       209P    252
126,1,1,0,0,1,0,0.,0.,3.42,3.42,1.,1.,11.8346133770883,-1.7,         211P    253
7.19791796956914,-22.3653866229117,-1.7,7.19791796956914,0.,         211P    254
3.42,0.,0.,0.;                                                       211P    255
128,1,8,1,2,0,1,0,0,1,0.,0.,1.13333333333333,1.13333333333333,       213P    256
-3.14159265358979,-3.14159265358979,-3.14159265358979,               213P    257
-1.5707963267949,-1.5707963267949,0.,0.,1.5707963267949,             213P    258
1.5707963267949,3.14159265358979,3.14159265358979,                   213P    259
3.14159265358979,1.,1.,0.707106781186548,0.707106781186548,1.,       213P    260
1.,0.707106781186548,0.707106781186548,1.,1.,0.707106781186548,      213P    261
0.707106781186548,1.,1.,0.707106781186548,0.707106781186548,1.,      213P    262
1.,6.23461337708827,0.,4.19791796956914,6.23461337708827,-1.7,       213P    263
4.19791796956914,6.23461337708827,0.,2.69791796956914,               213P    264
6.23461337708827,-1.7,2.69791796956914,7.73461337708827,0.,          213P    265
2.69791796956914,7.73461337708827,-1.7,2.69791796956914,             213P    266
9.23461337708827,0.,2.69791796956914,9.23461337708827,-1.7,          213P    267
2.69791796956914,9.23461337708827,0.,4.19791796956914,               213P    268
9.23461337708827,-1.7,4.19791796956914,9.23461337708827,0.,          213P    269
5.69791796956914,9.23461337708827,-1.7,5.69791796956914,             213P    270
7.73461337708827,0.,5.69791796956914,7.73461337708827,-1.7,          213P    271
5.69791796956914,6.23461337708827,0.,5.69791796956914,               213P    272
6.23461337708827,-1.7,5.69791796956914,6.23461337708827,0.,          213P    273
4.19791796956914,6.23461337708827,-1.7,4.19791796956914,0.,          213P    274
1.13333333333333,-3.14159265358979,3.14159265358979;                 213P    275
128,1,8,1,2,0,1,0,0,1,0.,0.,1.13333333333333,1.13333333333333,       215P    276
-3.14159265358979,-3.14159265358979,-3.14159265358979,               215P    277
-1.5707963267949,-1.5707963267949,0.,0.,1.5707963267949,             215P    278
1.5707963267949,3.14159265358979,3.14159265358979,                   215P    279
3.14159265358979,1.,1.,0.707106781186548,0.707106781186548,1.,       215P    280
1.,0.707106781186548,0.707106781186548,1.,1.,0.707106781186548,      215P    281
0.707106781186548,1.,1.,0.707106781186548,0.707106781186548,1.,      215P    282
1.,6.23461337708827,0.,-11.0020820304309,6.23461337708827,-1.7,      215P    283
-11.0020820304309,6.23461337708827,0.,-12.5020820304309,             215P    284
6.23461337708827,-1.7,-12.5020820304309,7.73461337708827,0.,         215P    285
-12.5020820304309,7.73461337708827,-1.7,-12.5020820304309,           215P    286
9.23461337708827,0.,-12.5020820304309,9.23461337708827,-1.7,         215P    287
-12.5020820304309,9.23461337708827,0.,-11.0020820304309,             215P    288
9.23461337708827,-1.7,-11.0020820304309,9.23461337708827,0.,         215P    289
-9.50208203043086,9.23461337708827,-1.7,-9.50208203043086,           215P    290
7.73461337708827,0.,-9.50208203043086,7.73461337708827,-1.7,         215P    291
-9.50208203043086,6.23461337708827,0.,-9.50208203043086,             215P    292
6.23461337708827,-1.7,-9.50208203043086,6.23461337708827,0.,         215P    293
-11.0020820304309,6.23461337708827,-1.7,-11.0020820304309,0.,        215P    294
1.13333333333333,-3.14159265358979,3.14159265358979;                 215P    295
128,1,1,1,1,0,0,1,0,0,-0.001,-0.001,1.017,1.017,-0.001,-0.001,       217P    296
0.451,0.451,1.,1.,1.,1.,6.46461337708827,-0.01,                      217P    297
-8.49208203043086,6.46461337708827,-0.01,1.68791796956914,           217P    298
6.46461337708827,4.51,-8.49208203043086,6.46461337708827,4.51,       217P    299
1.68791796956914,-0.001,1.017,-0.001,0.451;                          217P    300
128,1,1,1,1,0,0,1,0,0,-0.001,-0.001,0.255,0.255,-0.001,-0.001,       219P    301
0.451,0.451,1.,1.,1.,1.,9.01461337708827,-0.01,                      219P    302
-8.48208203043086,6.45461337708827,-0.01,-8.48208203043086,          219P    303
9.01461337708827,4.51,-8.48208203043086,6.45461337708827,4.51,       219P    304
-8.48208203043086,-0.001,0.255,-0.001,0.451;                         219P    305
128,1,1,1,1,0,0,1,0,0,-0.001,-0.001,1.017,1.017,-0.001,-0.001,       221P    306
0.451,0.451,1.,1.,1.,1.,9.00461337708827,-0.01,1.68791796956914,     221P    307
9.00461337708827,-0.01,-8.49208203043086,9.00461337708827,4.51,      221P    308
1.68791796956914,9.00461337708827,4.51,-8.49208203043086,-0.001,     221P    309
1.017,-0.001,0.451;                                                  221P    310
128,1,1,1,1,0,0,1,0,0,-0.001,-0.001,0.255,0.255,-0.001,-0.001,       223P    311
0.451,0.451,1.,1.,1.,1.,6.45461337708827,-0.01,1.67791796956914,     223P    312
9.01461337708827,-0.01,1.67791796956914,6.45461337708827,4.51,       223P    313
1.67791796956914,9.01461337708827,4.51,1.67791796956914,-0.001,      223P    314
0.255,-0.001,0.451;                                                  223P    315
128,1,1,1,1,0,0,1,0,0,-0.509,-0.509,0.509,0.509,-0.128,-0.128,       225P    316
0.128,0.128,1.,1.,1.,1.,6.45461337708827,4.5,-8.49208203043086,      225P    317
6.45461337708827,4.5,1.68791796956914,9.01461337708827,4.5,          225P    318
-8.49208203043086,9.01461337708827,4.5,1.68791796956914,-0.509,      225P    319
0.509,-0.128,0.128;                                                  225P    320
128,1,1,1,1,0,0,1,0,0,-0.001,-0.001,1.525,1.525,-0.001,-0.001,       227P    321
0.451,0.451,1.,1.,1.,1.,-19.5353866229117,-0.01,                     227P    322
-11.0320820304309,-19.5353866229117,-0.01,4.22791796956914,          227P    323
-19.5353866229117,4.51,-11.0320820304309,-19.5353866229117,4.51,     227P    324
4.22791796956914,-0.001,1.525,-0.001,0.451;                          227P    325
128,1,1,1,1,0,0,1,0,0,-0.001,-0.001,0.255,0.255,-0.001,-0.001,       229P    326
0.451,0.451,1.,1.,1.,1.,-16.9853866229117,-0.01,                     229P    327
-11.0220820304309,-19.5453866229117,-0.01,-11.0220820304309,         229P    328
-16.9853866229117,4.51,-11.0220820304309,-19.5453866229117,4.51,     229P    329
-11.0220820304309,-0.001,0.255,-0.001,0.451;                         229P    330
128,1,1,1,1,0,0,1,0,0,-0.00100000000000006,-0.00100000000000006,     231P    331
1.525,1.525,-0.001,-0.001,0.451,0.451,1.,1.,1.,1.,                   231P    332
-16.9953866229117,-0.01,4.22791796956914,-16.9953866229117,          231P    333
-0.01,-11.0320820304309,-16.9953866229117,4.51,4.22791796956914,     231P    334
-16.9953866229117,4.51,-11.0320820304309,-0.00100000000000006,       231P    335
1.525,-0.001,0.451;                                                  231P    336
128,1,1,1,1,0,0,1,0,0,-0.001,-0.001,0.255,0.255,-0.001,-0.001,       233P    337
0.451,0.451,1.,1.,1.,1.,-19.5453866229117,-0.01,                     233P    338
4.21791796956914,-16.9853866229117,-0.01,4.21791796956914,           233P    339
-19.5453866229117,4.51,4.21791796956914,-16.9853866229117,4.51,      233P    340
4.21791796956914,-0.001,0.255,-0.001,0.451;                          233P    341
128,1,1,1,1,0,0,1,0,0,-0.763,-0.763,0.763,0.763,-0.128,-0.128,       235P    342
0.128,0.128,1.,1.,1.,1.,-19.5453866229117,4.5,-11.0320820304309,     235P    343
-19.5453866229117,4.5,4.22791796956914,-16.9853866229117,4.5,        235P    344
-11.0320820304309,-16.9853866229117,4.5,4.22791796956914,-0.763,     235P    345
0.763,-0.128,0.128;                                                  235P    346
128,1,1,1,1,0,0,1,0,0,-0.001,-0.001,2.121,2.121,-0.001,-0.001,       237P    347
0.221,0.221,1.,1.,1.,1.,-16.2653866229117,-0.01,                     237P    348
-14.0120820304309,-16.2653866229117,-0.01,7.20791796956915,          237P    349
-16.2653866229117,2.21,-14.0120820304309,-16.2653866229117,2.21,     237P    350
7.20791796956915,-0.001,2.121,-0.001,0.221;                          237P    351
128,1,1,1,1,0,0,1,0,0,-0.00100000000000011,-0.00100000000000011,     239P    352
2.121,2.121,-0.001,-0.001,0.221,0.221,1.,1.,1.,1.,                   239P    353
5.73461337708826,-0.01,7.20791796956914,5.73461337708826,-0.01,      239P    354
-14.0120820304309,5.73461337708826,2.21,7.20791796956914,            239P    355
5.73461337708826,2.21,-14.0120820304309,-0.00100000000000011,        239P    356
2.121,-0.001,0.221;                                                  239P    357
128,1,1,1,1,0,0,1,0,0,-1.061,-1.061,1.061,1.061,-1.101,-1.101,       241P    358
1.101,1.101,1.,1.,1.,1.,-16.2753866229117,2.2,-14.0120820304309,     241P    359
-16.2753866229117,2.2,7.20791796956915,5.74461337708826,2.2,         241P    360
-14.0120820304309,5.74461337708826,2.2,7.20791796956915,-1.061,      241P    361
1.061,-1.101,1.101;                                                  241P    362
128,1,1,1,1,0,0,1,0,0,-1.711,-1.711,-1.099,-1.099,-1.061,-1.061,     243P    363
1.061,1.061,1.,1.,1.,1.,-22.3753866229117,0.,7.20791796956915,       243P    364
-16.2553866229117,0.,7.20791796956915,-22.3753866229117,0.,          243P    365
-14.0120820304309,-16.2553866229117,0.,-14.0120820304309,-1.711,     243P    366
-1.099,-1.061,1.061;                                                 243P    367
128,1,1,1,1,0,0,1,0,0,1.099,1.099,1.711,1.711,-1.061,-1.061,         245P    368
1.061,1.061,1.,1.,1.,1.,5.72461337708827,0.,7.20791796956914,        245P    369
11.8446133770883,0.,7.20791796956914,5.72461337708827,0.,            245P    370
-14.0120820304309,11.8446133770883,0.,-14.0120820304309,1.099,       245P    371
1.711,-1.061,1.061;                                                  245P    372
128,1,1,1,1,0,0,1,0,0,-0.001,-0.001,2.121,2.121,-0.001,-0.001,       247P    373
0.171,0.171,1.,1.,1.,1.,11.8346133770883,0.01,-14.0120820304309,     247P    374
11.8346133770883,0.01,7.20791796956914,11.8346133770883,-1.71,       247P    375
-14.0120820304309,11.8346133770883,-1.71,7.20791796956914,           247P    376
-0.001,2.121,-0.001,0.171;                                           247P    377
128,1,1,1,1,0,0,1,0,0,-0.00100000000000044,-0.00100000000000044,     249P    378
3.421,3.421,-0.221,-0.221,0.171,0.171,1.,1.,1.,1.,                   249P    379
-22.3753866229117,2.21,-14.0020820304309,11.8446133770883,2.21,      249P    380
-14.0020820304309,-22.3753866229117,-1.71,-14.0020820304309,         249P    381
11.8446133770883,-1.71,-14.0020820304309,-0.00100000000000044,       249P    382
3.421,-0.221,0.171;                                                  249P    383
128,1,1,1,1,0,0,1,0,0,-0.001,-0.001,2.121,2.121,-0.001,-0.001,       251P    384
0.171,0.171,1.,1.,1.,1.,-22.3653866229117,0.01,7.20791796956914,     251P    385
-22.3653866229117,0.01,-14.0120820304309,-22.3653866229117,          251P    386
-1.71,7.20791796956914,-22.3653866229117,-1.71,                      251P    387
-14.0120820304309,-0.001,2.121,-0.001,0.171;                         251P    388
128,1,1,1,1,0,0,1,0,0,-0.001,-0.001,3.421,3.421,-0.221,-0.221,       253P    389
0.171,0.171,1.,1.,1.,1.,11.8446133770883,2.21,7.19791796956914,      253P    390
-22.3753866229117,2.21,7.19791796956914,11.8446133770883,-1.71,      253P    391
7.19791796956914,-22.3753866229117,-1.71,7.19791796956914,           253P    392
-0.001,3.421,-0.221,0.171;                                           253P    393
128,1,1,1,1,0,0,1,0,0,-1.061,-1.061,1.061,1.061,-1.711,-1.711,       255P    394
1.711,1.711,1.,1.,1.,1.,-22.3753866229117,-1.7,7.20791796956914,     255P    395
-22.3753866229117,-1.7,-14.0120820304309,11.8446133770883,-1.7,      255P    396
7.20791796956914,11.8446133770883,-1.7,-14.0120820304309,-1.061,     255P    397
1.061,-1.711,1.711;                                                  255P    398
502,36,6.23461337708827,0.,4.19791796956914,6.23461337708827,        257P    399
-1.7,4.19791796956914,6.23461337708827,0.,-11.0020820304309,         257P    400
6.23461337708827,-1.7,-11.0020820304309,6.46461337708827,0.,         257P    401
1.67791796956914,6.46461337708827,0.,-8.48208203043086,              257P    402
6.46461337708827,4.5,1.67791796956914,6.46461337708827,4.5,          257P    403
-8.48208203043086,9.00461337708827,0.,-8.48208203043086,             257P    404
9.00461337708827,4.5,-8.48208203043086,9.00461337708827,0.,          257P    405
1.67791796956914,9.00461337708827,4.5,1.67791796956914,              257P    406
-19.5353866229117,0.,4.21791796956914,-19.5353866229117,0.,          257P    407
-11.0220820304309,-19.5353866229117,4.5,4.21791796956914,            257P    408
-19.5353866229117,4.5,-11.0220820304309,-16.9953866229117,0.,        257P    409
-11.0220820304309,-16.9953866229117,4.5,-11.0220820304309,           257P    410
-16.9953866229117,0.,4.21791796956914,-16.9953866229117,4.5,         257P    411
4.21791796956914,-16.2653866229117,0.,7.19791796956915,              257P    412
-16.2653866229117,0.,-14.0020820304309,-16.2653866229117,2.2,        257P    413
7.19791796956915,-16.2653866229117,2.2,-14.0020820304309,            257P    414
5.73461337708826,0.,-14.0020820304309,5.73461337708826,0.,           257P    415
7.19791796956914,5.73461337708826,2.2,-14.0020820304309,             257P    416
5.73461337708826,2.2,7.19791796956914,-22.3653866229117,0.,          257P    417
-14.0020820304309,-22.3653866229117,0.,7.19791796956914,             257P    418
11.8346133770883,0.,7.19791796956914,11.8346133770883,0.,            257P    419
-14.0020820304309,11.8346133770883,-1.7,7.19791796956914,            257P    420
11.8346133770883,-1.7,-14.0020820304309,-22.3653866229117,-1.7,      257P    421
-14.0020820304309,-22.3653866229117,-1.7,7.19791796956914;           257P    422
504,54,105,257,1,257,1,107,257,1,257,2,109,257,2,257,2,111,257,      259P    423
3,257,3,113,257,3,257,4,115,257,4,257,4,117,257,5,257,6,119,257,     259P    424
5,257,7,121,257,8,257,7,123,257,6,257,8,125,257,6,257,9,127,257,     259P    425
10,257,8,129,257,9,257,10,131,257,9,257,11,133,257,12,257,10,        259P    426
135,257,11,257,12,137,257,11,257,5,139,257,7,257,12,141,257,13,      259P    427
257,14,143,257,13,257,15,145,257,16,257,15,147,257,14,257,16,        259P    428
149,257,14,257,17,151,257,18,257,16,153,257,17,257,18,155,257,       259P    429
17,257,19,157,257,20,257,18,159,257,19,257,20,161,257,19,257,13,     259P    430
163,257,15,257,20,165,257,21,257,22,167,257,21,257,23,169,257,       259P    431
24,257,23,171,257,22,257,24,173,257,25,257,26,175,257,25,257,27,     259P    432
177,257,28,257,27,179,257,26,257,28,181,257,23,257,28,183,257,       259P    433
27,257,24,185,257,29,257,22,187,257,30,257,29,189,257,21,257,30,     259P    434
191,257,31,257,26,193,257,32,257,31,195,257,25,257,32,197,257,       259P    435
31,257,33,199,257,34,257,33,201,257,32,257,34,203,257,35,257,34,     259P    436
205,257,29,257,35,207,257,36,257,35,209,257,30,257,36,211,257,       259P    437
33,257,36;                                                           259P    438
406,1,5HBody1;                                                       261P    439
314,26.6666666666667,58.8235294117647,28.2352941176471,23HPlasti     263P    440
c - Matte (Green);                                                   263P    441
314,62.7450980392157,62.7450980392157,62.7450980392157,13HSteel      265P    442
- Satin;                                                             265P    443
S      1G      3D    266P    443                                        T      1
