999
DXF generated by OpenJsCad
  0
SECTION
  2
HEADER
  0
ENDSEC
  0
SECTION
  2
TABLES
  0
TABLE
  2
LTYPE
  70
1
  0
LTYPE
  2
CONTINUOUS
  3
Solid Line
  72
65
  73
0
  40
0.0
  0
ENDTAB
  0
TABLE
  2
LAYER
  70
1
  0
LAYER
  2
OpenJsCad
  62
7
  6
continuous
  0
ENDTAB
  0
TABLE
  2
STYLE
  70
0
  0
ENDTAB
  0
TABLE
  2
VIEW
  70
0
  0
ENDTAB
  0
ENDSEC
  0
SECTION
  2
BLOCKS
  0
ENDSEC
  0
SECTION
  2
ENTITIES
  0
LWPOLYLINE
  8
OpenJsCad
  90
609
  70
1
 10
15.85546500046176
 20
-3.3859864722683746
 30
0.0
 10
15.921876199770363
 20
-3.167058088022154
 30
0.0
 10
15.944300517525127
 20
-2.9393801690324177
 30
0.0
 10
15.706289785275972
 20
-2.741184002331769
 30
0.0
 10
15.334455352143353
 20
-2.47068519312791
 30
0.0
 10
14.996710689368257
 20
-2.2572972091972137
 30
0.0
 10
14.698715672113478
 20
-2.0952646387949914
 30
0.0
 10
14.445514755106935
 20
-1.9783508549519637
 30
0.0
 10
14.243762446099055
 20
-1.9007647423563487
 30
0.0
 10
14.121668578070958
 20
-1.8288171076496318
 30
0.0
 10
14.0698397803458
 20
-1.7533180581245322
 30
0.0
 10
14.1415471387512
 20
-1.0252610301893106
 30
0.0
 10
14.207109194544712
 20
-0.9613239705682282
 30
0.0
 10
14.34089335035691
 20
-0.9145781215149076
 30
0.0
 10
14.553905345009822
 20
-0.8778427272524386
 30
0.0
 10
14.825049825132742
 20
-0.8125724574166068
 30
0.0
 10
15.14892993802659
 20
-0.7117892412956361
 30
0.0
 10
15.521814862310677
 20
-0.5683921626614598
 30
0.0
 10
15.939276300866634
 20
-0.37563221152431103
 30
0.0
 10
16.2113798776186
 20
-0.22767791898974088
 30
0.0
 10
16.233804195373338
 20
-2.4424906541753444e-15
 30
0.0
 10
16.211379877618583
 20
0.22767791898974044
 30
0.0
 10
15.939276300866654
 20
0.3756322115243017
 30
0.0
 10
15.52181486231054
 20
0.5683921626615215
 30
0.0
 10
15.148929938026562
 20
0.711789241295647
 30
0.0
 10
14.825049825132696
 20
0.8125724574166102
 30
0.0
 10
14.553905345010019
 20
0.8778427272525113
 30
0.0
 10
14.340893350357469
 20
0.9145781215181539
 30
0.0
 10
14.207109194544785
 20
0.9613239705685344
 30
0.0
 10
14.14154713875119
 20
1.0252610301892764
 30
0.0
 10
14.069839780345816
 20
1.7533180581245007
 30
0.0
 10
14.121668578070828
 20
1.8288171076499178
 30
0.0
 10
14.243762446097872
 20
1.9007647423594234
 30
0.0
 10
14.445514755106727
 20
1.9783508549519966
 30
0.0
 10
14.698715672113522
 20
2.095264638795004
 30
0.0
 10
14.996710689368284
 20
2.25729720919723
 30
0.0
 10
15.334455352143474
 20
2.4706851931279967
 30
0.0
 10
15.706289785275956
 20
2.741184002331756
 30
0.0
 10
15.944300517525113
 20
2.9393801690324164
 30
0.0
 10
15.921876199770375
 20
3.1670580880221566
 30
0.0
 10
15.855465000461768
 20
3.3859864722683697
 30
0.0
 10
15.559725367064159
 20
3.478013090148465
 30
0.0
 10
15.112679732053195
 20
3.585626526397868
 30
0.0
 10
14.71898430478429
 20
3.653522030421522
 30
0.0
 10
14.381665627355792
 20
3.6891828497855768
 30
0.0
 10
14.102997514428516
 20
3.7003013057485465
 30
0.0
 10
13.886911765627291
 20
3.6947742610840337
 30
0.0
 10
13.74657857211088
 20
3.7145219077144453
 30
0.0
 10
13.669802771285374
 20
3.7644399120859218
 30
0.0
 10
13.457436369638797
 20
4.464518116736683
 30
0.0
 10
13.493540157664658
 20
4.548677770033528
 30
0.0
 10
13.599251739029302
 20
4.643062283146031
 30
0.0
 10
13.781991134302887
 20
4.758517523272569
 30
0.0
 10
14.007518118949696
 20
4.92258188997567
 30
0.0
 10
14.268176259169799
 20
5.139636993847507
 30
0.0
 10
14.557801322455036
 20
5.414815502521765
 30
0.0
 10
14.869719361425911
 20
5.752658052251913
 30
0.0
 10
15.064490630209864
 20
5.993479525582042
 30
0.0
 10
14.99807943090126
 20
6.2124079098282525
 30
0.0
 10
14.89023349518439
 20
6.414173464300805
 30
0.0
 10
14.582222913399907
 20
6.446735876210434
 30
0.0
 10
14.122772794981477
 20
6.465067273567266
 30
0.0
 10
13.723396359210653
 20
6.454852016837057
 30
0.0
 10
13.385602084850605
 20
6.424020014154859
 30
0.0
 10
13.110119398419652
 20
6.380559380217543
 30
0.0
 10
12.899263949613895
 20
6.33298229784973
 30
0.0
 10
12.757774644320836
 20
6.324972851074775
 30
0.0
 10
12.672735549432774
 20
6.358953479283328
 30
0.0
 10
12.327871226263822
 20
7.004149247853278
 30
0.0
 10
12.346862556263938
 20
7.09373529664263
 30
0.0
 10
12.432129414178076
 20
7.206929544250661
 30
0.0
 10
12.588833323237457
 20
7.355817031781147
 30
0.0
 10
12.778019499981294
 20
7.560727079740298
 30
0.0
 10
12.991323817016854
 20
7.824463411165855
 30
0.0
 10
13.221699152053686
 20
8.150857488817136
 30
0.0
 10
13.46171396155096
 20
8.54306067935183
 30
0.0
 10
13.605760816239348
 20
8.817252825145593
 30
0.0
 10
13.497914880522483
 20
9.019018379618146
 30
0.0
 10
13.352778667226277
 20
9.195867367210106
 30
0.0
 10
13.04433381097852
 20
9.167714217920768
 30
0.0
 10
12.590135619540854
 20
9.096059111064971
 30
0.0
 10
12.200425987721898
 20
9.008125660168258
 30
0.0
 10
11.875137360956742
 20
8.911985692012099
 30
0.0
 10
11.613426746169182
 20
8.815616135963703
 30
0.0
 10
11.415904654007402
 20
8.727817376486449
 30
0.0
 10
11.278696591591988
 20
8.692358634853939
 30
0.0
 10
11.188662207367447
 20
8.709096030414072
 30
0.0
 10
10.724552905213361
 20
9.274614851347023
 30
0.0
 10
10.725701951026286
 20
9.366184554014342
 30
0.0
 10
10.787247327958484
 20
9.493838544662392
 30
0.0
 10
10.911893707459077
 20
9.670436616948091
 30
0.0
 10
11.057468757624504
 20
9.908317767935102
 30
0.0
 10
11.21522208619428
 20
10.208600087602735
 30
0.0
 10
11.377494498053224
 20
10.57366659287081
 30
0.0
 10
11.536382443549767
 20
11.005158275547885
 30
0.0
 10
11.624169244299345
 20
11.30218404341117
 30
0.0
 10
11.479033031003118
 20
11.479033031003112
 30
0.0
 10
11.302184043411152
 20
11.624169244299319
 30
0.0
 10
11.005158275547906
 20
11.536382443549773
 30
0.0
 10
10.573666592870673
 20
11.377494498053169
 30
0.0
 10
10.208600087602708
 20
11.215222086194265
 30
0.0
 10
9.90831776793507
 20
11.057468757624472
 30
0.0
 10
9.670436616948182
 20
10.911893707459267
 30
0.0
 10
9.493838544660495
 20
10.787247327961172
 30
0.0
 10
9.366184554014179
 20
10.725701951026554
 30
0.0
 10
9.274614851347044
 20
10.724552905213327
 30
0.0
 10
8.70909603041411
 20
11.188662207367434
 30
0.0
 10
8.69235863485365
 20
11.278696591592096
 30
0.0
 10
8.727817376483443
 20
11.41590465400874
 30
0.0
 10
8.815616135963538
 20
11.613426746169056
 30
0.0
 10
8.911985692012125
 20
11.875137360956781
 30
0.0
 10
9.008125660168268
 20
12.200425987721927
 30
0.0
 10
9.096059111065
 20
12.590135619541
 30
0.0
 10
9.167714217920768
 20
13.044333810978497
 30
0.0
 10
9.19586736721011
 20
13.352778667226271
 30
0.0
 10
9.019018379618169
 20
13.4979148805225
 30
0.0
 10
8.817252825145598
 20
13.605760816239354
 30
0.0
 10
8.543060679351852
 20
13.461713961550966
 30
0.0
 10
8.150857488817014
 20
13.221699152053606
 30
0.0
 10
7.824463411165831
 20
12.991323817016834
 30
0.0
 10
7.560727079740271
 20
12.778019499981257
 30
0.0
 10
7.355817031781197
 20
12.588833323237662
 30
0.0
 10
7.206929544248275
 20
12.432129414180343
 30
0.0
 10
7.093735296642417
 20
12.346862556264167
 30
0.0
 10
7.004149247853302
 20
12.327871226263794
 30
0.0
 10
6.358953479283365
 20
12.67273554943277
 30
0.0
 10
6.324972851074466
 20
12.757774644320886
 30
0.0
 10
6.3329822978465184
 20
12.899263949614621
 30
0.0
 10
6.380559380217401
 20
13.110119398419497
 30
0.0
 10
6.424020014154875
 20
13.385602084850648
 30
0.0
 10
6.45485201683706
 20
13.723396359210685
 30
0.0
 10
6.4650672735672625
 20
14.122772794981627
 30
0.0
 10
6.446735876210437
 20
14.582222913399885
 30
0.0
 10
6.414173464300806
 20
14.89023349518439
 30
0.0
 10
6.212407909828247
 20
14.998079430901257
 30
0.0
 10
5.993479525582042
 20
15.064490630209871
 30
0.0
 10
5.752658052251927
 20
14.869719361425926
 30
0.0
 10
5.414815502521653
 20
14.557801322454933
 30
0.0
 10
5.139636993847483
 20
14.268176259169778
 30
0.0
 10
4.922581889975646
 20
14.007518118949653
 30
0.0
 10
4.758517523272574
 20
13.781991134303096
 30
0.0
 10
4.643062283143243
 20
13.599251739031061
 30
0.0
 10
4.54867777003327
 20
13.493540157664842
 30
0.0
 10
4.464518116736708
 20
13.457436369638774
 30
0.0
 10
3.7644399120859546
 20
13.669802771285376
 30
0.0
 10
3.7145219077141287
 20
13.74657857211087
 30
0.0
 10
3.694774261080738
 20
13.886911765627374
 30
0.0
 10
3.7003013057484337
 20
14.102997514428337
 30
0.0
 10
3.689182849785579
 20
14.381665627355837
 30
0.0
 10
3.6535220304215144
 20
14.71898430478432
 30
0.0
 10
3.5856265263978315
 20
15.112679732053339
 30
0.0
 10
3.478013090148468
 20
15.55972536706414
 30
0.0
 10
3.3859864722683604
 20
15.855465000461747
 30
0.0
 10
3.1670580880221513
 20
15.921876199770347
 30
0.0
 10
2.939380169032418
 20
15.944300517525127
 30
0.0
 10
2.74118400233177
 20
15.706289785275972
 30
0.0
 10
2.470685193127911
 20
15.334455352143353
 30
0.0
 10
2.2572972091972145
 20
14.996710689368257
 30
0.0
 10
2.0952646387949923
 20
14.698715672113478
 30
0.0
 10
1.9783508549519646
 20
14.445514755106935
 30
0.0
 10
1.9007647423563496
 20
14.243762446099055
 30
0.0
 10
1.8288171076496327
 20
14.121668578070958
 30
0.0
 10
1.7533180581245331
 20
14.0698397803458
 30
0.0
 10
1.0252610301893115
 20
14.1415471387512
 30
0.0
 10
0.961323970568229
 20
14.207109194544712
 30
0.0
 10
0.9145781215149085
 20
14.34089335035691
 30
0.0
 10
0.8778427272524395
 20
14.553905345009822
 30
0.0
 10
0.8125724574166077
 20
14.825049825132742
 30
0.0
 10
0.711789241295637
 20
15.14892993802659
 30
0.0
 10
0.5683921626614608
 20
15.521814862310677
 30
0.0
 10
0.37563221152431203
 20
15.939276300866634
 30
0.0
 10
0.227677918989742
 20
16.2113798776186
 30
0.0
 10
3.552713678800501e-15
 20
16.233804195373338
 30
0.0
 10
-0.22767791898973533
 20
16.21137987761854
 30
0.0
 10
-0.37563221152430126
 20
15.939276300866652
 30
0.0
 10
-0.5683921626615206
 20
15.52181486231054
 30
0.0
 10
-0.7117892412956461
 20
15.148929938026562
 30
0.0
 10
-0.8125724574166093
 20
14.825049825132696
 30
0.0
 10
-0.8778427272525104
 20
14.553905345010017
 30
0.0
 10
-0.914578121518153
 20
14.340893350357469
 30
0.0
 10
-0.9613239705685335
 20
14.207109194544785
 30
0.0
 10
-1.0252610301892755
 20
14.14154713875119
 30
0.0
 10
-1.7533180581244998
 20
14.069839780345816
 30
0.0
 10
-1.8288171076499173
 20
14.121668578070828
 30
0.0
 10
-1.9007647423594225
 20
14.243762446097872
 30
0.0
 10
-1.9783508549519961
 20
14.445514755106727
 30
0.0
 10
-2.095264638795003
 20
14.698715672113522
 30
0.0
 10
-2.257297209197229
 20
14.996710689368284
 30
0.0
 10
-2.470685193127996
 20
15.334455352143474
 30
0.0
 10
-2.7411840023317553
 20
15.706289785275956
 30
0.0
 10
-2.9393801690324155
 20
15.94430051752511
 30
0.0
 10
-3.1670580880221544
 20
15.921876199770377
 30
0.0
 10
-3.3859864722683657
 20
15.85546500046176
 30
0.0
 10
-3.478013090148464
 20
15.559725367064159
 30
0.0
 10
-3.585626526397867
 20
15.112679732053195
 30
0.0
 10
-3.653522030421521
 20
14.71898430478429
 30
0.0
 10
-3.689182849785576
 20
14.381665627355792
 30
0.0
 10
-3.7003013057485457
 20
14.102997514428516
 30
0.0
 10
-3.694774261084033
 20
13.886911765627291
 30
0.0
 10
-3.7145219077144445
 20
13.74657857211088
 30
0.0
 10
-3.764439912085921
 20
13.669802771285374
 30
0.0
 10
-4.4645181167366825
 20
13.457436369638797
 30
0.0
 10
-4.548677770033527
 20
13.493540157664658
 30
0.0
 10
-4.64306228314603
 20
13.599251739029302
 30
0.0
 10
-4.758517523272569
 20
13.781991134302887
 30
0.0
 10
-4.922581889975669
 20
14.007518118949696
 30
0.0
 10
-5.139636993847506
 20
14.268176259169799
 30
0.0
 10
-5.414815502521764
 20
14.557801322455036
 30
0.0
 10
-5.752658052251912
 20
14.869719361425911
 30
0.0
 10
-5.993479525582039
 20
15.064490630209859
 30
0.0
 10
-6.212407909828252
 20
14.998079430901255
 30
0.0
 10
-6.4141734643008155
 20
14.890233495184404
 30
0.0
 10
-6.446735876210436
 20
14.582222913399905
 30
0.0
 10
-6.465067273567269
 20
14.122772794981476
 30
0.0
 10
-6.45485201683706
 20
13.723396359210653
 30
0.0
 10
-6.424020014154861
 20
13.385602084850603
 30
0.0
 10
-6.380559380217544
 20
13.11011939841965
 30
0.0
 10
-6.332982297849732
 20
12.899263949613893
 30
0.0
 10
-6.324972851074777
 20
12.757774644320834
 30
0.0
 10
-6.358953479283331
 20
12.672735549432772
 30
0.0
 10
-7.00414924785328
 20
12.32787122626382
 30
0.0
 10
-7.093735296642632
 20
12.346862556263936
 30
0.0
 10
-7.206929544250663
 20
12.432129414178075
 30
0.0
 10
-7.355817031781148
 20
12.588833323237457
 30
0.0
 10
-7.5607270797403
 20
12.778019499981292
 30
0.0
 10
-7.824463411165857
 20
12.991323817016852
 30
0.0
 10
-8.150857488817138
 20
13.221699152053684
 30
0.0
 10
-8.543060679351832
 20
13.461713961550958
 30
0.0
 10
-8.817252825145594
 20
13.605760816239343
 30
0.0
 10
-9.019018379618142
 20
13.49791488052248
 30
0.0
 10
-9.19586736721009
 20
13.352778667226248
 30
0.0
 10
-9.167714217920768
 20
13.04433381097852
 30
0.0
 10
-9.096059111064971
 20
12.590135619540854
 30
0.0
 10
-9.008125660168258
 20
12.200425987721898
 30
0.0
 10
-8.911985692012099
 20
11.875137360956742
 30
0.0
 10
-8.815616135963703
 20
11.613426746169182
 30
0.0
 10
-8.727817376486449
 20
11.415904654007402
 30
0.0
 10
-8.692358634853939
 20
11.278696591591988
 30
0.0
 10
-8.709096030414072
 20
11.188662207367447
 30
0.0
 10
-9.274614851347023
 20
10.724552905213361
 30
0.0
 10
-9.366184554014342
 20
10.725701951026286
 30
0.0
 10
-9.493838544662392
 20
10.787247327958484
 30
0.0
 10
-9.670436616948091
 20
10.911893707459077
 30
0.0
 10
-9.908317767935102
 20
11.057468757624504
 30
0.0
 10
-10.208600087602735
 20
11.21522208619428
 30
0.0
 10
-10.57366659287081
 20
11.377494498053224
 30
0.0
 10
-11.005158275547885
 20
11.536382443549767
 30
0.0
 10
-11.302184043411165
 20
11.624169244299338
 30
0.0
 10
-11.479033031003112
 20
11.479033031003109
 30
0.0
 10
-11.624169244299349
 20
11.302184043411174
 30
0.0
 10
-11.536382443549774
 20
11.005158275547906
 30
0.0
 10
-11.37749449805317
 20
10.573666592870673
 30
0.0
 10
-11.215222086194267
 20
10.208600087602708
 30
0.0
 10
-11.057468757624473
 20
9.908317767935069
 30
0.0
 10
-10.911893707459269
 20
9.67043661694818
 30
0.0
 10
-10.787247327961175
 20
9.493838544660491
 30
0.0
 10
-10.725701951026556
 20
9.366184554014179
 30
0.0
 10
-10.72455290521333
 20
9.274614851347042
 30
0.0
 10
-11.188662207367436
 20
8.709096030414107
 30
0.0
 10
-11.278696591592098
 20
8.692358634853647
 30
0.0
 10
-11.415904654008742
 20
8.727817376483443
 30
0.0
 10
-11.613426746169058
 20
8.815616135963536
 30
0.0
 10
-11.875137360956785
 20
8.911985692012124
 30
0.0
 10
-12.200425987721928
 20
9.008125660168266
 30
0.0
 10
-12.590135619541002
 20
9.096059111064998
 30
0.0
 10
-13.044333810978499
 20
9.167714217920766
 30
0.0
 10
-13.35277866722626
 20
9.195867367210097
 30
0.0
 10
-13.49791488052249
 20
9.01901837961815
 30
0.0
 10
-13.605760816239355
 20
8.81725282514559
 30
0.0
 10
-13.46171396155097
 20
8.543060679351846
 30
0.0
 10
-13.221699152053608
 20
8.150857488817008
 30
0.0
 10
-12.991323817016836
 20
7.8244634111658256
 30
0.0
 10
-12.778019499981257
 20
7.560727079740265
 30
0.0
 10
-12.588833323237663
 20
7.355817031781191
 30
0.0
 10
-12.432129414180347
 20
7.206929544248269
 30
0.0
 10
-12.346862556264169
 20
7.093735296642412
 30
0.0
 10
-12.327871226263795
 20
7.004149247853297
 30
0.0
 10
-12.67273554943277
 20
6.358953479283359
 30
0.0
 10
-12.757774644320888
 20
6.3249728510744605
 30
0.0
 10
-12.899263949614623
 20
6.332982297846513
 30
0.0
 10
-13.1101193984195
 20
6.380559380217396
 30
0.0
 10
-13.385602084850651
 20
6.424020014154869
 30
0.0
 10
-13.723396359210687
 20
6.454852016837053
 30
0.0
 10
-14.122772794981628
 20
6.465067273567256
 30
0.0
 10
-14.582222913399887
 20
6.446735876210431
 30
0.0
 10
-14.890233495184395
 20
6.414173464300801
 30
0.0
 10
-14.998079430901258
 20
6.212407909828251
 30
0.0
 10
-15.064490630209846
 20
5.993479525582036
 30
0.0
 10
-14.869719361425926
 20
5.7526580522519275
 30
0.0
 10
-14.557801322454933
 20
5.414815502521654
 30
0.0
 10
-14.268176259169778
 20
5.139636993847483
 30
0.0
 10
-14.007518118949653
 20
4.922581889975647
 30
0.0
 10
-13.781991134303096
 20
4.758517523272575
 30
0.0
 10
-13.599251739031061
 20
4.6430622831432435
 30
0.0
 10
-13.493540157664842
 20
4.548677770033271
 30
0.0
 10
-13.457436369638774
 20
4.464518116736709
 30
0.0
 10
-13.669802771285376
 20
3.7644399120859555
 30
0.0
 10
-13.74657857211087
 20
3.7145219077141296
 30
0.0
 10
-13.886911765627374
 20
3.6947742610807386
 30
0.0
 10
-14.102997514428337
 20
3.7003013057484346
 30
0.0
 10
-14.381665627355837
 20
3.68918284978558
 30
0.0
 10
-14.71898430478432
 20
3.6535220304215152
 30
0.0
 10
-15.112679732053339
 20
3.5856265263978324
 30
0.0
 10
-15.55972536706414
 20
3.478013090148469
 30
0.0
 10
-15.855465000461743
 20
3.385986472268361
 30
0.0
 10
-15.921876199770345
 20
3.167058088022153
 30
0.0
 10
-15.944300517525116
 20
2.939380169032419
 30
0.0
 10
-15.706289785275972
 20
2.741184002331771
 30
0.0
 10
-15.334455352143353
 20
2.470685193127912
 30
0.0
 10
-14.996710689368257
 20
2.2572972091972154
 30
0.0
 10
-14.698715672113478
 20
2.095264638794993
 30
0.0
 10
-14.445514755106935
 20
1.9783508549519655
 30
0.0
 10
-14.243762446099055
 20
1.9007647423563505
 30
0.0
 10
-14.121668578070958
 20
1.8288171076496336
 30
0.0
 10
-14.0698397803458
 20
1.753318058124534
 30
0.0
 10
-14.1415471387512
 20
1.0252610301893124
 30
0.0
 10
-14.207109194544712
 20
0.9613239705682299
 30
0.0
 10
-14.34089335035691
 20
0.9145781215149094
 30
0.0
 10
-14.553905345009822
 20
0.8778427272524404
 30
0.0
 10
-14.825049825132742
 20
0.8125724574166086
 30
0.0
 10
-15.14892993802659
 20
0.711789241295638
 30
0.0
 10
-15.521814862310677
 20
0.5683921626614616
 30
0.0
 10
-15.939276300866634
 20
0.375632211524313
 30
0.0
 10
-16.211379877618583
 20
0.22767791898974155
 30
0.0
 10
-16.23380419537332
 20
-4.440892098500626e-16
 30
0.0
 10
-16.211379877618548
 20
-0.22767791898973866
 30
0.0
 10
-15.939276300866654
 20
-0.3756322115243035
 30
0.0
 10
-15.521814862310542
 20
-0.5683921626615233
 30
0.0
 10
-15.148929938026562
 20
-0.7117892412956488
 30
0.0
 10
-14.825049825132696
 20
-0.812572457416612
 30
0.0
 10
-14.553905345010019
 20
-0.8778427272525131
 30
0.0
 10
-14.340893350357469
 20
-0.9145781215181552
 30
0.0
 10
-14.207109194544785
 20
-0.9613239705685357
 30
0.0
 10
-14.14154713875119
 20
-1.0252610301892782
 30
0.0
 10
-14.069839780345816
 20
-1.7533180581245025
 30
0.0
 10
-14.121668578070828
 20
-1.8288171076499196
 30
0.0
 10
-14.243762446097872
 20
-1.9007647423594252
 30
0.0
 10
-14.445514755106727
 20
-1.9783508549519984
 30
0.0
 10
-14.698715672113522
 20
-2.0952646387950056
 30
0.0
 10
-14.996710689368284
 20
-2.257297209197232
 30
0.0
 10
-15.334455352143474
 20
-2.4706851931279985
 30
0.0
 10
-15.706289785275956
 20
-2.741184002331758
 30
0.0
 10
-15.944300517525113
 20
-2.939380169032419
 30
0.0
 10
-15.921876199770379
 20
-3.167058088022155
 30
0.0
 10
-15.855465000461761
 20
-3.385986472268364
 30
0.0
 10
-15.55972536706416
 20
-3.4780130901484627
 30
0.0
 10
-15.112679732053195
 20
-3.5856265263978657
 30
0.0
 10
-14.718984304784291
 20
-3.653522030421521
 30
0.0
 10
-14.381665627355792
 20
-3.689182849785575
 30
0.0
 10
-14.102997514428518
 20
-3.7003013057485443
 30
0.0
 10
-13.886911765627293
 20
-3.6947742610840315
 30
0.0
 10
-13.746578572110883
 20
-3.7145219077144445
 30
0.0
 10
-13.669802771285376
 20
-3.76443991208592
 30
0.0
 10
-13.457436369638797
 20
-4.464518116736682
 30
0.0
 10
-13.49354015766466
 20
-4.548677770033526
 30
0.0
 10
-13.599251739029304
 20
-4.643062283146029
 30
0.0
 10
-13.781991134302888
 20
-4.758517523272567
 30
0.0
 10
-14.007518118949697
 20
-4.922581889975668
 30
0.0
 10
-14.2681762591698
 20
-5.139636993847505
 30
0.0
 10
-14.557801322455038
 20
-5.414815502521763
 30
0.0
 10
-14.869719361425913
 20
-5.7526580522519115
 30
0.0
 10
-15.064490630209885
 20
-5.993479525582044
 30
0.0
 10
-14.998079430901283
 20
-6.21240790982826
 30
0.0
 10
-14.890233495184404
 20
-6.414173464300815
 30
0.0
 10
-14.582222913399907
 20
-6.446735876210436
 30
0.0
 10
-14.122772794981477
 20
-6.465067273567268
 30
0.0
 10
-13.723396359210655
 20
-6.454852016837059
 30
0.0
 10
-13.385602084850605
 20
-6.424020014154861
 30
0.0
 10
-13.110119398419652
 20
-6.380559380217544
 30
0.0
 10
-12.899263949613896
 20
-6.332982297849732
 30
0.0
 10
-12.757774644320836
 20
-6.324972851074776
 30
0.0
 10
-12.672735549432774
 20
-6.35895347928333
 30
0.0
 10
-12.327871226263822
 20
-7.00414924785328
 30
0.0
 10
-12.346862556263938
 20
-7.093735296642632
 30
0.0
 10
-12.432129414178076
 20
-7.206929544250663
 30
0.0
 10
-12.588833323237457
 20
-7.355817031781148
 30
0.0
 10
-12.778019499981294
 20
-7.5607270797403
 30
0.0
 10
-12.991323817016854
 20
-7.824463411165857
 30
0.0
 10
-13.221699152053686
 20
-8.150857488817138
 30
0.0
 10
-13.46171396155096
 20
-8.543060679351832
 30
0.0
 10
-13.605760816239343
 20
-8.817252825145594
 30
0.0
 10
-13.49791488052248
 20
-9.019018379618142
 30
0.0
 10
-13.352778667226262
 20
-9.195867367210093
 30
0.0
 10
-13.044333810978522
 20
-9.167714217920768
 30
0.0
 10
-12.590135619540856
 20
-9.096059111064971
 30
0.0
 10
-12.2004259877219
 20
-9.008125660168258
 30
0.0
 10
-11.875137360956746
 20
-8.911985692012099
 30
0.0
 10
-11.613426746169184
 20
-8.815616135963703
 30
0.0
 10
-11.415904654007404
 20
-8.727817376486449
 30
0.0
 10
-11.27869659159199
 20
-8.692358634853939
 30
0.0
 10
-11.188662207367448
 20
-8.709096030414072
 30
0.0
 10
-10.724552905213363
 20
-9.274614851347023
 30
0.0
 10
-10.725701951026288
 20
-9.36618455401434
 30
0.0
 10
-10.787247327958484
 20
-9.493838544662392
 30
0.0
 10
-10.911893707459079
 20
-9.67043661694809
 30
0.0
 10
-11.057468757624505
 20
-9.908317767935102
 30
0.0
 10
-11.215222086194283
 20
-10.208600087602735
 30
0.0
 10
-11.377494498053226
 20
-10.57366659287081
 30
0.0
 10
-11.536382443549769
 20
-11.005158275547885
 30
0.0
 10
-11.624169244299344
 20
-11.302184043411163
 30
0.0
 10
-11.479033031003116
 20
-11.479033031003107
 30
0.0
 10
-11.302184043411163
 20
-11.624169244299337
 30
0.0
 10
-11.005158275547906
 20
-11.536382443549773
 30
0.0
 10
-10.573666592870673
 20
-11.377494498053169
 30
0.0
 10
-10.208600087602706
 20
-11.215222086194267
 30
0.0
 10
-9.908317767935067
 20
-11.057468757624472
 30
0.0
 10
-9.67043661694818
 20
-10.911893707459267
 30
0.0
 10
-9.493838544660491
 20
-10.787247327961174
 30
0.0
 10
-9.366184554014179
 20
-10.725701951026554
 30
0.0
 10
-9.274614851347042
 20
-10.724552905213327
 30
0.0
 10
-8.709096030414107
 20
-11.188662207367434
 30
0.0
 10
-8.692358634853647
 20
-11.278696591592096
 30
0.0
 10
-8.727817376483442
 20
-11.41590465400874
 30
0.0
 10
-8.815616135963536
 20
-11.613426746169056
 30
0.0
 10
-8.911985692012124
 20
-11.875137360956781
 30
0.0
 10
-9.008125660168266
 20
-12.200425987721927
 30
0.0
 10
-9.096059111064998
 20
-12.590135619541
 30
0.0
 10
-9.167714217920766
 20
-13.044333810978497
 30
0.0
 10
-9.195867367210097
 20
-13.352778667226259
 30
0.0
 10
-9.01901837961815
 20
-13.497914880522492
 30
0.0
 10
-8.817252825145598
 20
-13.605760816239366
 30
0.0
 10
-8.543060679351846
 20
-13.46171396155097
 30
0.0
 10
-8.150857488817008
 20
-13.221699152053608
 30
0.0
 10
-7.824463411165826
 20
-12.991323817016836
 30
0.0
 10
-7.560727079740266
 20
-12.778019499981257
 30
0.0
 10
-7.355817031781192
 20
-12.588833323237663
 30
0.0
 10
-7.206929544248269
 20
-12.432129414180347
 30
0.0
 10
-7.0937352966424125
 20
-12.346862556264169
 30
0.0
 10
-7.004149247853298
 20
-12.327871226263795
 30
0.0
 10
-6.35895347928336
 20
-12.67273554943277
 30
0.0
 10
-6.3249728510744605
 20
-12.757774644320888
 30
0.0
 10
-6.332982297846513
 20
-12.899263949614623
 30
0.0
 10
-6.380559380217397
 20
-13.1101193984195
 30
0.0
 10
-6.42402001415487
 20
-13.38560208485065
 30
0.0
 10
-6.454852016837054
 20
-13.723396359210687
 30
0.0
 10
-6.465067273567257
 20
-14.122772794981628
 30
0.0
 10
-6.446735876210432
 20
-14.582222913399887
 30
0.0
 10
-6.414173464300814
 20
-14.890233495184415
 30
0.0
 10
-6.2124079098282685
 20
-14.998079430901276
 30
0.0
 10
-5.9934795255820505
 20
-15.064490630209873
 30
0.0
 10
-5.7526580522519355
 20
-14.869719361425922
 30
0.0
 10
-5.4148155025216615
 20
-14.55780132245493
 30
0.0
 10
-5.13963699384749
 20
-14.268176259169774
 30
0.0
 10
-4.922581889975654
 20
-14.007518118949651
 30
0.0
 10
-4.758517523272582
 20
-13.781991134303093
 30
0.0
 10
-4.643062283143251
 20
-13.59925173903106
 30
0.0
 10
-4.548677770033278
 20
-13.49354015766484
 30
0.0
 10
-4.464518116736715
 20
-13.45743636963877
 30
0.0
 10
-3.764439912085962
 20
-13.669802771285374
 30
0.0
 10
-3.7145219077141367
 20
-13.746578572110868
 30
0.0
 10
-3.694774261080746
 20
-13.886911765627374
 30
0.0
 10
-3.7003013057484417
 20
-14.102997514428335
 30
0.0
 10
-3.6891828497855874
 20
-14.381665627355835
 30
0.0
 10
-3.653522030421523
 20
-14.718984304784318
 30
0.0
 10
-3.58562652639784
 20
-15.112679732053337
 30
0.0
 10
-3.478013090148477
 20
-15.559725367064138
 30
0.0
 10
-3.38598647226837
 20
-15.855465000461743
 30
0.0
 10
-3.167058088022154
 20
-15.921876199770345
 30
0.0
 10
-2.93938016903242
 20
-15.94430051752512
 30
0.0
 10
-2.7411840023317717
 20
-15.706289785275972
 30
0.0
 10
-2.470685193127913
 20
-15.334455352143353
 30
0.0
 10
-2.2572972091972163
 20
-14.996710689368257
 30
0.0
 10
-2.095264638794994
 20
-14.698715672113478
 30
0.0
 10
-1.9783508549519664
 20
-14.445514755106935
 30
0.0
 10
-1.9007647423563514
 20
-14.243762446099055
 30
0.0
 10
-1.8288171076496345
 20
-14.121668578070958
 30
0.0
 10
-1.753318058124535
 20
-14.0698397803458
 30
0.0
 10
-1.0252610301893132
 20
-14.1415471387512
 30
0.0
 10
-0.9613239705682308
 20
-14.207109194544712
 30
0.0
 10
-0.9145781215149102
 20
-14.34089335035691
 30
0.0
 10
-0.8778427272524413
 20
-14.553905345009822
 30
0.0
 10
-0.8125724574166096
 20
-14.825049825132742
 30
0.0
 10
-0.7117892412956389
 20
-15.14892993802659
 30
0.0
 10
-0.5683921626614626
 20
-15.521814862310677
 30
0.0
 10
-0.375632211524314
 20
-15.939276300866634
 30
0.0
 10
-0.22767791898974288
 20
-16.211379877618587
 30
0.0
 10
-4.440892098500626e-16
 20
-16.233804195373324
 30
0.0
 10
0.22767791898974088
 20
-16.211379877618576
 30
0.0
 10
0.3756322115243026
 20
-15.939276300866654
 30
0.0
 10
0.5683921626615224
 20
-15.521814862310542
 30
0.0
 10
0.7117892412956479
 20
-15.148929938026562
 30
0.0
 10
0.8125724574166111
 20
-14.825049825132696
 30
0.0
 10
0.8778427272525122
 20
-14.553905345010019
 30
0.0
 10
0.9145781215181543
 20
-14.340893350357469
 30
0.0
 10
0.9613239705685348
 20
-14.207109194544785
 30
0.0
 10
1.0252610301892773
 20
-14.14154713875119
 30
0.0
 10
1.7533180581245016
 20
-14.069839780345816
 30
0.0
 10
1.8288171076499187
 20
-14.121668578070828
 30
0.0
 10
1.9007647423594243
 20
-14.243762446097872
 30
0.0
 10
1.9783508549519975
 20
-14.445514755106727
 30
0.0
 10
2.0952646387950047
 20
-14.698715672113522
 30
0.0
 10
2.257297209197231
 20
-14.996710689368284
 30
0.0
 10
2.4706851931279976
 20
-15.334455352143474
 30
0.0
 10
2.741184002331757
 20
-15.706289785275956
 30
0.0
 10
2.939380169032417
 20
-15.944300517525106
 30
0.0
 10
3.1670580880221584
 20
-15.921876199770368
 30
0.0
 10
3.3859864722683763
 20
-15.855465000461772
 30
0.0
 10
3.478013090148469
 20
-15.559725367064159
 30
0.0
 10
3.5856265263978715
 20
-15.112679732053193
 30
0.0
 10
3.653522030421526
 20
-14.71898430478429
 30
0.0
 10
3.68918284978558
 20
-14.38166562735579
 30
0.0
 10
3.7003013057485497
 20
-14.102997514428516
 30
0.0
 10
3.6947742610840377
 20
-13.88691176562729
 30
0.0
 10
3.714521907714449
 20
-13.746578572110879
 30
0.0
 10
3.7644399120859253
 20
-13.669802771285372
 30
0.0
 10
4.464518116736687
 20
-13.457436369638796
 30
0.0
 10
4.548677770033531
 20
-13.493540157664656
 30
0.0
 10
4.643062283146034
 20
-13.599251739029302
 30
0.0
 10
4.758517523272572
 20
-13.781991134302885
 30
0.0
 10
4.922581889975673
 20
-14.007518118949694
 30
0.0
 10
5.1396369938475095
 20
-14.268176259169797
 30
0.0
 10
5.414815502521768
 20
-14.557801322455035
 30
0.0
 10
5.752658052251917
 20
-14.86971936142591
 30
0.0
 10
5.993479525582049
 20
-15.064490630209864
 30
0.0
 10
6.212407909828247
 20
-14.998079430901265
 30
0.0
 10
6.4141734643008
 20
-14.890233495184397
 30
0.0
 10
6.446735876210428
 20
-14.58222291339991
 30
0.0
 10
6.46506727356726
 20
-14.122772794981481
 30
0.0
 10
6.454852016837051
 20
-13.723396359210657
 30
0.0
 10
6.424020014154853
 20
-13.385602084850607
 30
0.0
 10
6.380559380217538
 20
-13.110119398419656
 30
0.0
 10
6.332982297849726
 20
-12.899263949613898
 30
0.0
 10
6.32497285107477
 20
-12.757774644320838
 30
0.0
 10
6.358953479283324
 20
-12.672735549432778
 30
0.0
 10
7.004149247853274
 20
-12.327871226263824
 30
0.0
 10
7.093735296642625
 20
-12.34686255626394
 30
0.0
 10
7.206929544250657
 20
-12.432129414178078
 30
0.0
 10
7.35581703178114
 20
-12.588833323237461
 30
0.0
 10
7.560727079740292
 20
-12.778019499981296
 30
0.0
 10
7.82446341116585
 20
-12.991323817016855
 30
0.0
 10
8.150857488817131
 20
-13.22169915205369
 30
0.0
 10
8.543060679351825
 20
-13.461713961550963
 30
0.0
 10
8.81725282514559
 20
-13.60576081623936
 30
0.0
 10
9.019018379618162
 20
-13.497914880522487
 30
0.0
 10
9.19586736721012
 20
-13.352778667226266
 30
0.0
 10
9.167714217920778
 20
-13.044333810978513
 30
0.0
 10
9.096059111064982
 20
-12.590135619540847
 30
0.0
 10
9.008125660168268
 20
-12.20042598772189
 30
0.0
 10
8.91198569201211
 20
-11.875137360956735
 30
0.0
 10
8.815616135963714
 20
-11.613426746169175
 30
0.0
 10
8.72781737648646
 20
-11.415904654007397
 30
0.0
 10
8.69235863485395
 20
-11.278696591591983
 30
0.0
 10
8.70909603041408
 20
-11.188662207367441
 30
0.0
 10
9.274614851347032
 20
-10.724552905213352
 30
0.0
 10
9.366184554014351
 20
-10.72570195102628
 30
0.0
 10
9.493838544662399
 20
-10.787247327958477
 30
0.0
 10
9.6704366169481
 20
-10.911893707459072
 30
0.0
 10
9.90831776793511
 20
-11.057468757624497
 30
0.0
 10
10.208600087602742
 20
-11.215222086194272
 30
0.0
 10
10.573666592870818
 20
-11.377494498053215
 30
0.0
 10
11.005158275547894
 20
-11.536382443549758
 30
0.0
 10
11.302184043411176
 20
-11.624169244299335
 30
0.0
 10
11.47903303100311
 20
-11.479033031003114
 30
0.0
 10
11.624169244299337
 20
-11.302184043411163
 30
0.0
 10
11.536382443549773
 20
-11.005158275547906
 30
0.0
 10
11.377494498053169
 20
-10.573666592870673
 30
0.0
 10
11.215222086194267
 20
-10.208600087602706
 30
0.0
 10
11.057468757624472
 20
-9.908317767935067
 30
0.0
 10
10.911893707459267
 20
-9.67043661694818
 30
0.0
 10
10.787247327961174
 20
-9.493838544660491
 30
0.0
 10
10.725701951026554
 20
-9.366184554014179
 30
0.0
 10
10.724552905213327
 20
-9.274614851347042
 30
0.0
 10
11.188662207367434
 20
-8.709096030414107
 30
0.0
 10
11.278696591592096
 20
-8.692358634853647
 30
0.0
 10
11.41590465400874
 20
-8.727817376483442
 30
0.0
 10
11.613426746169056
 20
-8.815616135963536
 30
0.0
 10
11.875137360956781
 20
-8.911985692012124
 30
0.0
 10
12.200425987721927
 20
-9.008125660168266
 30
0.0
 10
12.590135619541
 20
-9.096059111064998
 30
0.0
 10
13.044333810978497
 20
-9.167714217920766
 30
0.0
 10
13.352778667226259
 20
-9.195867367210097
 30
0.0
 10
13.497914880522492
 20
-9.01901837961815
 30
0.0
 10
13.60576081623934
 20
-8.817252825145584
 30
0.0
 10
13.46171396155097
 20
-8.543060679351848
 30
0.0
 10
13.221699152053608
 20
-8.150857488817008
 30
0.0
 10
12.991323817016836
 20
-7.824463411165827
 30
0.0
 10
12.778019499981257
 20
-7.560727079740267
 30
0.0
 10
12.588833323237663
 20
-7.355817031781193
 30
0.0
 10
12.432129414180345
 20
-7.20692954424827
 30
0.0
 10
12.346862556264169
 20
-7.093735296642413
 30
0.0
 10
12.327871226263795
 20
-7.004149247853299
 30
0.0
 10
12.67273554943277
 20
-6.358953479283361
 30
0.0
 10
12.757774644320888
 20
-6.324972851074461
 30
0.0
 10
12.899263949614623
 20
-6.332982297846514
 30
0.0
 10
13.1101193984195
 20
-6.380559380217398
 30
0.0
 10
13.38560208485065
 20
-6.424020014154871
 30
0.0
 10
13.723396359210687
 20
-6.454852016837055
 30
0.0
 10
14.122772794981628
 20
-6.465067273567258
 30
0.0
 10
14.582222913399887
 20
-6.4467358762104325
 30
0.0
 10
14.89023349518441
 20
-6.41417346430081
 30
0.0
 10
14.99807943090128
 20
-6.212407909828268
 30
0.0
 10
15.064490630209882
 20
-5.993479525582054
 30
0.0
 10
14.869719361425922
 20
-5.7526580522519355
 30
0.0
 10
14.55780132245493
 20
-5.4148155025216615
 30
0.0
 10
14.268176259169774
 20
-5.139636993847492
 30
0.0
 10
14.00751811894965
 20
-4.922581889975655
 30
0.0
 10
13.781991134303093
 20
-4.758517523272583
 30
0.0
 10
13.59925173903106
 20
-4.6430622831432515
 30
0.0
 10
13.49354015766484
 20
-4.5486777700332786
 30
0.0
 10
13.45743636963877
 20
-4.464518116736716
 30
0.0
 10
13.669802771285374
 20
-3.764439912085963
 30
0.0
 10
13.746578572110868
 20
-3.714521907714137
 30
0.0
 10
13.886911765627374
 20
-3.6947742610807466
 30
0.0
 10
14.102997514428335
 20
-3.7003013057484426
 30
0.0
 10
14.381665627355835
 20
-3.6891828497855883
 30
0.0
 10
14.718984304784318
 20
-3.6535220304215232
 30
0.0
 10
15.112679732053337
 20
-3.585626526397841
 30
0.0
 10
15.559725367064138
 20
-3.478013090148478
 30
0.0
 10
15.85546500046176
 20
-3.3859864722683746
 30
0.0
  0
LWPOLYLINE
  8
OpenJsCad
  90
31
  70
1
 10
0.41582338163551874
 20
-1.9562952014676114
 30
0.0
 10
1.2246467991473532e-16
 20
-2
 30
0.0
 10
-0.41582338163551785
 20
-1.9562952014676114
 30
0.0
 10
-0.8134732861516002
 20
-1.827090915285202
 30
0.0
 10
-1.1755705045849467
 20
-1.6180339887498947
 30
0.0
 10
-1.486289650954788
 20
-1.338261212717717
 30
0.0
 10
-1.7320508075688772
 20
-1.0000000000000002
 30
0.0
 10
-1.9021130325903073
 20
-0.6180339887498946
 30
0.0
 10
-1.9890437907365468
 20
-0.20905692653530608
 30
0.0
 10
-1.9890437907365466
 20
0.20905692653530836
 30
0.0
 10
-1.902113032590307
 20
0.618033988749895
 30
0.0
 10
-1.732050807568877
 20
1.0000000000000009
 30
0.0
 10
-1.486289650954788
 20
1.338261212717717
 30
0.0
 10
-1.175570504584946
 20
1.618033988749895
 30
0.0
 10
-0.8134732861516005
 20
1.8270909152852017
 30
0.0
 10
-0.41582338163551824
 20
1.9562952014676114
 30
0.0
 10
1.0106430996148606e-15
 20
2
 30
0.0
 10
0.4158233816355185
 20
1.9562952014676114
 30
0.0
 10
0.8134732861516
 20
1.827090915285202
 30
0.0
 10
1.1755705045849465
 20
1.6180339887498947
 30
0.0
 10
1.486289650954789
 20
1.3382612127177158
 30
0.0
 10
1.7320508075688774
 20
0.9999999999999997
 30
0.0
 10
1.9021130325903073
 20
0.6180339887498948
 30
0.0
 10
1.9890437907365468
 20
0.20905692653530678
 30
0.0
 10
1.9890437907365466
 20
-0.2090569265353068
 30
0.0
 10
1.902113032590307
 20
-0.6180339887498948
 30
0.0
 10
1.7320508075688772
 20
-1.0000000000000002
 30
0.0
 10
1.4862896509547885
 20
-1.3382612127177165
 30
0.0
 10
1.1755705045849463
 20
-1.618033988749895
 30
0.0
 10
0.8134732861516004
 20
-1.8270909152852017
 30
0.0
 10
0.41582338163551874
 20
-1.9562952014676114
 30
0.0
  0
LWPOLYLINE
  8
OpenJsCad
  90
1217
  70
1
 10
14.385896163051246
 20
1.789857687982793
 30
0.0
 10
14.361903279895841
 20
1.5462538572159104
 30
0.0
 10
14.361903279895817
 20
1.301471331682694
 30
0.0
 10
14.667702080132031
 20
1.1351955124268898
 30
0.0
 10
15.04707592241606
 20
0.9447236793936158
 30
0.0
 10
15.405109284177584
 20
0.7794042344236118
 30
0.0
 10
15.740591790152422
 20
0.6376232009041289
 30
0.0
 10
16.052396255913678
 20
0.5177152974641901
 30
0.0
 10
16.292134880513085
 20
0.43441800008866505
 30
0.0
 10
16.354886211141924
 20
0.4013893934893824
 30
0.0
 10
16.383804195373386
 20
0.3657898922796248
 30
0.0
 10
16.38380419537331
 20
-0.3657898922794969
 30
0.0
 10
16.354886211141853
 20
-0.4013893934892636
 30
0.0
 10
16.292134880524475
 20
-0.4344180001214071
 30
0.0
 10
16.052396255912846
 20
-0.5177152974643587
 30
0.0
 10
15.740591790152408
 20
-0.637623200903945
 30
0.0
 10
15.405109284177456
 20
-0.7794042344234609
 30
0.0
 10
15.047075922415633
 20
-0.9447236793940887
 30
0.0
 10
14.667702080127
 20
-1.1351955124296444
 30
0.0
 10
14.361903279895817
 20
-1.3014713316827122
 30
0.0
 10
14.361903279895817
 20
-1.5462538572159112
 30
0.0
 10
14.385896163051273
 20
-1.7898576879828116
 30
0.0
 10
14.706520338790405
 20
-1.9253593198057353
 30
0.0
 10
15.102736896717662
 20
-2.0777288397651885
 30
0.0
 10
15.475250369218664
 20
-2.207158820158817
 30
0.0
 10
15.823014406689087
 20
-2.315374103382957
 30
0.0
 10
16.145070478520967
 20
-2.4041424354177643
 30
0.0
 10
16.391819259001625
 20
-2.463540139129183
 30
0.0
 10
16.457505794389732
 20
-2.49025899797994
 30
0.0
 10
16.489773891928778
 20
-2.522852619742576
 30
0.0
 10
16.561481250334097
 20
-3.2509096476779575
 30
0.0
 10
16.53619187540655
 20
-3.2891721856775282
 30
0.0
 10
16.47698007916893
 20
-3.3281924565200915
 30
0.0
 10
16.246560424444773
 20
-3.434587149019843
 30
0.0
 10
15.948010412209861
 20
-3.5844798452060287
 30
0.0
 10
15.628040317656431
 20
-3.758461200162709
 30
0.0
 10
15.287935123628849
 20
-3.9580779930818766
 30
0.0
 10
14.92905757447173
 20
-4.184817791317087
 30
0.0
 10
14.641029159356123
 20
-4.38026647096752
 30
0.0
 10
14.66502204251153
 20
-4.623870301734405
 30
0.0
 10
14.712776744241769
 20
-4.863949399677304
 30
0.0
 10
15.045138509400488
 20
-4.967371889280164
 30
0.0
 10
15.454382000924138
 20
-5.080171694394935
 30
0.0
 10
15.837788075787852
 20
-5.172465728747373
 30
0.0
 10
16.19448448696586
 20
-5.2460730893422305
 30
0.0
 10
16.523690588842864
 20
-5.3028469624087045
 30
0.0
 10
16.775073199562144
 20
-5.337773040099187
 30
0.0
 10
16.843062342465824
 20
-5.357924833984672
 30
0.0
 10
16.8783697938936
 20
-5.387198681905127
 30
0.0
 10
17.02109392964366
 20
-6.104721366041295
 30
0.0
 10
16.999676714525144
 20
-6.145278451673301
 30
0.0
 10
16.944574694633506
 20
-6.1899146001874215
 30
0.0
 10
16.725693077032016
 20
-6.318382048793947
 30
0.0
 10
16.44327271814449
 20
-6.496815989122776
 30
0.0
 10
16.141896521936573
 20
-6.701322129960504
 30
0.0
 10
15.82299489458213
 20
-6.93331385199076
 30
0.0
 10
15.488069825537337
 20
-7.1941379872200395
 30
0.0
 10
15.220585666627194
 20
-7.416877249639686
 30
0.0
 10
15.268340368357382
 20
-7.656956347582577
 30
0.0
 10
15.339396984779377
 20
-7.891198619747698
 30
0.0
 10
15.68029551387178
 20
-7.961545952019134
 30
0.0
 10
16.0986247004532
 20
-8.03368971850332
 30
0.0
 10
16.489230967587613
 20
-8.087958964810705
 30
0.0
 10
16.851424571043466
 20
-8.126249523655874
 30
0.0
 10
17.184610268242164
 20
-8.150482174320627
 30
0.0
 10
17.43820575723913
 20
-8.160600268769482
 30
0.0
 10
17.507842735045568
 20
-8.173990924898483
 30
0.0
 10
17.545849510303814
 20
-8.19966307581857
 30
0.0
 10
17.758215911950373
 20
-8.899741280469495
 30
0.0
 10
17.74087711613032
 20
-8.942202326828545
 30
0.0
 10
17.690415535158063
 20
-8.99202448250343
 30
0.0
 10
17.4851799043096
 20
-9.141327475459194
 30
0.0
 10
17.221609061212224
 20
-9.346584243543386
 30
0.0
 10
16.941729180868286
 20
-9.579645664331467
 30
0.0
 10
16.647102317187784
 20
-9.841778108370086
 30
0.0
 10
16.339355239758873
 20
-10.134174701590199
 30
0.0
 10
16.094991355726258
 20
-10.38205944592029
 30
0.0
 10
16.166047972148192
 20
-10.616301718085408
 30
0.0
 10
16.25972218920228
 20
-10.84245128334195
 30
0.0
 10
16.605874443039095
 20
-10.879045975016433
 30
0.0
 10
17.029260585929514
 20
-10.909838918960999
 30
0.0
 10
17.423305293455012
 20
-10.925560734714796
 30
0.0
 10
17.787507966792266
 20
-10.928165732796854
 30
0.0
 10
18.1214644989108
 20
-10.919623787387073
 30
0.0
 10
18.374830602997005
 20
-10.904836455813639
 30
0.0
 10
18.445444773542484
 20
-10.911337014847563
 30
0.0
 10
18.485784846608855
 20
-10.933160231920091
 30
0.0
 10
18.76574830961278
 20
-11.609051821273312
 30
0.0
 10
18.752654915173295
 20
-11.653007905271396
 30
0.0
 10
18.70731974573027
 20
-11.707536253512336
 30
0.0
 10
18.517706632953118
 20
-11.87623692137786
 30
0.0
 10
18.275523636947394
 20
-12.106339782336002
 30
0.0
 10
18.019835468713058
 20
-12.365711974187914
 30
0.0
 10
17.752320786463148
 20
-12.655460661502634
 30
0.0
 10
17.47471547323744
 20
-12.976613773680635
 30
0.0
 10
17.255825221868463
 20
-13.247256734325674
 30
0.0
 10
17.3494994389225
 20
-13.473406299582216
 30
0.0
 10
17.464889122690828
 20
-13.689285213990878
 30
0.0
 10
17.812961465841635
 20
-13.691774838182848
 30
0.0
 10
18.237327125038604
 20
-13.680920406704471
 30
0.0
 10
18.631015407014964
 20
-13.657943382224559
 30
0.0
 10
18.99371967939595
 20
-13.624837731987933
 30
0.0
 10
19.325230862470818
 20
-13.583603454107415
 30
0.0
 10
19.57592752755991
 20
-13.544053106598325
 30
0.0
 10
19.646838837780447
 20
-13.543600964600106
 30
0.0
 10
19.689123711699178
 20
-13.561365078314887
 30
0.0
 10
20.03398803486814
 20
-14.206560846885003
 30
0.0
 10
20.025266138355256
 20
-14.251588647404382
 30
0.0
 10
19.985493982905936
 20
-14.310298050409589
 30
0.0
 10
19.813329466129204
 20
-14.496771713532162
 30
0.0
 10
19.594866671857364
 20
-14.749504651026207
 30
0.0
 10
19.365832632566097
 20
-15.032689717947152
 30
0.0
 10
19.128006444375256
 20
-15.347264210286385
 30
0.0
 10
18.8832163862736
 20
-15.694080961391855
 30
0.0
 10
18.691907800346495
 20
-15.984875698692345
 30
0.0
 10
18.80729748411488
 20
-16.200754613100973
 30
0.0
 10
18.94329136886443
 20
-16.40428384470454
 30
0.0
 10
19.289931674388924
 20
-16.372644424972087
 30
0.0
 10
19.711189976612513
 20
-16.32024715217954
 30
0.0
 10
20.100730399672404
 20
-16.25879256877218
 30
0.0
 10
20.458443230679766
 20
-16.190295095726036
 30
0.0
 10
20.784316430795503
 20
-16.11676559401172
 30
0.0
 10
21.02992931095794
 20
-16.05283312203391
 30
0.0
 10
21.100454846172042
 20
-16.04543263337815
 30
0.0
 10
21.14427729449203
 20
-16.05896656560926
 30
0.0
 10
21.550721245871916
 20
-16.667252925445055
 30
0.0
 10
21.54645484391691
 20
-16.712918800152032
 30
0.0
 10
21.51262873005994
 20
-16.77524385427674
 30
0.0
 10
21.35957084769489
 20
-16.97769466934362
 30
0.0
 10
21.16693217128968
 20
-17.250623727027616
 30
0.0
 10
20.966757983942596
 20
-17.554894442018448
 30
0.0
 10
20.760910686012117
 20
-17.891265215057057
 30
0.0
 10
20.551293345109897
 20
-18.260405570187526
 30
0.0
 10
20.389408830887014
 20
-18.56855157185873
 30
0.0
 10
20.525402715636623
 20
-18.772080803462263
 30
0.0
 10
20.680691105915564
 20
-18.961300254499925
 30
0.0
 10
21.022561038178612
 20
-18.895836495750984
 30
0.0
 10
21.436655035695196
 20
-18.802400996024527
 30
0.0
 10
21.81829611262009
 20
-18.703060694922414
 30
0.0
 10
22.167572532145506
 20
-18.599831067176726
 30
0.0
 10
22.484669412244582
 20
-18.49471447092543
 30
0.0
 10
22.72283312117874
 20
-18.407015579133088
 30
0.0
 10
22.792293681929124
 20
-18.392738014571066
 30
0.0
 10
22.83723167051727
 20
-18.401911426152722
 30
0.0
 10
23.301340972671404
 20
-18.967430247085826
 30
0.0
 10
23.30157115305736
 20
-19.01329440864346
 30
0.0
 10
23.274016844760425
 20
-19.078634889546116
 30
0.0
 10
23.141539627884182
 20
-19.295113144537325
 30
0.0
 10
22.976580285106394
 20
-19.585609866387593
 30
0.0
 10
22.807193736553987
 20
-19.908035936131647
 30
0.0
 10
22.635307750890526
 20
-20.262963555446305
 30
0.0
 10
22.46288185676912
 20
-20.65087249118922
 30
0.0
 10
22.33198045061758
 20
-20.973402142785257
 30
0.0
 10
22.487268840896448
 20
-21.16262159382295
 30
0.0
 10
22.66035622461697
 20
-21.33570897754346
 30
0.0
 10
22.994163389285838
 20
-21.23705133156084
 30
0.0
 10
23.397105130532523
 20
-21.10347743983987
 30
0.0
 10
23.767171449125406
 20
-20.967208122447566
 30
0.0
 10
24.10464773431493
 20
-20.830240497748566
 30
0.0
 10
24.409914478099203
 20
-20.694549137244778
 30
0.0
 10
24.63833536909453
 20
-20.583928413906943
 30
0.0
 10
24.706062012210154
 20
-20.56291127419031
 30
0.0
 10
24.751682763670747
 20
-20.567635820154276
 30
0.0
 10
25.268987790311442
 20
-21.084940846795075
 30
0.0
 10
25.273712336275416
 20
-21.130561598255664
 30
0.0
 10
25.25269519659012
 20
-21.19828824138643
 30
0.0
 10
25.142074473220617
 20
-21.42670913236736
 30
0.0
 10
25.006383112717156
 20
-21.73197587615081
 30
0.0
 10
24.869415488018095
 20
-22.069452161340436
 30
0.0
 10
24.73314617062602
 20
-22.43951847993397
 30
0.0
 10
24.599572278903405
 20
-22.842460221185526
 30
0.0
 10
24.500914632922417
 20
-23.17626738584891
 30
0.0
 10
24.67400201664291
 20
-23.349354769569402
 30
0.0
 10
24.86322146768065
 20
-23.50464315984825
 30
0.0
 10
25.185751119281967
 20
-23.3737417536946
 30
0.0
 10
25.573660055020195
 20
-23.20131585957531
 30
0.0
 10
25.92858767433418
 20
-23.02942987391168
 30
0.0
 10
26.25101374407814
 20
-22.860043325359342
 30
0.0
 10
26.541510465929196
 20
-22.695083982581146
 30
0.0
 10
26.75798872093784
 20
-22.562606765735016
 30
0.0
 10
26.823329201822354
 20
-22.535052457408373
 30
0.0
 10
26.869193363379985
 20
-22.535282637794317
 30
0.0
 10
27.434712184312993
 20
-22.99939193994857
 30
0.0
 10
27.44388559589466
 20
-23.044329928536712
 30
0.0
 10
27.429608031365316
 20
-23.113790489299085
 30
0.0
 10
27.341909139540036
 20
-23.351954198222032
 30
0.0
 10
27.23679254328899
 20
-23.669051078320244
 30
0.0
 10
27.13356291554325
 20
-24.018327497845775
 30
0.0
 10
27.034222614441436
 20
-24.399968574771293
 30
0.0
 10
26.940787114713814
 20
-24.814062572292887
 30
0.0
 10
26.875323355965953
 20
-25.155932504550293
 30
0.0
 10
27.06454280700365
 20
-25.311220894829173
 30
0.0
 10
27.26807203860714
 20
-25.447214779578847
 30
0.0
 10
27.576218040283425
 20
-25.285330265353316
 30
0.0
 10
27.945358395409432
 20
-25.075712924453658
 30
0.0
 10
28.281729168447352
 20
-24.86986562652308
 30
0.0
 10
28.58599988343809
 20
-24.669691439176074
 30
0.0
 10
28.85892894112284
 20
-24.477052762770377
 30
0.0
 10
29.061379756210016
 20
-24.32399488043358
 30
0.0
 10
29.123704810313765
 20
-24.29016876654883
 30
0.0
 10
29.16937068502074
 20
-24.285902364593813
 30
0.0
 10
29.777657044856447
 20
-24.69234631597382
 30
0.0
 10
29.79119097708757
 20
-24.736168764293804
 30
0.0
 10
29.783790488465506
 20
-24.806694299516643
 30
0.0
 10
29.719858016453816
 20
-25.052307179671146
 30
0.0
 10
29.646328514739658
 20
-25.378180379786002
 30
0.0
 10
29.577831041693482
 20
-25.735893210793478
 30
0.0
 10
29.516376458286476
 20
-26.125433633853966
 30
0.0
 10
29.463979185493265
 20
-26.546691936082656
 30
0.0
 10
29.432339765761363
 20
-26.893332241601403
 30
0.0
 10
29.635868997364888
 20
-27.029326126351002
 30
0.0
 10
29.851747911773547
 20
-27.144715810119372
 30
0.0
 10
30.142542649078816
 20
-26.953407224189124
 30
0.0
 10
30.4893594001801
 20
-26.708617166090455
 30
0.0
 10
30.803933892518636
 20
-26.470790977899583
 30
0.0
 10
31.0871189594395
 20
-26.2417569386084
 30
0.0
 10
31.339851896934245
 20
-26.023294144336006
 30
0.0
 10
31.526325560079783
 20
-25.851129627585404
 30
0.0
 10
31.58503496306141
 20
-25.811357472110487
 30
0.0
 10
31.63006276358079
 20
-25.802635575597588
 30
0.0
 10
32.27525853215083
 20
-26.147499898766696
 30
0.0
 10
32.293022645865626
 20
-26.189784772685417
 30
0.0
 10
32.292570503901786
 20
-26.26069608291134
 30
0.0
 10
32.25302015635821
 20
-26.511392747995856
 30
0.0
 10
32.21178587847776
 20
-26.842903931069838
 30
0.0
 10
32.17868022824111
 20
-27.205608203450936
 30
0.0
 10
32.15570320376161
 20
-27.599296485427857
 30
0.0
 10
32.144848772283076
 20
-28.023662144629963
 30
0.0
 10
32.14733839647503
 20
-28.371734487775015
 30
0.0
 10
32.36321731088364
 20
-28.487124171543392
 30
0.0
 10
32.589366876140225
 20
-28.580798388597366
 30
0.0
 10
32.8600098367897
 20
-28.36190813722483
 30
0.0
 10
33.18116294896383
 20
-28.0843028240025
 30
0.0
 10
33.47091163627786
 20
-27.816788141752625
 30
0.0
 10
33.73028382812969
 20
-27.561099973518385
 30
0.0
 10
33.96038668908848
 20
-27.318916977512043
 30
0.0
 10
34.12908735697942
 20
-27.129303864758644
 30
0.0
 10
34.183615705194384
 20
-27.083968695292462
 30
0.0
 10
34.22757178919246
 20
-27.07087530085297
 30
0.0
 10
34.903463378545624
 20
-27.350838763857034
 30
0.0
 10
34.92528659561816
 20
-27.391178836923398
 30
0.0
 10
34.93178715468683
 20
-27.461793007470867
 30
0.0
 10
34.916999823078626
 20
-27.71515911155589
 30
0.0
 10
34.90845787766884
 20
-28.04911564367354
 30
0.0
 10
34.91106287575088
 20
-28.413318317010916
 30
0.0
 10
34.92678469150514
 20
-28.807363024536922
 30
0.0
 10
34.95757763545005
 20
-29.23074916743247
 30
0.0
 10
34.99417232712392
 20
-29.576901421263624
 30
0.0
 10
35.22032189238047
 20
-29.670575638317672
 30
0.0
 10
35.454564164545616
 20
-29.74163225473958
 30
0.0
 10
35.70244890887976
 20
-29.497268370702976
 30
0.0
 10
35.994845502096354
 20
-29.189521293277817
 30
0.0
 10
36.256977946134285
 20
-28.89489442959741
 30
0.0
 10
36.4900393669223
 20
-28.615014549253576
 30
0.0
 10
36.69529613500707
 20
-28.351443706155518
 30
0.0
 10
36.84459912799046
 20
-28.146208075328207
 30
0.0
 10
36.89442128363723
 20
-28.095746494335444
 30
0.0
 10
36.936882329996266
 20
-28.07840769851538
 30
0.0
 10
37.63696053464715
 20
-28.29077410016209
 30
0.0
 10
37.662632685567246
 20
-28.328780875420332
 30
0.0
 10
37.676023341731025
 20
-28.398417853225347
 30
0.0
 10
37.68614143614516
 20
-28.652013342224546
 30
0.0
 10
37.71037408680981
 20
-28.98519903942236
 30
0.0
 10
37.74866464565498
 20
-29.347392642878326
 30
0.0
 10
37.80293389196287
 20
-29.737998910013204
 30
0.0
 10
37.87507765844791
 20
-30.1563280965997
 30
0.0
 10
37.94542499071819
 20
-30.49722662568652
 30
0.0
 10
38.1796672628833
 20
-30.568283242108457
 30
0.0
 10
38.41974636082621
 20
-30.616037943838638
 30
0.0
 10
38.64248562324951
 20
-30.348553784924125
 30
0.0
 10
38.90330975847566
 20
-30.013628715883403
 30
0.0
 10
39.13530148050524
 20
-29.694727088529135
 30
0.0
 10
39.33980762134291
 20
-29.393350892321322
 30
0.0
 10
39.51824156167225
 20
-29.110930533433066
 30
0.0
 10
39.646709010308335
 20
-28.89204891584992
 30
0.0
 10
39.69134515879246
 20
-28.836946895940635
 30
0.0
 10
39.73190224442446
 20
-28.815529680822113
 30
0.0
 10
40.4494249285606
 20
-28.958253816572313
 30
0.0
 10
40.47869877648107
 20
-28.993561268000082
 30
0.0
 10
40.49885057040102
 20
-29.061550410898935
 30
0.0
 10
40.53377664805717
 20
-29.312933021623845
 30
0.0
 10
40.590550521123454
 20
-29.642139123499984
 30
0.0
 10
40.664157881718324
 20
-29.998835534678108
 30
0.0
 10
40.75645191607131
 20
-30.382241609542234
 30
0.0
 10
40.869251721187425
 20
-30.79148510107085
 30
0.0
 10
40.97267421078857
 20
-31.123846866224135
 30
0.0
 10
41.212753308731465
 20
-31.171601567954333
 30
0.0
 10
41.45635713949836
 20
-31.195594451109766
 30
0.0
 10
41.65180581915201
 20
-30.907566035989394
 30
0.0
 10
41.8785456173845
 20
-30.548688486836635
 30
0.0
 10
42.078162410303015
 20
-30.208583292809294
 30
0.0
 10
42.25214376525965
 20
-29.888613198255968
 30
0.0
 10
42.40203646144627
 20
-29.59006318602028
 30
0.0
 10
42.50843115397724
 20
-29.359643531311484
 30
0.0
 10
42.54745142478823
 20
-29.300431735059234
 30
0.0
 10
42.585713962787786
 20
-29.275142360131674
 30
0.0
 10
43.31377099072316
 20
-29.346849718537154
 30
0.0
 10
43.3463646124858
 20
-29.379117816076185
 30
0.0
 10
43.373083471370386
 20
-29.444804351456106
 30
0.0
 10
43.43248117504819
 20
-29.69155313194574
 30
0.0
 10
43.52124950708272
 20
-30.013609203776774
 30
0.0
 10
43.62946479030688
 20
-30.36137324124731
 30
0.0
 10
43.758894770701104
 20
-30.73388671374867
 30
0.0
 10
43.91126429066238
 20
-31.130103271680742
 30
0.0
 10
44.04676592248307
 20
-31.450727447414614
 30
0.0
 10
44.290369753249955
 20
-31.474720330570022
 30
0.0
 10
44.535152278783166
 20
-31.474720330570047
 30
0.0
 10
44.701428098038974
 20
-31.168921530333833
 30
0.0
 10
44.891899931072246
 20
-30.789547688049804
 30
0.0
 10
45.05721937604225
 20
-30.43151432628828
 30
0.0
 10
45.199000409561734
 20
-30.096031820313442
 30
0.0
 10
45.31890831300167
 20
-29.784227354552186
 30
0.0
 10
45.402205610377194
 20
-29.54448872995278
 30
0.0
 10
45.43523421697648
 20
-29.48173739932394
 30
0.0
 10
45.470833718186235
 20
-29.452819415092478
 30
0.0
 10
46.20241350274536
 20
-29.452819415092556
 30
0.0
 10
46.238013003955125
 20
-29.48173739932401
 30
0.0
 10
46.27104161058727
 20
-29.54448872994139
 30
0.0
 10
46.35433890793022
 20
-29.784227354553018
 30
0.0
 10
46.47424681136981
 20
-30.096031820313456
 30
0.0
 10
46.616027844889324
 20
-30.431514326288408
 30
0.0
 10
46.78134728985995
 20
-30.78954768805023
 30
0.0
 10
46.9718191228955
 20
-31.168921530338864
 30
0.0
 10
47.13809494214858
 20
-31.474720330570047
 30
0.0
 10
47.38287746768178
 20
-31.474720330570047
 30
0.0
 10
47.62648129844868
 20
-31.450727447414593
 30
0.0
 10
47.7619829302716
 20
-31.13010327167546
 30
0.0
 10
47.91435245023106
 20
-30.733886713748202
 30
0.0
 10
48.04378243062468
 20
-30.3613732412472
 30
0.0
 10
48.15199771384882
 20
-30.013609203776777
 30
0.0
 10
48.24076604588363
 20
-29.691553131944897
 30
0.0
 10
48.30016374959505
 20
-29.444804351464235
 30
0.0
 10
48.32688260844581
 20
-29.379117816076132
 30
0.0
 10
48.35947623020844
 20
-29.346849718537086
 30
0.0
 10
49.08753325814382
 20
-29.275142360131767
 30
0.0
 10
49.12579579614339
 20
-29.300431735059313
 30
0.0
 10
49.164816066985956
 20
-29.359643531296935
 30
0.0
 10
49.27121075948571
 20
-29.59006318602109
 30
0.0
 10
49.4211034556719
 20
-29.888613198256003
 30
0.0
 10
49.59508481062858
 20
-30.208583292809433
 30
0.0
 10
49.79470160354774
 20
-30.548688486837015
 30
0.0
 10
50.02144140178295
 20
-30.907566035994133
 30
0.0
 10
50.216890081433384
 20
-31.195594451109738
 30
0.0
 10
50.46049391220026
 20
-31.171601567954326
 30
0.0
 10
50.70057301014319
 20
-31.123846866224124
 30
0.0
 10
50.80399549974602
 20
-30.791485101065376
 30
0.0
 10
50.9167953048608
 20
-30.382241609541726
 30
0.0
 10
51.00908933921323
 20
-29.998835534678012
 30
0.0
 10
51.082696699808096
 20
-29.642139123500005
 30
0.0
 10
51.139470572874565
 20
-29.312933021623
 30
0.0
 10
51.17439665056505
 20
-29.06155041090372
 30
0.0
 10
51.19454844445053
 20
-28.99356126800004
 30
0.0
 10
51.22382229237099
 20
-28.958253816572263
 30
0.0
 10
51.94134497650715
 20
-28.815529680822205
 30
0.0
 10
51.98190206213916
 20
-28.83694689594072
 30
0.0
 10
52.026538210653285
 20
-28.89204891583236
 30
0.0
 10
52.15500565925981
 20
-29.110930533433848
 30
0.0
 10
52.33343959958864
 20
-29.393350892321372
 30
0.0
 10
52.537945740426366
 20
-29.69472708852929
 30
0.0
 10
52.769937462456625
 20
-30.013628715883733
 30
0.0
 10
53.0307615976859
 20
-30.348553784928527
 30
0.0
 10
53.25350086010556
 20
-30.616037943838677
 30
0.0
 10
53.49357995804846
 20
-30.568283242108485
 30
0.0
 10
53.72782223021357
 20
-30.49722662568651
 30
0.0
 10
53.798169562485
 20
-30.156328096594084
 30
0.0
 10
53.87031332896919
 20
-29.737998910012664
 30
0.0
 10
53.924582575276574
 20
-29.34739264287825
 30
0.0
 10
53.962873134121736
 20
-28.985199039422398
 30
0.0
 10
53.98710578478649
 20
-28.6520133422237
 30
0.0
 10
53.99722387923535
 20
-28.398417853226736
 30
0.0
 10
54.01061453536435
 20
-28.328780875420296
 30
0.0
 10
54.036286686284434
 20
-28.29077410016205
 30
0.0
 10
54.73636489093536
 20
-28.07840769851549
 30
0.0
 10
54.778825937294414
 20
-28.095746494335543
 30
0.0
 10
54.828648092969296
 20
-28.1462080753078
 30
0.0
 10
54.977951085925056
 20
-28.351443706156264
 30
0.0
 10
55.183207854009254
 20
-28.61501454925364
 30
0.0
 10
55.41626927479733
 20
-28.894894429597578
 30
0.0
 10
55.67840171883595
 20
-29.18952129327808
 30
0.0
 10
55.97079831205606
 20
-29.49726837070699
 30
0.0
 10
56.21868305638617
 20
-29.741632254739613
 30
0.0
 10
56.45292532855128
 20
-29.67057563831768
 30
0.0
 10
56.6790748938078
 20
-29.576901421263607
 30
0.0
 10
56.715669585482296
 20
-29.23074916742677
 30
0.0
 10
56.746462529426864
 20
-28.80736302453635
 30
0.0
 10
56.76218434518066
 20
-28.41331831701085
 30
0.0
 10
56.76478934326271
 20
-28.0491156436736
 30
0.0
 10
56.75624739785293
 20
-27.715159111555064
 30
0.0
 10
56.7414600662795
 20
-27.46179300746886
 30
0.0
 10
56.747960625313425
 20
-27.39117883692338
 30
0.0
 10
56.769783842385955
 20
-27.35083876385701
 30
0.0
 10
57.445675431739176
 20
-27.070875300853086
 30
0.0
 10
57.48963151573726
 20
-27.08396869529257
 30
0.0
 10
57.5441598639782
 20
-27.129303864735594
 30
0.0
 10
57.712860531843724
 20
-27.318916977512746
 30
0.0
 10
57.942963392801865
 20
-27.56109997351847
 30
0.0
 10
58.20233558465378
 20
-27.816788141752806
 30
0.0
 10
58.492084271968494
 20
-28.084302824002716
 30
0.0
 10
58.8132373841465
 20
-28.361908137228426
 30
0.0
 10
59.083880344791524
 20
-28.58079838859741
 30
0.0
 10
59.31002991004808
 20
-28.487124171543368
 30
0.0
 10
59.525908824456735
 20
-28.37173448777503
 30
0.0
 10
59.528398448648716
 20
-28.02366214462423
 30
0.0
 10
59.51754401717034
 20
-27.59929648542726
 30
0.0
 10
59.49456699269042
 20
-27.2056082034509
 30
0.0
 10
59.461461342453795
 20
-26.842903931069912
 30
0.0
 10
59.42022706457328
 20
-26.511392747995046
 30
0.0
 10
59.38067671706419
 20
-26.260696082905955
 30
0.0
 10
59.380224575065974
 20
-26.189784772685417
 30
0.0
 10
59.39798868878076
 20
-26.147499898766686
 30
0.0
 10
60.04318445735087
 20
-25.802635575597723
 30
0.0
 10
60.088212257870246
 20
-25.811357472110608
 30
0.0
 10
60.146921660875456
 20
-25.851129627559928
 30
0.0
 10
60.333395323998026
 20
-26.02329414433666
 30
0.0
 10
60.58612826149207
 20
-26.2417569386085
 30
0.0
 10
60.869313328413014
 20
-26.470790977899767
 30
0.0
 10
61.18388782075225
 20
-26.708617166090608
 30
0.0
 10
61.53070457185772
 20
-26.953407224192265
 30
0.0
 10
61.82149930915821
 20
-27.14471581011939
 30
0.0
 10
62.03737822356685
 20
-27.029326126351005
 30
0.0
 10
62.24090745517043
 20
-26.893332241601442
 30
0.0
 10
62.20926803543796
 20
-26.546691936076936
 30
0.0
 10
62.15687076264541
 20
-26.125433633853348
 30
0.0
 10
62.09541617923804
 20
-25.735893210793456
 30
0.0
 10
62.02691870619191
 20
-25.378180379786095
 30
0.0
 10
61.95338920447759
 20
-25.052307179670358
 30
0.0
 10
61.889456732499774
 20
-24.80669429950792
 30
0.0
 10
61.88205624384402
 20
-24.73616876429382
 30
0.0
 10
61.89559017607513
 20
-24.69234631597383
 30
0.0
 10
62.50387653591092
 20
-24.285902364593944
 30
0.0
 10
62.5495424106179
 20
-24.290168766548955
 30
0.0
 10
62.61186746474261
 20
-24.32399488040592
 30
0.0
 10
62.814318279809484
 20
-24.47705276277097
 30
0.0
 10
63.08724733749348
 20
-24.66969143917618
 30
0.0
 10
63.391518052484315
 20
-24.869865626523264
 30
0.0
 10
63.727888825522925
 20
-25.07571292445374
 30
0.0
 10
64.0970291806534
 20
-25.285330265355963
 30
0.0
 10
64.4051751823246
 20
-25.44721477957884
 30
0.0
 10
64.60870441392811
 20
-25.31122089482924
 30
0.0
 10
64.79792386496578
 20
-25.155932504550307
 30
0.0
 10
64.73246010621685
 20
-24.81406257228726
 30
0.0
 10
64.63902460649038
 20
-24.39996857477068
 30
0.0
 10
64.53968430538828
 20
-24.018327497845778
 30
0.0
 10
64.43645467764259
 20
-23.669051078320358
 30
0.0
 10
64.3313380813913
 20
-23.351954198221293
 30
0.0
 10
64.24363918959895
 20
-23.11379048928713
 30
0.0
 10
64.22936162503692
 20
-23.044329928536747
 30
0.0
 10
64.23853503661857
 20
-22.9993919399486
 30
0.0
 10
64.80405385755168
 20
-22.535282637794467
 30
0.0
 10
64.84991801910932
 20
-22.53505245740851
 30
0.0
 10
64.91525850001197
 20
-22.562606765705446
 30
0.0
 10
65.13173675500317
 20
-22.695083982581693
 30
0.0
 10
65.42223347685345
 20
-22.86004332535948
 30
0.0
 10
65.7446595465975
 20
-23.02942987391188
 30
0.0
 10
66.09958716591217
 20
-23.201315859575345
 30
0.0
 10
66.48749610165507
 20
-23.373741753696752
 30
0.0
 10
66.81002575325113
 20
-23.504643159848303
 30
0.0
 10
66.99924520428883
 20
-23.34935476956943
 30
0.0
 10
67.1723325880094
 20
-23.17626738584896
 30
0.0
 10
67.0736749420267
 20
-22.842460221180026
 30
0.0
 10
66.94010105030574
 20
-22.43951847993334
 30
0.0
 10
66.80383173291344
 20
-22.069452161340458
 30
0.0
 10
66.66686410821443
 20
-21.731975876150933
 30
0.0
 10
66.53117274771064
 20
-21.42670913236666
 30
0.0
 10
66.42055202437281
 20
-21.198288241371333
 30
0.0
 10
66.39953488465618
 20
-21.13056159825571
 30
0.0
 10
66.40425943062014
 20
-21.084940846795117
 30
0.0
 10
66.92156445726094
 20
-20.567635820154422
 30
0.0
 10
66.96718520872153
 20
-20.562911274190448
 30
0.0
 10
67.03491185185229
 20
-20.583928413875743
 30
0.0
 10
67.26333274283323
 20
-20.694549137245247
 30
0.0
 10
67.56859948661668
 20
-20.830240497748708
 30
0.0
 10
67.9060757718063
 20
-20.96720812244777
 30
0.0
 10
68.27614209039983
 20
-21.103477439839843
 30
0.0
 10
68.67908383165138
 20
-21.23705133156246
 30
0.0
 10
69.0128909963148
 20
-21.335708977543447
 30
0.0
 10
69.18597838003528
 20
-21.16262159382295
 30
0.0
 10
69.3412667703142
 20
-20.973402142785304
 30
0.0
 10
69.21036536416047
 20
-20.650872491183897
 30
0.0
 10
69.03793947004118
 20
-20.26296355544567
 30
0.0
 10
68.86605348437755
 20
-19.908035936131682
 30
0.0
 10
68.69666693582522
 20
-19.585609866387724
 30
0.0
 10
68.53170759304702
 20
-19.295113144536668
 30
0.0
 10
68.39923037620088
 20
-19.078634889528026
 30
0.0
 10
68.37167606787423
 20
-19.01329440864351
 30
0.0
 10
68.37190624826019
 20
-18.96743024708588
 30
0.0
 10
68.83601555041443
 20
-18.401911426152868
 30
0.0
 10
68.88095353900258
 20
-18.392738014571204
 30
0.0
 10
68.95041409976496
 20
-18.40701557910055
 30
0.0
 10
69.1885778086879
 20
-18.494714470925828
 30
0.0
 10
69.50567468878612
 20
-18.599831067176876
 30
0.0
 10
69.85495110831164
 20
-18.703060694922613
 30
0.0
 10
70.23659218523716
 20
-18.802400996024428
 30
0.0
 10
70.65068618275876
 20
-18.89583649575205
 30
0.0
 10
70.99255611501619
 20
-18.961300254499918
 30
0.0
 10
71.14784450529504
 20
-18.77208080346222
 30
0.0
 10
71.2838383900447
 20
-18.568551571858702
 30
0.0
 10
71.12195387581917
 20
-18.260405570182435
 30
0.0
 10
70.91233653491952
 20
-17.89126521505643
 30
0.0
 10
70.70648923698894
 20
-17.554894442018508
 30
0.0
 10
70.50631504964194
 20
-17.25062372702777
 30
0.0
 10
70.31367637323625
 20
-16.97769466934302
 30
0.0
 10
70.16061849089945
 20
-16.775243854255848
 30
0.0
 10
70.1267923770147
 20
-16.712918800152096
 30
0.0
 10
70.12252597505969
 20
-16.66725292544512
 30
0.0
 10
70.52896992643969
 20
-16.058966565609413
 30
0.0
 10
70.57279237475967
 20
-16.04543263337829
 30
0.0
 10
70.64331790998251
 20
-16.052833122000354
 30
0.0
 10
70.88893079013701
 20
-16.116765594012044
 30
0.0
 10
71.21480399025187
 20
-16.190295095726203
 30
0.0
 10
71.57251682125934
 20
-16.258792568772378
 30
0.0
 10
71.96205724431984
 20
-16.320247152179384
 30
0.0
 10
72.38331554654852
 20
-16.372644424972595
 30
0.0
 10
72.72995585206725
 20
-16.404283844704487
 30
0.0
 10
72.86594973681684
 20
-16.200754613100973
 30
0.0
 10
72.98133942058529
 20
-15.984875698692363
 30
0.0
 10
72.79003083465498
 20
-15.694080961387057
 30
0.0
 10
72.54524077655631
 20
-15.347264210285775
 30
0.0
 10
72.30741458836545
 20
-15.032689717947235
 30
0.0
 10
72.07838054907427
 20
-14.749504651026369
 30
0.0
 10
71.85991775480187
 20
-14.496771713531627
 30
0.0
 10
71.68775323805127
 20
-14.31029805038609
 30
0.0
 10
71.64798108257635
 20
-14.25158864740446
 30
0.0
 10
71.63925918606346
 20
-14.206560846885084
 30
0.0
 10
71.98412350923256
 20
-13.561365078315042
 30
0.0
 10
72.02640838315128
 20
-13.543600964600248
 30
0.0
 10
72.0973196933772
 20
-13.544053106564087
 30
0.0
 10
72.34801635846172
 20
-13.583603454107662
 30
0.0
 10
72.67952754153569
 20
-13.624837731988107
 30
0.0
 10
73.0422318139168
 20
-13.65794338222476
 30
0.0
 10
73.43592009589372
 20
-13.680920406704262
 30
0.0
 10
73.86028575509582
 20
-13.691774838182797
 30
0.0
 10
74.2083580982409
 20
-13.689285213990864
 30
0.0
 10
74.32374778200928
 20
-13.473406299582223
 30
0.0
 10
74.41742199906334
 20
-13.247256734325669
 30
0.0
 10
74.1985317476907
 20
-12.976613773676155
 30
0.0
 10
73.92092643446836
 20
-12.655460661502019
 30
0.0
 10
73.65341175221849
 20
-12.365711974187995
 30
0.0
 10
73.39772358398426
 20
-12.106339782336157
 30
0.0
 10
73.15554058797791
 20
-11.876236921377377
 30
0.0
 10
72.96592747522452
 20
-11.707536253486435
 30
0.0
 10
72.92059230575833
 20
-11.65300790527147
 30
0.0
 10
72.90749891131884
 20
-11.60905182127339
 30
0.0
 10
73.1874623743229
 20
-10.93316023192023
 30
0.0
 10
73.22780244738927
 20
-10.911337014847689
 30
0.0
 10
73.29841661793674
 20
-10.90483645577902
 30
0.0
 10
73.55178272202176
 20
-10.919623787387224
 30
0.0
 10
73.88573925413941
 20
-10.928165732797018
 30
0.0
 10
74.24994192747678
 20
-10.925560734714976
 30
0.0
 10
74.64398663500279
 20
-10.909838918960713
 30
0.0
 10
75.06737277789834
 20
-10.879045975015803
 30
0.0
 10
75.41352503172949
 20
-10.84245128334193
 30
0.0
 10
75.50719924878352
 20
-10.6163017180854
 30
0.0
 10
75.57825586520546
 20
-10.382059445920262
 30
0.0
 10
75.33389198116883
 20
-10.134174701586105
 30
0.0
 10
75.02614490374367
 20
-9.84177810836951
 30
0.0
 10
74.73151804006326
 20
-9.579645664331577
 30
0.0
 10
74.45163815971944
 20
-9.34658424354356
 30
0.0
 10
74.18806731662139
 20
-9.141327475458795
 30
0.0
 10
73.98283168579407
 20
-8.992024482475406
 30
0.0
 10
73.93237010480131
 20
-8.94220232682864
 30
0.0
 10
73.91503130898124
 20
-8.899741280469597
 30
0.0
 10
74.12739771062795
 20
-8.199663075818716
 30
0.0
 10
74.1654044858862
 20
-8.173990924898622
 30
0.0
 10
74.2350414636912
 20
-8.160600268734843
 30
0.0
 10
74.4886369526904
 20
-8.15048217432071
 30
0.0
 10
74.82182264988822
 20
-8.126249523656055
 30
0.0
 10
75.18401625334418
 20
-8.087958964810886
 30
0.0
 10
75.57462252047907
 20
-8.033689718502993
 30
0.0
 10
75.99295170706556
 20
-7.96154595201796
 30
0.0
 10
76.33385023615239
 20
-7.891198619747689
 30
0.0
 10
76.40490685257433
 20
-7.65695634758257
 30
0.0
 10
76.45266155430446
 20
-7.4168772496396445
 30
0.0
 10
76.18517739538999
 20
-7.194137987216353
 30
0.0
 10
75.85025232634926
 20
-6.933313851990211
 30
0.0
 10
75.531350698995
 20
-6.701322129960625
 30
0.0
 10
75.22997450278719
 20
-6.49681598912295
 30
0.0
 10
74.94755414389893
 20
-6.318382048793617
 30
0.0
 10
74.72867252631579
 20
-6.189914600157529
 30
0.0
 10
74.67357050640649
 20
-6.145278451673403
 30
0.0
 10
74.65215329128797
 20
-6.104721366041402
 30
0.0
 10
74.79487742703817
 20
-5.387198681905264
 30
0.0
 10
74.83018487846594
 20
-5.3579248339848
 30
0.0
 10
74.8981740213648
 20
-5.33777304006485
 30
0.0
 10
75.14955663208971
 20
-5.302846962408697
 30
0.0
 10
75.47876273396585
 20
-5.246073089342412
 30
0.0
 10
75.83545914514397
 20
-5.172465728747543
 30
0.0
 10
76.2188652200081
 20
-5.080171694394552
 30
0.0
 10
76.62810871153671
 20
-4.967371889278441
 30
0.0
 10
76.96047047669002
 20
-4.86394939967729
 30
0.0
 10
77.00822517842022
 20
-4.623870301734412
 30
0.0
 10
77.03221806157542
 20
-4.3802664709674906
 30
0.0
 10
76.74418964645525
 20
-4.18481779131386
 30
0.0
 10
76.38531209730249
 20
-3.958077993081371
 30
0.0
 10
76.04520690327516
 20
-3.758461200162854
 30
0.0
 10
75.72523680872183
 20
-3.584479845206218
 30
0.0
 10
75.42668679648614
 20
-3.434587149019601
 30
0.0
 10
75.19626714177734
 20
-3.3281924564886305
 30
0.0
 10
75.1370553455251
 20
-3.2891721856776464
 30
0.0
 10
75.11176597059753
 20
-3.2509096476780837
 30
0.0
 10
75.18347332900302
 20
-2.522852619742717
 30
0.0
 10
75.21574142654205
 20
-2.4902589979800713
 30
0.0
 10
75.28142796192196
 20
-2.463540139095489
 30
0.0
 10
75.5281767424116
 20
-2.404142435417684
 30
0.0
 10
75.85023281424264
 20
-2.3153741033831485
 30
0.0
 10
76.19799685171317
 20
-2.2071588201589867
 30
0.0
 10
76.57051032421452
 20
-2.0777288397647666
 30
0.0
 10
76.9667268821466
 20
-1.9253593198034944
 30
0.0
 10
77.2873510578805
 20
-1.7898576879828028
 30
0.0
 10
77.31134394103593
 20
-1.5462538572159135
 30
0.0
 10
77.31134394103591
 20
-1.3014713316826985
 30
0.0
 10
77.0055451407997
 20
-1.1351955124268938
 30
0.0
 10
76.62617129851567
 20
-0.9447236793936193
 30
0.0
 10
76.26813793675414
 20
-0.7794042344236154
 30
0.0
 10
75.9326554307793
 20
-0.6376232009041325
 30
0.0
 10
75.62085096501805
 20
-0.5177152974641936
 30
0.0
 10
75.38111234041864
 20
-0.4344180000886686
 30
0.0
 10
75.31836100978981
 20
-0.40138939348938596
 30
0.0
 10
75.28944302555834
 20
-0.3657898922796283
 30
0.0
 10
75.28944302555843
 20
0.3657898922794933
 30
0.0
 10
75.31836100978987
 20
0.40138939348926006
 30
0.0
 10
75.38111234040726
 20
0.4344180001214035
 30
0.0
 10
75.62085096501889
 20
0.5177152974643551
 30
0.0
 10
75.93265543077932
 20
0.6376232009039413
 30
0.0
 10
76.26813793675427
 20
0.7794042344234571
 30
0.0
 10
76.6261712985161
 20
0.944723679394085
 30
0.0
 10
77.00554514080473
 20
1.1351955124296405
 30
0.0
 10
77.31134394103591
 20
1.3014713316827085
 30
0.0
 10
77.31134394103591
 20
1.5462538572159252
 30
0.0
 10
77.28735105788054
 20
1.7898576879828347
 30
0.0
 10
76.96672688214132
 20
1.9253593198057488
 30
0.0
 10
76.57051032421406
 20
2.077728839765202
 30
0.0
 10
76.19799685171307
 20
2.2071588201588304
 30
0.0
 10
75.85023281424264
 20
2.31537410338297
 30
0.0
 10
75.52817674241075
 20
2.404142435417777
 30
0.0
 10
75.28142796193009
 20
2.4635401391291953
 30
0.0
 10
75.215741426542
 20
2.4902589979799528
 30
0.0
 10
75.18347332900295
 20
2.5228526197425882
 30
0.0
 10
75.11176597059762
 20
3.25090964767797
 30
0.0
 10
75.13705534552517
 20
3.2891721856775407
 30
0.0
 10
75.1962671417628
 20
3.3281924565201044
 30
0.0
 10
75.42668679648695
 20
3.4345871490198565
 30
0.0
 10
75.72523680872186
 20
3.5844798452060416
 30
0.0
 10
76.0452069032753
 20
3.758461200162722
 30
0.0
 10
76.38531209730287
 20
3.958077993081889
 30
0.0
 10
76.74418964646
 20
4.184817791317101
 30
0.0
 10
77.0322180615756
 20
4.380266470967532
 30
0.0
 10
77.00822517842019
 20
4.623870301734409
 30
0.0
 10
76.96047047669008
 20
4.8639493996773275
 30
0.0
 10
76.62810871153124
 20
4.967371889280168
 30
0.0
 10
76.21886522000759
 20
5.080171694394939
 30
0.0
 10
75.83545914514387
 20
5.172465728747377
 30
0.0
 10
75.47876273396587
 20
5.246073089342233
 30
0.0
 10
75.14955663208886
 20
5.302846962408708
 30
0.0
 10
74.89817402136958
 20
5.337773040099191
 30
0.0
 10
74.8301848784659
 20
5.357924833984676
 30
0.0
 10
74.79487742703813
 20
5.38719868190513
 30
0.0
 10
74.65215329128807
 20
6.104721366041298
 30
0.0
 10
74.67357050640658
 20
6.145278451673304
 30
0.0
 10
74.72867252629823
 20
6.189914600187425
 30
0.0
 10
74.94755414389971
 20
6.318382048793951
 30
0.0
 10
75.22997450278723
 20
6.496815989122778
 30
0.0
 10
75.53135069899515
 20
6.7013221299605075
 30
0.0
 10
75.85025232634959
 20
6.933313851990763
 30
0.0
 10
76.18517739539439
 20
7.194137987220043
 30
0.0
 10
76.45266155430454
 20
7.416877249639689
 30
0.0
 10
76.40490685257434
 20
7.65695634758258
 30
0.0
 10
76.33385023615232
 20
7.891198619747689
 30
0.0
 10
75.99295170705994
 20
7.961545952019141
 30
0.0
 10
75.57462252047853
 20
8.033689718503327
 30
0.0
 10
75.18401625334411
 20
8.08795896481071
 30
0.0
 10
74.82182264988826
 20
8.12624952365588
 30
0.0
 10
74.48863695268956
 20
8.150482174320635
 30
0.0
 10
74.2350414636926
 20
8.160600268769487
 30
0.0
 10
74.16540448588617
 20
8.17399092489849
 30
0.0
 10
74.12739771062792
 20
8.199663075818576
 30
0.0
 10
73.91503130898136
 20
8.899741280469502
 30
0.0
 10
73.93237010480141
 20
8.94220232682855
 30
0.0
 10
73.98283168577368
 20
8.992024482503435
 30
0.0
 10
74.18806731662212
 20
9.141327475459201
 30
0.0
 10
74.45163815971951
 20
9.346584243543393
 30
0.0
 10
74.73151804006343
 20
9.579645664331474
 30
0.0
 10
75.02614490374394
 20
9.841778108370093
 30
0.0
 10
75.33389198117285
 20
10.134174701590206
 30
0.0
 10
75.57825586520548
 20
10.38205944592029
 30
0.0
 10
75.50719924878355
 20
10.6163017180854
 30
0.0
 10
75.41352503172938
 20
10.842451283341912
 30
0.0
 10
75.06737277789264
 20
10.879045975016428
 30
0.0
 10
74.64398663500222
 20
10.909838918960995
 30
0.0
 10
74.24994192747673
 20
10.925560734714793
 30
0.0
 10
73.88573925413947
 20
10.928165732796849
 30
0.0
 10
73.55178272202093
 20
10.919623787387067
 30
0.0
 10
73.29841661793472
 20
10.904836455813635
 30
0.0
 10
73.22780244738925
 20
10.91133701484756
 30
0.0
 10
73.18746237432288
 20
10.933160231920088
 30
0.0
 10
72.90749891131895
 20
11.609051821273308
 30
0.0
 10
72.92059230575843
 20
11.653007905271393
 30
0.0
 10
72.96592747520145
 20
11.707536253512334
 30
0.0
 10
73.1555405879786
 20
11.876236921377856
 30
0.0
 10
73.39772358398434
 20
12.106339782335999
 30
0.0
 10
73.65341175221867
 20
12.365711974187912
 30
0.0
 10
73.92092643446858
 20
12.65546066150263
 30
0.0
 10
74.19853174769429
 20
12.976613773680631
 30
0.0
 10
74.41742199906327
 20
13.247256734325665
 30
0.0
 10
74.32374778200924
 20
13.473406299582212
 30
0.0
 10
74.20835809824088
 20
13.689285213990871
 30
0.0
 10
73.86028575509009
 20
13.691774838182848
 30
0.0
 10
73.43592009589312
 20
13.680920406704471
 30
0.0
 10
73.04223181391677
 20
13.657943382224559
 30
0.0
 10
72.67952754153578
 20
13.624837731987933
 30
0.0
 10
72.34801635846091
 20
13.583603454107415
 30
0.0
 10
72.09731969337182
 20
13.544053106598325
 30
0.0
 10
72.02640838315128
 20
13.543600964600106
 30
0.0
 10
71.98412350923255
 20
13.561365078314887
 30
0.0
 10
71.63925918606358
 20
14.206560846885003
 30
0.0
 10
71.64798108257648
 20
14.251588647404382
 30
0.0
 10
71.68775323802579
 20
14.310298050409589
 30
0.0
 10
71.85991775480252
 20
14.496771713532162
 30
0.0
 10
72.07838054907437
 20
14.749504651026207
 30
0.0
 10
72.30741458836563
 20
15.032689717947152
 30
0.0
 10
72.54524077655647
 20
15.347264210286385
 30
0.0
 10
72.79003083465813
 20
15.694080961391855
 30
0.0
 10
72.98133942058521
 20
15.984875698692331
 30
0.0
 10
72.86594973681683
 20
16.200754613100962
 30
0.0
 10
72.72995585206726
 20
16.404283844704512
 30
0.0
 10
72.3833155465428
 20
16.37264442497209
 30
0.0
 10
71.96205724431921
 20
16.320247152179544
 30
0.0
 10
71.57251682125933
 20
16.258792568772183
 30
0.0
 10
71.21480399025197
 20
16.19029509572604
 30
0.0
 10
70.88893079013623
 20
16.116765594011724
 30
0.0
 10
70.64331790997379
 20
16.05283312203391
 30
0.0
 10
70.57279237475969
 20
16.045432633378155
 30
0.0
 10
70.5289699264397
 20
16.058966565609264
 30
0.0
 10
70.12252597505982
 20
16.66725292544506
 30
0.0
 10
70.12679237701482
 20
16.712918800152035
 30
0.0
 10
70.16061849087178
 20
16.775243854276745
 30
0.0
 10
70.31367637323683
 20
16.97769466934362
 30
0.0
 10
70.50631504964204
 20
17.25062372702762
 30
0.0
 10
70.70648923698913
 20
17.55489444201845
 30
0.0
 10
70.9123365349196
 20
17.89126521505706
 30
0.0
 10
71.12195387582183
 20
18.26040557018753
 30
0.0
 10
71.2838383900447
 20
18.56855157185873
 30
0.0
 10
71.14784450529511
 20
18.772080803462245
 30
0.0
 10
70.99255611501621
 20
18.961300254499964
 30
0.0
 10
70.65068618275312
 20
18.895836495750974
 30
0.0
 10
70.23659218523655
 20
18.802400996024517
 30
0.0
 10
69.85495110831164
 20
18.703060694922407
 30
0.0
 10
69.50567468878623
 20
18.599831067176716
 30
0.0
 10
69.18857780868716
 20
18.494714470925423
 30
0.0
 10
68.95041409975299
 20
18.407015579133077
 30
0.0
 10
68.8809535390026
 20
18.39273801457106
 30
0.0
 10
68.83601555041446
 20
18.40191142615271
 30
0.0
 10
68.37190624826033
 20
18.967430247085815
 30
0.0
 10
68.37167606787438
 20
19.013294408643453
 30
0.0
 10
68.39923037617132
 20
19.078634889546105
 30
0.0
 10
68.53170759304756
 20
19.295113144537314
 30
0.0
 10
68.69666693582535
 20
19.585609866387582
 30
0.0
 10
68.86605348437774
 20
19.90803593613164
 30
0.0
 10
69.03793947004121
 20
20.262963555446298
 30
0.0
 10
69.21036536416261
 20
20.650872491189208
 30
0.0
 10
69.34126677031418
 20
20.97340214278526
 30
0.0
 10
69.1859783800353
 20
21.16262159382297
 30
0.0
 10
69.01289099631474
 20
21.335708977543412
 30
0.0
 10
68.6790838316459
 20
21.23705133156084
 30
0.0
 10
68.2761420903992
 20
21.10347743983987
 30
0.0
 10
67.90607577180633
 20
20.967208122447566
 30
0.0
 10
67.5685994866168
 20
20.830240497748566
 30
0.0
 10
67.26333274283253
 20
20.694549137244778
 30
0.0
 10
67.0349118518372
 20
20.583928413906943
 30
0.0
 10
66.96718520872157
 20
20.56291127419031
 30
0.0
 10
66.92156445726098
 20
20.567635820154276
 30
0.0
 10
66.40425943062029
 20
21.084940846795078
 30
0.0
 10
66.39953488465632
 20
21.130561598255667
 30
0.0
 10
66.42055202434162
 20
21.19828824138643
 30
0.0
 10
66.53117274771111
 20
21.42670913236736
 30
0.0
 10
66.66686410821458
 20
21.73197587615081
 30
0.0
 10
66.80383173291364
 20
22.069452161340436
 30
0.0
 10
66.94010105030571
 20
22.43951847993397
 30
0.0
 10
67.07367494202833
 20
22.84246022118553
 30
0.0
 10
67.17233258800931
 20
23.17626738584891
 30
0.0
 10
66.99924520428881
 20
23.349354769569416
 30
0.0
 10
66.81002575325107
 20
23.50464315984827
 30
0.0
 10
66.48749610164975
 20
23.37374175369461
 30
0.0
 10
66.09958716591152
 20
23.201315859575324
 30
0.0
 10
65.74465954659755
 20
23.029429873911692
 30
0.0
 10
65.42223347685358
 20
22.860043325359353
 30
0.0
 10
65.13173675500252
 20
22.69508398258116
 30
0.0
 10
64.91525849999388
 20
22.562606765735026
 30
0.0
 10
64.84991801910937
 20
22.535052457408383
 30
0.0
 10
64.80405385755174
 20
22.535282637794328
 30
0.0
 10
64.23853503661871
 20
22.99939193994858
 30
0.0
 10
64.22936162503706
 20
23.044329928536722
 30
0.0
 10
64.24363918956641
 20
23.113790489299095
 30
0.0
 10
64.33133808139168
 20
23.351954198222042
 30
0.0
 10
64.43645467764273
 20
23.669051078320255
 30
0.0
 10
64.53968430538848
 20
24.018327497845778
 30
0.0
 10
64.63902460649028
 20
24.399968574771304
 30
0.0
 10
64.7324601062179
 20
24.814062572292897
 30
0.0
 10
64.79792386496578
 20
25.155932504550325
 30
0.0
 10
64.6087044139281
 20
25.311220894829198
 30
0.0
 10
64.40517518232454
 20
25.44721477957879
 30
0.0
 10
64.09702918064829
 20
25.285330265353313
 30
0.0
 10
63.72788882552229
 20
25.075712924453654
 30
0.0
 10
63.39151805248437
 20
24.869865626523076
 30
0.0
 10
63.087247337493636
 20
24.669691439176074
 30
0.0
 10
62.81431827980889
 20
24.477052762770377
 30
0.0
 10
62.61186746472171
 20
24.32399488043358
 30
0.0
 10
62.54954241061796
 20
24.29016876654883
 30
0.0
 10
62.50387653591098
 20
24.285902364593813
 30
0.0
 10
61.895590176075274
 20
24.69234631597382
 30
0.0
 10
61.882056243844154
 20
24.736168764293804
 30
0.0
 10
61.889456732466215
 20
24.806694299516643
 30
0.0
 10
61.95338920447791
 20
25.052307179671146
 30
0.0
 10
62.02691870619206
 20
25.378180379786002
 30
0.0
 10
62.09541617923824
 20
25.735893210793478
 30
0.0
 10
62.15687076264525
 20
26.125433633853966
 30
0.0
 10
62.209268035438456
 20
26.546691936082656
 30
0.0
 10
62.24090745517037
 20
26.893332241601385
 30
0.0
 10
62.03737822356685
 20
27.02932612635099
 30
0.0
 10
61.82149930915824
 20
27.144715810119422
 30
0.0
 10
61.53070457185292
 20
26.95340722418912
 30
0.0
 10
61.183887820751636
 20
26.708617166090452
 30
0.0
 10
60.8693133284131
 20
26.470790977899583
 30
0.0
 10
60.586128261492235
 20
26.241756938608397
 30
0.0
 10
60.33339532399749
 20
26.023294144336003
 30
0.0
 10
60.14692166085196
 20
25.851129627585404
 30
0.0
 10
60.088212257870325
 20
25.811357472110487
 30
0.0
 10
60.04318445735095
 20
25.802635575597588
 30
0.0
 10
59.397988688780906
 20
26.147499898766693
 30
0.0
 10
59.380224575066116
 20
26.189784772685414
 30
0.0
 10
59.38067671702995
 20
26.260696082911338
 30
0.0
 10
59.420227064573524
 20
26.511392747995853
 30
0.0
 10
59.46146134245397
 20
26.84290393106983
 30
0.0
 10
59.49456699269062
 20
27.205608203450936
 30
0.0
 10
59.517544017170124
 20
27.599296485427853
 30
0.0
 10
59.52839844864866
 20
28.02366214462996
 30
0.0
 10
59.52590882445672
 20
28.371734487775
 30
0.0
 10
59.31002991004808
 20
28.487124171543382
 30
0.0
 10
59.08388034479149
 20
28.58079838859735
 30
0.0
 10
58.81323738414202
 20
28.361908137224834
 30
0.0
 10
58.49208427196788
 20
28.0843028240025
 30
0.0
 10
58.20233558465386
 20
27.816788141752628
 30
0.0
 10
57.94296339280202
 20
27.561099973518388
 30
0.0
 10
57.71286053184325
 20
27.318916977512046
 30
0.0
 10
57.5441598639523
 20
27.12930386475865
 30
0.0
 10
57.48963151573734
 20
27.083968695292466
 30
0.0
 10
57.445675431739254
 20
27.070875300852972
 30
0.0
 10
56.7697838423861
 20
27.350838763857038
 30
0.0
 10
56.74796062531355
 20
27.3911788369234
 30
0.0
 10
56.74146006624488
 20
27.46179300747087
 30
0.0
 10
56.75624739785309
 20
27.715159111555895
 30
0.0
 10
56.76478934326288
 20
28.049115643673545
 30
0.0
 10
56.76218434518084
 20
28.41331831701092
 30
0.0
 10
56.74646252942658
 20
28.807363024536926
 30
0.0
 10
56.71566958548167
 20
29.230749167432474
 30
0.0
 10
56.6790748938078
 20
29.576901421263624
 30
0.0
 10
56.452925328551274
 20
29.670575638317665
 30
0.0
 10
56.21868305638614
 20
29.7416322547396
 30
0.0
 10
55.97079831205197
 20
29.497268370702972
 30
0.0
 10
55.678401718835374
 20
29.189521293277814
 30
0.0
 10
55.41626927479744
 20
28.894894429597407
 30
0.0
 10
55.183207854009424
 20
28.615014549253573
 30
0.0
 10
54.97795108592466
 20
28.351443706155514
 30
0.0
 10
54.82864809294127
 20
28.146208075328204
 30
0.0
 10
54.778825937294506
 20
28.09574649433544
 30
0.0
 10
54.73636489093546
 20
28.078407698515377
 30
0.0
 10
54.03628668628458
 20
28.290774100162086
 30
0.0
 10
54.01061453536449
 20
28.32878087542033
 30
0.0
 10
53.99722387920071
 20
28.39841785322534
 30
0.0
 10
53.98710578478658
 20
28.652013342224542
 30
0.0
 10
53.96287313412192
 20
28.985199039422355
 30
0.0
 10
53.92458257527675
 20
29.347392642878322
 30
0.0
 10
53.87031332896886
 20
29.7379989100132
 30
0.0
 10
53.79816956248383
 20
30.156328096599697
 30
0.0
 10
53.72782223021356
 20
30.497226625686523
 30
0.0
 10
53.49357995804846
 20
30.568283242108457
 30
0.0
 10
53.25350086010554
 20
30.616037943838617
 30
0.0
 10
53.030761597682236
 20
30.348553784924125
 30
0.0
 10
52.76993746245609
 20
30.013628715883396
 30
0.0
 10
52.53794574042651
 20
29.694727088529135
 30
0.0
 10
52.33343959958883
 20
29.393350892321322
 30
0.0
 10
52.155005659259494
 20
29.110930533433063
 30
0.0
 10
52.02653821062341
 20
28.892048915849916
 30
0.0
 10
51.981902062139284
 20
28.83694689594063
 30
0.0
 10
51.94134497650728
 20
28.815529680822106
 30
0.0
 10
51.22382229237114
 20
28.958253816572313
 30
0.0
 10
51.194548444450675
 20
28.993561268000075
 30
0.0
 10
51.17439665053073
 20
29.06155041089893
 30
0.0
 10
51.13947057287458
 20
29.312933021623838
 30
0.0
 10
51.08269669980829
 20
29.642139123499984
 30
0.0
 10
51.009089339213425
 20
29.998835534678104
 30
0.0
 10
50.91679530486043
 20
30.382241609542234
 30
0.0
 10
50.80399549974432
 20
30.791485101070847
 30
0.0
 10
50.700573010143174
 20
31.12384686622415
 30
0.0
 10
50.46049391220027
 20
31.171601567954347
 30
0.0
 10
50.216890081433355
 20
31.19559445110971
 30
0.0
 10
50.02144140177971
 20
30.907566035989394
 30
0.0
 10
49.794701603547225
 20
30.548688486836635
 30
0.0
 10
49.595084810628705
 20
30.208583292809294
 30
0.0
 10
49.42110345567207
 20
29.888613198255968
 30
0.0
 10
49.271210759485456
 20
29.59006318602028
 30
0.0
 10
49.16481606695449
 20
29.359643531311484
 30
0.0
 10
49.1257957961435
 20
29.300431735059238
 30
0.0
 10
49.087533258143935
 20
29.275142360131674
 30
0.0
 10
48.35947623020857
 20
29.346849718537154
 30
0.0
 10
48.32688260844593
 20
29.379117816076185
 30
0.0
 10
48.30016374956134
 20
29.444804351456106
 30
0.0
 10
48.24076604588354
 20
29.69155313194574
 30
0.0
 10
48.151997713849
 20
30.013609203776774
 30
0.0
 10
48.04378243062484
 20
30.36137324124731
 30
0.0
 10
47.914352450230616
 20
30.73388671374867
 30
0.0
 10
47.76198293026935
 20
31.130103271680742
 30
0.0
 10
47.62648129844866
 20
31.45072744741461
 30
0.0
 10
47.38287746768178
 20
31.474720330570022
 30
0.0
 10
47.13809494214856
 20
31.474720330570047
 30
0.0
 10
46.97181912289276
 20
31.168921530333833
 30
0.0
 10
46.78134728985948
 20
30.789547688049808
 30
0.0
 10
46.61602784488948
 20
30.43151432628828
 30
0.0
 10
46.47424681137
 20
30.096031820313442
 30
0.0
 10
46.35433890793006
 20
29.784227354552186
 30
0.0
 10
46.27104161055453
 20
29.54448872995278
 30
0.0
 10
46.23801300395525
 20
29.48173739932394
 30
0.0
 10
46.20241350274549
 20
29.452819415092478
 30
0.0
 10
45.47083371818637
 20
29.452819415092556
 30
0.0
 10
45.4352342169766
 20
29.48173739932401
 30
0.0
 10
45.40220561034446
 20
29.54448872994139
 30
0.0
 10
45.31890831300151
 20
29.784227354553018
 30
0.0
 10
45.199000409561926
 20
30.096031820313456
 30
0.0
 10
45.05721937604241
 20
30.431514326288408
 30
0.0
 10
44.891899931071784
 20
30.78954768805023
 30
0.0
 10
44.701428098036224
 20
31.168921530338864
 30
0.0
 10
44.53515227878316
 20
31.474720330570047
 30
0.0
 10
44.29036975324994
 20
31.474720330570047
 30
0.0
 10
44.04676592248304
 20
31.450727447414586
 30
0.0
 10
43.911264290660114
 20
31.130103271675456
 30
0.0
 10
43.758894770700664
 20
30.733886713748195
 30
0.0
 10
43.62946479030703
 20
30.361373241247197
 30
0.0
 10
43.5212495070829
 20
30.013609203776774
 30
0.0
 10
43.43248117504809
 20
29.691553131944893
 30
0.0
 10
43.37308347133667
 20
29.44480435146423
 30
0.0
 10
43.346364612485914
 20
29.37911781607613
 30
0.0
 10
43.31377099072328
 20
29.346849718537083
 30
0.0
 10
42.58571396278789
 20
29.275142360131763
 30
0.0
 10
42.54745142478833
 20
29.30043173505931
 30
0.0
 10
42.508431153945764
 20
29.359643531296932
 30
0.0
 10
42.40203646144601
 20
29.590063186021087
 30
0.0
 10
42.252143765259824
 20
29.888613198256
 30
0.0
 10
42.07816241030314
 20
30.20858329280943
 30
0.0
 10
41.87854561738398
 20
30.548688486837012
 30
0.0
 10
41.65180581914876
 20
30.90756603599413
 30
0.0
 10
41.45635713949834
 20
31.195594451109734
 30
0.0
 10
41.21275330873145
 20
31.171601567954323
 30
0.0
 10
40.972674210788554
 20
31.123846866224135
 30
0.0
 10
40.8692517211857
 20
30.791485101065376
 30
0.0
 10
40.75645191607093
 20
30.382241609541726
 30
0.0
 10
40.66415788171849
 20
29.998835534678012
 30
0.0
 10
40.59055052112363
 20
29.642139123500005
 30
0.0
 10
40.533776648057156
 20
29.312933021623
 30
0.0
 10
40.49885057036668
 20
29.06155041090372
 30
0.0
 10
40.47869877648119
 20
28.99356126800004
 30
0.0
 10
40.44942492856074
 20
28.958253816572267
 30
0.0
 10
39.73190224442457
 20
28.815529680822205
 30
0.0
 10
39.69134515879256
 20
28.83694689594072
 30
0.0
 10
39.64670901027844
 20
28.89204891583236
 30
0.0
 10
39.518241561671914
 20
29.110930533433848
 30
0.0
 10
39.339807621343084
 20
29.393350892321372
 30
0.0
 10
39.13530148050536
 20
29.69472708852929
 30
0.0
 10
38.9033097584751
 20
30.013628715883733
 30
0.0
 10
38.642485623245825
 20
30.348553784928527
 30
0.0
 10
38.41974636082618
 20
30.616037943838677
 30
0.0
 10
38.17966726288331
 20
30.568283242108492
 30
0.0
 10
37.94542499071818
 20
30.497226625686473
 30
0.0
 10
37.87507765844674
 20
30.156328096594084
 30
0.0
 10
37.80293389196255
 20
29.737998910012667
 30
0.0
 10
37.74866464565517
 20
29.347392642878255
 30
0.0
 10
37.71037408681
 20
28.9851990394224
 30
0.0
 10
37.68614143614525
 20
28.652013342223704
 30
0.0
 10
37.67602334169639
 20
28.39841785322674
 30
0.0
 10
37.66263268556739
 20
28.3287808754203
 30
0.0
 10
37.6369605346473
 20
28.290774100162054
 30
0.0
 10
36.93688232999638
 20
28.078407698515495
 30
0.0
 10
36.89442128363733
 20
28.095746494335543
 30
0.0
 10
36.84459912796244
 20
28.146208075307804
 30
0.0
 10
36.69529613500668
 20
28.35144370615627
 30
0.0
 10
36.49003936692249
 20
28.615014549253644
 30
0.0
 10
36.256977946134405
 20
28.89489442959758
 30
0.0
 10
35.994845502095785
 20
29.189521293278084
 30
0.0
 10
35.702448908875674
 20
29.497268370706994
 30
0.0
 10
35.45456416454559
 20
29.741632254739613
 30
0.0
 10
35.220321892380454
 20
29.670575638317676
 30
0.0
 10
34.99417232712391
 20
29.576901421263592
 30
0.0
 10
34.957577635449425
 20
29.23074916742677
 30
0.0
 10
34.92678469150486
 20
28.807363024536347
 30
0.0
 10
34.91106287575106
 20
28.413318317010848
 30
0.0
 10
34.908457877669
 20
28.049115643673595
 30
0.0
 10
34.91699982307878
 20
27.71515911155506
 30
0.0
 10
34.93178715465222
 20
27.46179300746886
 30
0.0
 10
34.925286595618296
 20
27.391178836923377
 30
0.0
 10
34.903463378545766
 20
27.35083876385701
 30
0.0
 10
34.227571789192545
 20
27.070875300853082
 30
0.0
 10
34.18361570519446
 20
27.083968695292565
 30
0.0
 10
34.12908735695352
 20
27.12930386473559
 30
0.0
 10
33.960386689088
 20
27.318916977512743
 30
0.0
 10
33.730283828129856
 20
27.561099973518466
 30
0.0
 10
33.47091163627795
 20
27.816788141752802
 30
0.0
 10
33.18116294896323
 20
28.08430282400271
 30
0.0
 10
32.860009836785224
 20
28.361908137228422
 30
0.0
 10
32.58936687614018
 20
28.58079838859744
 30
0.0
 10
32.36321731088364
 20
28.487124171543407
 30
0.0
 10
32.147338396474986
 20
28.371734487775065
 30
0.0
 10
32.14484877228302
 20
28.023662144624232
 30
0.0
 10
32.15570320376139
 20
27.59929648542726
 30
0.0
 10
32.178680228241305
 20
27.2056082034509
 30
0.0
 10
32.21178587847793
 20
26.842903931069912
 30
0.0
 10
32.25302015635845
 20
26.511392747995046
 30
0.0
 10
32.29257050386754
 20
26.260696082905955
 30
0.0
 10
32.29302264586576
 20
26.189784772685417
 30
0.0
 10
32.27525853215098
 20
26.147499898766686
 30
0.0
 10
31.630062763580863
 20
25.802635575597723
 30
0.0
 10
31.58503496306148
 20
25.811357472110608
 30
0.0
 10
31.52632556005628
 20
25.851129627559928
 30
0.0
 10
31.339851896933702
 20
26.02329414433666
 30
0.0
 10
31.087118959439657
 20
26.2417569386085
 30
0.0
 10
30.803933892518714
 20
26.470790977899767
 30
0.0
 10
30.48935940017948
 20
26.708617166090608
 30
0.0
 10
30.142542649074013
 20
26.953407224192265
 30
0.0
 10
29.85174791177352
 20
27.14471581011939
 30
0.0
 10
29.635868997364906
 20
27.02932612635101
 30
0.0
 10
29.432339765761355
 20
26.893332241601414
 30
0.0
 10
29.463979185493784
 20
26.546691936076947
 30
0.0
 10
29.516376458286334
 20
26.12543363385336
 30
0.0
 10
29.577831041693695
 20
25.73589321079347
 30
0.0
 10
29.64632851473984
 20
25.3781803797861
 30
0.0
 10
29.71985801645415
 20
25.05230717967037
 30
0.0
 10
29.783790488431965
 20
24.806694299507928
 30
0.0
 10
29.791190977087723
 20
24.73616876429383
 30
0.0
 10
29.77765704485661
 20
24.692346315973836
 30
0.0
 10
29.169370685020816
 20
24.28590236459396
 30
0.0
 10
29.123704810313843
 20
24.29016876654896
 30
0.0
 10
29.061379756189133
 20
24.32399488040593
 30
0.0
 10
28.858928941122254
 20
24.477052762770985
 30
0.0
 10
28.58599988343826
 20
24.66969143917619
 30
0.0
 10
28.281729168447427
 20
24.869865626523275
 30
0.0
 10
27.945358395408817
 20
25.075712924453754
 30
0.0
 10
27.57621804027835
 20
25.285330265355974
 30
0.0
 10
27.26807203860718
 20
25.447214779578815
 30
0.0
 10
27.06454280700364
 20
25.311220894829198
 30
0.0
 10
26.875323355965907
 20
25.15593250455034
 30
0.0
 10
26.94078711471488
 20
24.814062572287252
 30
0.0
 10
27.034222614441337
 20
24.399968574770668
 30
0.0
 10
27.13356291554345
 20
24.018327497845775
 30
0.0
 10
27.236792543289138
 20
23.669051078320358
 30
0.0
 10
27.341909139540434
 20
23.351954198221282
 30
0.0
 10
27.429608031332776
 20
23.113790489287123
 30
0.0
 10
27.4438855958948
 20
23.04432992853674
 30
0.0
 10
27.434712184313142
 20
22.999391939948595
 30
0.0
 10
26.869193363380038
 20
22.53528263779446
 30
0.0
 10
26.823329201822403
 20
22.535052457408504
 30
0.0
 10
26.757988720919748
 20
22.56260676570544
 30
0.0
 10
26.54151046592854
 20
22.695083982581682
 30
0.0
 10
26.25101374407827
 20
22.86004332535947
 30
0.0
 10
25.928587674334217
 20
23.029429873911877
 30
0.0
 10
25.57366005501956
 20
23.201315859575338
 30
0.0
 10
25.185751119276645
 20
23.373741753696745
 30
0.0
 10
24.863221467680603
 20
23.504643159848285
 30
0.0
 10
24.674002016642902
 20
23.3493547695694
 30
0.0
 10
24.50091463292241
 20
23.17626738584886
 30
0.0
 10
24.599572278905008
 20
22.842460221180012
 30
0.0
 10
24.733146170625975
 20
22.439518479933323
 30
0.0
 10
24.86941548801828
 20
22.069452161340443
 30
0.0
 10
25.00638311271728
 20
21.73197587615092
 30
0.0
 10
25.142074473221072
 20
21.426709132366643
 30
0.0
 10
25.252695196558907
 20
21.19828824137132
 30
0.0
 10
25.27371233627554
 20
21.130561598255692
 30
0.0
 10
25.268987790311574
 20
21.0849408467951
 30
0.0
 10
24.75168276367077
 20
20.567635820154408
 30
0.0
 10
24.70606201221018
 20
20.562911274190434
 30
0.0
 10
24.63833536907942
 20
20.583928413875725
 30
0.0
 10
24.409914478098486
 20
20.694549137245232
 30
0.0
 10
24.104647734315037
 20
20.83024049774869
 30
0.0
 10
23.76717144912541
 20
20.96720812244775
 30
0.0
 10
23.39710513053188
 20
21.103477439839825
 30
0.0
 10
22.994163389280317
 20
21.237051331562437
 30
0.0
 10
22.66035622461694
 20
21.33570897754343
 30
0.0
 10
22.487268840896473
 20
21.162621593822966
 30
0.0
 10
22.331980450617582
 20
20.973402142785257
 30
0.0
 10
22.46288185677128
 20
20.650872491183907
 30
0.0
 10
22.635307750890565
 20
20.262963555445683
 30
0.0
 10
22.807193736554197
 20
19.908035936131693
 30
0.0
 10
22.976580285106532
 20
19.58560986638774
 30
0.0
 10
23.141539627884725
 20
19.295113144536682
 30
0.0
 10
23.27401684473086
 20
19.07863488952804
 30
0.0
 10
23.301571153057502
 20
19.013294408643524
 30
0.0
 10
23.301340972671557
 20
18.967430247085893
 30
0.0
 10
22.8372316705173
 20
18.401911426152886
 30
0.0
 10
22.79229368192916
 20
18.392738014571215
 30
0.0
 10
22.72283312116679
 20
18.407015579100563
 30
0.0
 10
22.484669412243846
 20
18.494714470925842
 30
0.0
 10
22.167572532145623
 20
18.59983106717689
 30
0.0
 10
21.8182961126201
 20
18.70306069492263
 30
0.0
 10
21.436655035694578
 20
18.802400996024442
 30
0.0
 10
21.022561038172984
 20
18.895836495752064
 30
0.0
 10
20.680691105915546
 20
18.96130025449995
 30
0.0
 10
20.52540271563666
 20
18.77208080346224
 30
0.0
 10
20.389408830887103
 20
18.56855157185867
 30
0.0
 10
20.55129334511255
 20
18.260405570182435
 30
0.0
 10
20.76091068601221
 20
17.89126521505643
 30
0.0
 10
20.966757983942788
 20
17.554894442018504
 30
0.0
 10
21.16693217128979
 20
17.25062372702777
 30
0.0
 10
21.359570847695487
 20
16.97769466934302
 30
0.0
 10
21.512628730032283
 20
16.775243854255848
 30
0.0
 10
21.546454843917033
 20
16.712918800152096
 30
0.0
 10
21.55072124587205
 20
16.66725292544512
 30
0.0
 10
21.144277294492046
 20
16.058966565609413
 30
0.0
 10
21.10045484617206
 20
16.04543263337829
 30
0.0
 10
21.02992931094922
 20
16.052833122000354
 30
0.0
 10
20.784316430794718
 20
16.116765594012044
 30
0.0
 10
20.458443230679862
 20
16.190295095726203
 30
0.0
 10
20.100730399672386
 20
16.258792568772378
 30
0.0
 10
19.711189976611898
 20
16.320247152179384
 30
0.0
 10
19.289931674383208
 20
16.372644424972595
 30
0.0
 10
18.943291368864475
 20
16.40428384470451
 30
0.0
 10
18.807297484114855
 20
16.20075461310097
 30
0.0
 10
18.691907800346463
 20
15.984875698692326
 30
0.0
 10
18.883216386276732
 20
15.694080961387034
 30
0.0
 10
19.128006444375398
 20
15.34726421028575
 30
0.0
 10
19.365832632566274
 20
15.032689717947214
 30
0.0
 10
19.59486667185746
 20
14.749504651026347
 30
0.0
 10
19.81332946612985
 20
14.496771713531604
 30
0.0
 10
19.985493982880453
 20
14.310298050386068
 30
0.0
 10
20.025266138355367
 20
14.251588647404441
 30
0.0
 10
20.033988034868266
 20
14.206560846885065
 30
0.0
 10
19.689123711699168
 20
13.56136507831502
 30
0.0
 10
19.64683883778044
 20
13.543600964600227
 30
0.0
 10
19.575927527554516
 20
13.544053106564064
 30
0.0
 10
19.32523086247
 20
13.58360345410764
 30
0.0
 10
18.993719679396023
 20
13.624837731988084
 30
0.0
 10
18.631015407014925
 20
13.657943382224738
 30
0.0
 10
18.237327125038
 20
13.680920406704239
 30
0.0
 10
17.812961465835894
 20
13.691774838182775
 30
0.0
 10
17.464889122690828
 20
13.689285213990834
 30
0.0
 10
17.349499438922454
 20
13.473406299582221
 30
0.0
 10
17.255825221868477
 20
13.247256734325635
 30
0.0
 10
17.47471547324103
 20
12.976613773676158
 30
0.0
 10
17.752320786463365
 20
12.655460661502023
 30
0.0
 10
18.019835468713236
 20
12.365711974187999
 30
0.0
 10
18.275523636947476
 20
12.10633978233616
 30
0.0
 10
18.517706632953818
 20
11.87623692137738
 30
0.0
 10
18.707319745707213
 20
11.707536253486438
 30
0.0
 10
18.752654915173398
 20
11.653007905271474
 30
0.0
 10
18.765748309612892
 20
11.609051821273393
 30
0.0
 10
18.485784846608826
 20
10.933160231920233
 30
0.0
 10
18.445444773542462
 20
10.91133701484769
 30
0.0
 10
18.374830602994994
 20
10.904836455779023
 30
0.0
 10
18.12146449890997
 20
10.919623787387227
 30
0.0
 10
17.78750796679232
 20
10.928165732797021
 30
0.0
 10
17.423305293454945
 20
10.92556073471498
 30
0.0
 10
17.029260585928938
 20
10.909838918960716
 30
0.0
 10
16.60587444303339
 20
10.879045975015806
 30
0.0
 10
16.259722189202225
 20
10.84245128334194
 30
0.0
 10
16.166047972148185
 20
10.61630171808541
 30
0.0
 10
16.09499135572628
 20
10.382059445920268
 30
0.0
 10
16.33935523976289
 20
10.134174701586108
 30
0.0
 10
16.64710231718805
 20
9.841778108369514
 30
0.0
 10
16.941729180868453
 20
9.579645664331581
 30
0.0
 10
17.22160906121229
 20
9.346584243543562
 30
0.0
 10
17.48517990431035
 20
9.141327475458798
 30
0.0
 10
17.69041553513766
 20
8.99202448247541
 30
0.0
 10
17.740877116130424
 20
8.942202326828644
 30
0.0
 10
17.758215911950487
 20
8.899741280469598
 30
0.0
 10
17.54584951030378
 20
8.19966307581872
 30
0.0
 10
17.507842735045536
 20
8.173990924898623
 30
0.0
 10
17.438205757240524
 20
8.160600268734846
 30
0.0
 10
17.18461026824132
 20
8.150482174320713
 30
0.0
 10
16.85142457104351
 20
8.126249523656059
 30
0.0
 10
16.489230967587538
 20
8.08795896481089
 30
0.0
 10
16.098624700452664
 20
8.033689718502997
 30
0.0
 10
15.680295513866167
 20
7.961545952017963
 30
0.0
 10
15.339396984779343
 20
7.891198619747692
 30
0.0
 10
15.268340368357405
 20
7.656956347582584
 30
0.0
 10
15.220585666627503
 20
7.41687724963962
 30
0.0
 10
15.48806982554174
 20
7.1941379872163695
 30
0.0
 10
15.822994894582468
 20
6.933313851990227
 30
0.0
 10
16.14189652193673
 20
6.7013221299606425
 30
0.0
 10
16.44327271814454
 20
6.496815989122968
 30
0.0
 10
16.7256930770328
 20
6.318382048793634
 30
0.0
 10
16.944574694615948
 20
6.189914600157545
 30
0.0
 10
16.999676714525233
 20
6.145278451673419
 30
0.0
 10
17.021093929643758
 20
6.104721366041419
 30
0.0
 10
16.878369793893555
 20
5.38719868190528
 30
0.0
 10
16.84306234246579
 20
5.357924833984816
 30
0.0
 10
16.775073199566933
 20
5.337773040064867
 30
0.0
 10
16.523690588842026
 20
5.302846962408714
 30
0.0
 10
16.19448448696588
 20
5.2460730893424286
 30
0.0
 10
15.83778807578776
 20
5.17246572874756
 30
0.0
 10
15.45438200092363
 20
5.0801716943945685
 30
0.0
 10
15.045138509395017
 20
4.967371889278459
 30
0.0
 10
14.712776744241719
 20
4.8639493996773115
 30
0.0
 10
14.665022042511467
 20
4.623870301734405
 30
0.0
 10
14.64102915935606
 20
4.380266470967504
 30
0.0
 10
14.92905757447647
 20
4.184817791313851
 30
0.0
 10
15.287935123629229
 20
3.9580779930813605
 30
0.0
 10
15.62804031765657
 20
3.758461200162844
 30
0.0
 10
15.948010412209896
 20
3.584479845206209
 30
0.0
 10
16.246560424445583
 20
3.434587149019591
 30
0.0
 10
16.47698007915438
 20
3.3281924564886207
 30
0.0
 10
16.53619187540663
 20
3.2891721856776375
 30
0.0
 10
16.56148125033419
 20
3.250909647678074
 30
0.0
 10
16.48977389192871
 20
2.522852619742708
 30
0.0
 10
16.45750579438968
 20
2.4902589979800624
 30
0.0
 10
16.391819259009758
 20
2.4635401390954796
 30
0.0
 10
16.145070478520125
 20
2.404142435417675
 30
0.0
 10
15.82301440668909
 20
2.3153741033831388
 30
0.0
 10
15.475250369218553
 20
2.207158820158977
 30
0.0
 10
15.102736896717193
 20
2.077728839764757
 30
0.0
 10
14.706520338785122
 20
1.925359319803484
 30
0.0
 10
14.385896163051246
 20
1.789857687982793
 30
0.0
  0
LWPOLYLINE
  8
OpenJsCad
  90
31
  70
1
 10
45.32531025047054
 20
1.9335352719540153
 30
0.0
 10
45.73848826181103
 20
1.9975909124103448
 30
0.0
 10
46.155955258793384
 20
1.97434224448965
 30
0.0
 10
46.55946593042057
 20
1.8648053465395507
 30
0.0
 10
46.93138492408346
 20
1.6737675066168187
 30
0.0
 10
47.25545759509363
 20
1.409577995027341
 30
0.0
 10
47.51752041265474
 20
1.083783161149504
 30
0.0
 10
47.70611997412245
 20
0.7106218025608323
 30
0.0
 10
47.81301357365951
 20
0.30640286125851646
 30
0.0
 10
47.833529448033765
 20
-0.11120735536485037
 30
0.0
 10
47.76677095508896
 20
-0.5239572769266748
 30
0.0
 10
47.615655761309576
 20
-0.913807751260842
 30
0.0
 10
47.386788325794925
 20
-1.2637204419288177
 30
0.0
 10
47.0901712537048
 20
-1.5584024852810332
 30
0.0
 10
46.73876813441617
 20
-1.7849748619816679
 30
0.0
 10
46.34793697046119
 20
-1.9335352719540153
 30
0.0
 10
45.9347589591207
 20
-1.9975909124103448
 30
0.0
 10
45.517291962138344
 20
-1.97434224448965
 30
0.0
 10
45.113781290511156
 20
-1.8648053465395507
 30
0.0
 10
44.74186229684827
 20
-1.6737675066168187
 30
0.0
 10
44.4177896258381
 20
-1.40957799502734
 30
0.0
 10
44.15572680827699
 20
-1.0837831611495035
 30
0.0
 10
43.96712724680928
 20
-0.7106218025608325
 30
0.0
 10
43.86023364727222
 20
-0.3064028612585171
 30
0.0
 10
43.83971777289796
 20
0.11120735536484881
 30
0.0
 10
43.90647626584277
 20
0.5239572769266746
 30
0.0
 10
44.05759145962215
 20
0.9138077512608413
 30
0.0
 10
44.2864588951368
 20
1.2637204419288173
 30
0.0
 10
44.583075967226925
 20
1.5584024852810332
 30
0.0
 10
44.93447908651556
 20
1.7849748619816679
 30
0.0
 10
45.32531025047054
 20
1.9335352719540153
 30
0.0
  0
ENDSEC
  0
EOF
